<?xml version="1.0" encoding="UTF-8" standalone="no"?>
<svg
   xmlns:dc="http://purl.org/dc/elements/1.1/"
   xmlns:cc="http://creativecommons.org/ns#"
   xmlns:rdf="http://www.w3.org/1999/02/22-rdf-syntax-ns#"
   xmlns:svg="http://www.w3.org/2000/svg"
   xmlns="http://www.w3.org/2000/svg"
   xmlns:sodipodi="http://sodipodi.sourceforge.net/DTD/sodipodi-0.dtd"
   xmlns:inkscape="http://www.inkscape.org/namespaces/inkscape"
   width="27.750839mm"
   height="31.417654mm"
   viewBox="0 0 27.750839 31.417654"
   version="1.1"
   id="svg8"
   inkscape:version="1.0.1 (3bc2e813f5, 2020-09-07)"
   sodipodi:docname="CopyrightImage.svg">
  <defs
     id="defs2">
    <rect
       x="28.33057"
       y="750.49286"
       width="101.49001"
       height="51.060307"
       id="rect11994-4-2-5-4" />
    <rect
       x="28.33057"
       y="750.49286"
       width="101.49001"
       height="51.060307"
       id="rect10869" />
    <rect
       x="28.33057"
       y="750.49286"
       width="101.49001"
       height="51.060307"
       id="rect4199-3-9" />
    <rect
       x="28.33057"
       y="750.49286"
       width="101.49001"
       height="51.060307"
       id="rect10630" />
  </defs>
  <sodipodi:namedview
     id="base"
     pagecolor="#ffffff"
     bordercolor="#666666"
     borderopacity="1.0"
     inkscape:pageopacity="0.0"
     inkscape:pageshadow="2"
     inkscape:zoom="3.959798"
     inkscape:cx="57.456458"
     inkscape:cy="56.487939"
     inkscape:document-units="px"
     inkscape:current-layer="layer1"
     showgrid="false"
     inkscape:window-width="1920"
     inkscape:window-height="1057"
     inkscape:window-x="-8"
     inkscape:window-y="-8"
     inkscape:window-maximized="1"
     inkscape:document-rotation="0"
     inkscape:snap-global="false" />
  <metadata
     id="metadata5">
    <rdf:RDF>
      <cc:Work
         rdf:about="">
        <dc:format>image/svg+xml</dc:format>
        <dc:type
           rdf:resource="http://purl.org/dc/dcmitype/StillImage" />
        <dc:title />
      </cc:Work>
    </rdf:RDF>
  </metadata>
  <g
     inkscape:label="Layer 1"
     inkscape:groupmode="layer"
     id="layer1"
     transform="translate(-72.303154,-118.82492)">
    <rect
       style="vector-effect:none;fill:#ffffff;fill-opacity:1;fill-rule:evenodd;stroke:none;stroke-width:3.05208;stroke-linecap:round;stroke-linejoin:round;stroke-miterlimit:4;stroke-dasharray:none;stroke-dashoffset:0;stroke-opacity:1"
       id="rect1459-7-7"
       width="27.750839"
       height="6.5476561"
       x="72.303154"
       y="143.69492" />
    <g
       aria-label="© 2032 Arc-GGD "
       transform="matrix(0.39983986,0,0,0.39983986,61.132857,-162.19495)"
       id="text11992-0-4-1"
       style="font-style:normal;font-variant:normal;font-weight:bold;font-stretch:normal;font-size:8.8574px;line-height:1.25;font-family:FreeSans;-inkscape-font-specification:'FreeSans Bold';letter-spacing:0px;word-spacing:0px;white-space:pre;shape-inside:url(#rect11994-4-2-5-4);fill:#ffffff;fill-opacity:1;stroke:none;stroke-width:7.82814">
      <path
         d="m 33.219363,754.86774 c -0.07086,-0.93888 -0.744022,-1.42604 -1.638619,-1.42604 -1.116032,0 -1.80691,0.78831 -1.80691,2.05492 0,1.25775 0.690878,2.05492 1.780338,2.05492 0.992028,0 1.638619,-0.56688 1.682906,-1.49691 h -0.814881 c -0.04429,0.49602 -0.345439,0.76174 -0.85031,0.76174 -0.620018,0 -0.983172,-0.48716 -0.983172,-1.31089 0,-0.8326 0.380868,-1.32861 1.009744,-1.32861 0.469442,0 0.726306,0.21257 0.823738,0.69087 z m -1.620904,-2.76351 c -1.868912,0 -3.392384,1.52348 -3.392384,3.38353 0,1.8512 1.523472,3.39239 3.348097,3.39239 1.913198,0 3.427813,-1.49691 3.427813,-3.39239 0,-1.86891 -1.523472,-3.38353 -3.383526,-3.38353 z m -0.0089,0.63774 c 1.488043,0 2.701507,1.23118 2.701507,2.74579 0,1.53233 -1.204606,2.75465 -2.728079,2.75465 -1.452613,0 -2.666077,-1.25775 -2.666077,-2.75465 0,-1.51461 1.213464,-2.74579 2.692649,-2.74579 z"
         style="font-style:normal;font-variant:normal;font-weight:bold;font-stretch:normal;font-size:8.8574px;font-family:FreeSans;-inkscape-font-specification:'FreeSans Bold';fill:#ffffff;fill-opacity:1;stroke-width:7.82814"
         id="path12014" />
      <path
         d="m 41.881894,754.26544 c 0,-1.21346 -0.832595,-1.99292 -2.152348,-1.99292 -1.302038,0 -2.063774,0.7706 -2.063774,2.09921 0,0.0531 0,0.124 0.0089,0.22143 h 1.186892 v -0.20372 c 0,-0.69973 0.327724,-1.10717 0.894597,-1.10717 0.549159,0 0.88574,0.38087 0.88574,1.00974 0,0.69088 -0.212577,0.97432 -1.603189,1.94863 -1.054031,0.73516 -1.390612,1.28432 -1.452614,2.44464 h 4.269267 v -1.10717 h -2.65722 c 0.531444,-1.12489 2.683792,-1.4349 2.683792,-3.31267 z"
         style="font-style:normal;font-variant:normal;font-weight:bold;font-stretch:normal;font-size:8.8574px;font-family:FreeSans;-inkscape-font-specification:'FreeSans Bold';fill:#ffffff;fill-opacity:1;stroke-width:7.82814"
         id="path12016" />
      <path
         d="m 44.663116,758.889 c 1.744908,0 2.161205,-1.50576 2.161205,-3.26838 0,-1.15146 -0.141718,-1.93091 -0.44287,-2.41807 -0.37201,-0.6023 -0.983171,-0.93003 -1.718335,-0.93003 -0.673163,0 -1.248894,0.28344 -1.629762,0.80603 -0.363153,0.48716 -0.531444,1.29318 -0.531444,2.50664 0,1.82463 0.434013,3.30381 2.161206,3.30381 z m 0.921169,-3.29495 c 0,0.69973 -0.07086,1.40833 -0.159433,1.65633 -0.141718,0.37201 -0.40744,0.57573 -0.761736,0.57573 -0.575731,0 -0.92117,-0.38086 -0.92117,-2.24977 0,-1.78034 0.283437,-2.30293 0.92117,-2.30293 0.566873,0 0.921169,0.36315 0.921169,2.32064 z"
         style="font-style:normal;font-variant:normal;font-weight:bold;font-stretch:normal;font-size:8.8574px;font-family:FreeSans;-inkscape-font-specification:'FreeSans Bold';fill:#ffffff;fill-opacity:1;stroke-width:7.82814"
         id="path12018" />
      <path
         d="m 47.506339,754.2743 v 0.10629 h 1.151462 c 0.01772,-0.67317 0.159433,-1.10718 0.859168,-1.10718 0.496014,0 0.779451,0.30115 0.779451,0.82374 0,0.62887 -0.363153,0.94774 -1.098318,0.94774 h -0.106288 v 0.8326 c 0.434012,0 0.513729,0.009 0.726306,0.062 0.416298,0.11514 0.68202,0.4783 0.68202,0.93888 0,0.54916 -0.389725,0.94774 -0.930027,0.94774 -0.584588,0 -0.903455,-0.33658 -0.938884,-0.98317 h -1.204607 c 0.0089,1.25775 0.832596,2.04606 2.116919,2.04606 1.337467,0 2.196635,-0.78831 2.196635,-2.01063 0,-0.73516 -0.318866,-1.21346 -1.027458,-1.5589 0.584588,-0.36315 0.823738,-0.76174 0.823738,-1.33747 0,-1.04517 -0.779451,-1.70948 -1.992915,-1.70948 -0.806023,0 -2.037202,0.30116 -2.037202,2.00178 z"
         style="font-style:normal;font-variant:normal;font-weight:bold;font-stretch:normal;font-size:8.8574px;font-family:FreeSans;-inkscape-font-specification:'FreeSans Bold';fill:#ffffff;fill-opacity:1;stroke-width:7.82814"
         id="path12020" />
      <path
         d="m 56.656032,754.26544 c 0,-1.21346 -0.832596,-1.99292 -2.152348,-1.99292 -1.302038,0 -2.063774,0.7706 -2.063774,2.09921 0,0.0531 0,0.124 0.0089,0.22143 h 1.186892 v -0.20372 c 0,-0.69973 0.327723,-1.10717 0.894597,-1.10717 0.549159,0 0.88574,0.38087 0.88574,1.00974 0,0.69088 -0.212578,0.97432 -1.603189,1.94863 -1.054031,0.73516 -1.390612,1.28432 -1.452614,2.44464 h 4.269267 v -1.10717 h -2.65722 c 0.531444,-1.12489 2.683792,-1.4349 2.683792,-3.31267 z"
         style="font-style:normal;font-variant:normal;font-weight:bold;font-stretch:normal;font-size:8.8574px;font-family:FreeSans;-inkscape-font-specification:'FreeSans Bold';fill:#ffffff;fill-opacity:1;stroke-width:7.82814"
         id="path12022" />
      <path
         d="m 63.919096,757.38324 0.425155,1.30204 h 1.36404 l -2.232065,-6.45704 h -1.470328 l -2.294067,6.45704 h 1.355182 l 0.434013,-1.30204 z m -0.363153,-1.10717 h -1.682906 l 0.841453,-2.52436 z"
         style="font-style:normal;font-variant:normal;font-weight:bold;font-stretch:normal;font-size:8.8574px;font-family:FreeSans;-inkscape-font-specification:'FreeSans Bold';fill:#ffffff;fill-opacity:1;stroke-width:7.82814"
         id="path12024" />
      <path
         d="m 66.168852,753.90229 v 4.78299 h 1.240036 v -2.54207 c 0,-0.72631 0.363154,-1.08946 1.08946,-1.08946 0.132861,0 0.221435,0.009 0.389726,0.0354 v -1.25775 c -0.07086,-0.009 -0.115146,-0.009 -0.150576,-0.009 -0.566873,0 -1.062888,0.37201 -1.32861,1.0186 v -0.93888 z"
         style="font-style:normal;font-variant:normal;font-weight:bold;font-stretch:normal;font-size:8.8574px;font-family:FreeSans;-inkscape-font-specification:'FreeSans Bold';fill:#ffffff;fill-opacity:1;stroke-width:7.82814"
         id="path12026" />
      <path
         d="m 71.474424,754.82346 c 0.504871,0 0.744021,0.23915 0.88574,0.86802 h 1.186891 c -0.08857,-1.16918 -0.868025,-1.86891 -2.063774,-1.86891 -1.426041,0 -2.258637,0.93888 -2.258637,2.56865 0,1.57661 0.823738,2.49778 2.240922,2.49778 1.16032,0 1.966343,-0.71745 2.081489,-1.86005 h -1.186891 c -0.159434,0.62002 -0.407441,0.85917 -0.88574,0.85917 -0.628876,0 -1.009744,-0.56688 -1.009744,-1.4969 0,-0.66431 0.150576,-1.56776 1.009744,-1.56776 z"
         style="font-style:normal;font-variant:normal;font-weight:bold;font-stretch:normal;font-size:8.8574px;font-family:FreeSans;-inkscape-font-specification:'FreeSans Bold';fill:#ffffff;fill-opacity:1;stroke-width:7.82814"
         id="path12028" />
      <path
         d="m 76.487711,755.65605 h -2.409213 v 1.19575 h 2.409213 z"
         style="font-style:normal;font-variant:normal;font-weight:bold;font-stretch:normal;font-size:8.8574px;font-family:FreeSans;-inkscape-font-specification:'FreeSans Bold';fill:#ffffff;fill-opacity:1;stroke-width:7.82814"
         id="path12030" />
      <path
         d="m 81.66927,754.2743 h 1.248893 c -0.159433,-1.32861 -1.240036,-2.17007 -2.798938,-2.17007 -1.860054,0 -3.126662,1.3729 -3.126662,3.38353 0,1.95749 1.275465,3.38353 3.020373,3.38353 0.868025,0 1.452614,-0.31001 1.948628,-1.03632 l 0.159433,0.85031 h 0.797166 v -3.48981 h -2.58636 v 1.10717 h 1.470328 c -0.115146,1.22232 -1.310895,1.4349 -1.638619,1.4349 -1.071745,0 -1.842339,-0.93888 -1.842339,-2.26749 0,-1.39062 0.68202,-2.23207 1.806909,-2.23207 0.92117,0 1.355183,0.48716 1.541188,1.03632 z"
         style="font-style:normal;font-variant:normal;font-weight:bold;font-stretch:normal;font-size:8.8574px;font-family:FreeSans;-inkscape-font-specification:'FreeSans Bold';fill:#ffffff;fill-opacity:1;stroke-width:7.82814"
         id="path12032" />
      <path
         d="m 88.383175,754.2743 h 1.248894 c -0.159433,-1.32861 -1.240036,-2.17007 -2.798939,-2.17007 -1.860054,0 -3.126662,1.3729 -3.126662,3.38353 0,1.95749 1.275466,3.38353 3.020374,3.38353 0.868025,0 1.452613,-0.31001 1.948628,-1.03632 l 0.159433,0.85031 h 0.797166 v -3.48981 h -2.586361 v 1.10717 h 1.470328 c -0.115146,1.22232 -1.310895,1.4349 -1.638619,1.4349 -1.071745,0 -1.842339,-0.93888 -1.842339,-2.26749 0,-1.39062 0.68202,-2.23207 1.80691,-2.23207 0.921169,0 1.355182,0.48716 1.541187,1.03632 z"
         style="font-style:normal;font-variant:normal;font-weight:bold;font-stretch:normal;font-size:8.8574px;font-family:FreeSans;-inkscape-font-specification:'FreeSans Bold';fill:#ffffff;fill-opacity:1;stroke-width:7.82814"
         id="path12034" />
      <path
         d="m 90.907529,758.68528 h 2.524359 c 0.983172,0 1.60319,-0.23029 2.037202,-0.75288 0.51373,-0.6023 0.788309,-1.47918 0.788309,-2.48007 0,-0.99203 -0.274579,-1.86891 -0.788309,-2.48007 -0.434012,-0.52259 -1.045173,-0.74402 -2.037202,-0.74402 h -2.524359 z m 1.32861,-1.10717 v -4.2427 h 1.195749 c 1.000887,0 1.496901,0.69974 1.496901,2.12578 0,1.41718 -0.496014,2.11692 -1.496901,2.11692 z"
         style="font-style:normal;font-variant:normal;font-weight:bold;font-stretch:normal;font-size:8.8574px;font-family:FreeSans;-inkscape-font-specification:'FreeSans Bold';fill:#ffffff;fill-opacity:1;stroke-width:7.82814"
         id="path12036" />
    </g>
    <g
       id="g1059"
       style="fill:#ffffff"
       transform="matrix(1.1897072,0,0,1.1897072,-51.524672,-22.686733)">
      <path
         d="m 116.67868,124.00513 q -0.0489,0.0596 -0.13387,0.12109 -0.085,0.0614 -0.20261,0.11204 -0.11577,0.0488 -0.26049,0.0795 -0.14471,0.0307 -0.31114,0.0307 -0.22431,0 -0.40521,-0.0795 -0.1809,-0.0795 -0.30934,-0.22952 -0.12843,-0.15 -0.19898,-0.36687 -0.0687,-0.21867 -0.0687,-0.49518 v -0.35783 q 0,-0.27651 0.0724,-0.49337 0.0742,-0.21868 0.2026,-0.37049 0.13024,-0.1518 0.30391,-0.23132 0.17547,-0.0795 0.37988,-0.0795 0.22251,0 0.38712,0.056 0.16643,0.056 0.28039,0.16265 0.11397,0.10481 0.17728,0.25662 0.0651,0.15181 0.085,0.34157 h -0.49566 q -0.0253,-0.20241 -0.12301,-0.30362 -0.0959,-0.10301 -0.29848,-0.10301 -0.0977,0 -0.1809,0.0506 -0.0832,0.0488 -0.14472,0.14458 -0.0615,0.0958 -0.0977,0.23856 -0.0362,0.14096 -0.0362,0.3271 v 0.36145 q 0.002,0.36868 0.12301,0.56566 0.1212,0.19519 0.37084,0.19699 0.0597,0 0.11758,-0.009 0.0579,-0.009 0.10854,-0.0253 0.0506,-0.0163 0.0886,-0.0361 0.0398,-0.0217 0.0597,-0.0452 l 0.002,-0.4771 h -0.43596 v -0.37952 h 0.94248 z"
         style="font-style:normal;font-variant:normal;font-weight:bold;font-stretch:normal;font-size:26.3689px;line-height:1.25;font-family:'Roboto Mono';-inkscape-font-specification:'Roboto Mono Bold';letter-spacing:0px;word-spacing:0px;fill:#ffffff;fill-opacity:1;stroke:none;stroke-width:0.092575"
         id="path10759-5" />
      <path
         d="m 114.38297,128.54524 q -0.0489,0.0596 -0.13387,0.12109 -0.085,0.0614 -0.20261,0.11205 -0.11577,0.0488 -0.26049,0.0795 -0.14472,0.0307 -0.31114,0.0307 -0.22431,0 -0.40521,-0.0795 -0.1809,-0.0795 -0.30934,-0.22952 -0.12844,-0.15 -0.19898,-0.36687 -0.0687,-0.21867 -0.0687,-0.49518 v -0.35783 q 0,-0.2765 0.0724,-0.49337 0.0742,-0.21868 0.20261,-0.37048 0.13024,-0.15181 0.30391,-0.23133 0.17547,-0.0795 0.37988,-0.0795 0.22251,0 0.38712,0.056 0.16643,0.056 0.28039,0.16265 0.11397,0.10482 0.17728,0.25662 0.0651,0.15181 0.085,0.34157 h -0.49565 q -0.0253,-0.20241 -0.12302,-0.30361 -0.0959,-0.10302 -0.29848,-0.10302 -0.0977,0 -0.18089,0.0506 -0.0832,0.0488 -0.14472,0.14458 -0.0615,0.0958 -0.0977,0.23855 -0.0362,0.14096 -0.0362,0.32711 v 0.36144 q 0.002,0.36868 0.12301,0.56566 0.1212,0.19519 0.37084,0.19699 0.0597,0 0.11758,-0.009 0.0579,-0.009 0.10854,-0.0253 0.0506,-0.0163 0.0886,-0.0361 0.0398,-0.0217 0.0597,-0.0452 l 0.002,-0.47711 h -0.43596 v -0.37952 h 0.94247 z"
         style="font-style:normal;font-variant:normal;font-weight:bold;font-stretch:normal;font-size:26.3689px;line-height:1.25;font-family:'Roboto Mono';-inkscape-font-specification:'Roboto Mono Bold';letter-spacing:0px;word-spacing:0px;fill:#ffffff;fill-opacity:1;stroke:none;stroke-width:0.092575"
         id="path10765-2" />
      <path
         d="m 117.31346,128.85249 v -2.63133 h 0.68198 q 0.2623,0 0.47396,0.0904 0.21346,0.0886 0.3636,0.2494 0.15195,0.15904 0.23336,0.38133 0.0832,0.22229 0.0832,0.48795 v 0.21687 q 0,0.26566 -0.0832,0.48795 -0.0814,0.22048 -0.22974,0.38132 -0.14834,0.15904 -0.35637,0.2476 -0.20803,0.0885 -0.45948,0.0885 z m 0.51194,-2.21928 v 1.81085 h 0.19537 q 0.14291,0 0.25506,-0.0542 0.11397,-0.0542 0.19176,-0.15723 0.0796,-0.10301 0.1212,-0.2494 0.0416,-0.14819 0.0416,-0.33614 v -0.22048 q 0,-0.17711 -0.0416,-0.32169 -0.0398,-0.14638 -0.1212,-0.25121 -0.0796,-0.10481 -0.19899,-0.16265 -0.11759,-0.0578 -0.27316,-0.0578 z"
         style="font-style:normal;font-variant:normal;font-weight:bold;font-stretch:normal;font-size:26.3689px;line-height:1.25;font-family:'Roboto Mono';-inkscape-font-specification:'Roboto Mono Bold';letter-spacing:0px;word-spacing:0px;fill:#ffffff;fill-opacity:1;stroke:none;stroke-width:0.092575"
         id="path10771-1" />
      <path
         id="path9771-2"
         style="color:#000000;font-style:normal;font-variant:normal;font-weight:normal;font-stretch:normal;font-size:medium;line-height:normal;font-family:sans-serif;font-variant-ligatures:normal;font-variant-position:normal;font-variant-caps:normal;font-variant-numeric:normal;font-variant-alternates:normal;font-variant-east-asian:normal;font-feature-settings:normal;font-variation-settings:normal;text-indent:0;text-align:start;text-decoration:none;text-decoration-line:none;text-decoration-style:solid;text-decoration-color:#000000;letter-spacing:normal;word-spacing:normal;text-transform:none;writing-mode:lr-tb;direction:ltr;text-orientation:mixed;dominant-baseline:auto;baseline-shift:baseline;text-anchor:start;white-space:normal;shape-padding:0;shape-margin:0;inline-size:0;clip-rule:nonzero;display:inline;overflow:visible;visibility:visible;isolation:auto;mix-blend-mode:normal;color-interpolation:sRGB;color-interpolation-filters:linearRGB;solid-color:#000000;solid-opacity:1;vector-effect:none;fill:#ffffff;fill-opacity:1;fill-rule:evenodd;stroke:none;stroke-width:0.0983011;stroke-linecap:round;stroke-linejoin:round;stroke-miterlimit:4;stroke-dasharray:none;stroke-dashoffset:0;stroke-opacity:1;paint-order:normal;color-rendering:auto;image-rendering:auto;shape-rendering:auto;text-rendering:auto;enable-background:accumulate;stop-color:#000000"
         d="m 114.09101,118.94662 c -0.007,0 -0.0144,0.001 -0.0186,0.003 -0.0168,0.009 -0.0183,0.0155 -0.0234,0.0231 -0.005,0.008 -0.01,0.0162 -0.0158,0.0262 -0.0115,0.02 -0.0254,0.0453 -0.0427,0.0725 -0.0929,0.14638 -0.21658,0.51713 -0.23796,0.59203 l -0.0236,0.0827 -0.096,-0.0882 c -0.0402,-0.0369 -0.082,-0.0571 -0.12164,-0.0611 -0.0396,-0.004 -0.0772,0.009 -0.10159,0.036 -0.0244,0.0266 -0.0343,0.065 -0.027,0.10412 0,0.002 10e-4,0.005 0.002,0.007 -0.0296,-0.0182 -0.0593,-0.0285 -0.0876,-0.0309 -0.0419,-0.004 -0.081,0.0112 -0.10613,0.0395 -0.0251,0.0283 -0.0349,0.069 -0.0265,0.11019 0.001,0.007 0.003,0.0136 0.006,0.0205 -0.0379,-0.0294 -0.0765,-0.0452 -0.11278,-0.0482 -0.0419,-0.003 -0.081,0.0111 -0.10614,0.0394 -0.0208,0.0235 -0.0309,0.0555 -0.029,0.0892 -0.0324,-0.0216 -0.065,-0.0335 -0.096,-0.0361 -0.0419,-0.003 -0.0812,0.011 -0.10628,0.0393 -0.0243,0.0274 -0.0342,0.0664 -0.0272,0.10629 -0.10248,-0.0862 -0.31592,-0.25789 -0.43653,-0.33089 -0.0481,-0.0291 -0.0801,-0.0479 -0.1025,-0.059 -0.0112,-0.006 -0.0189,-0.01 -0.031,-0.0118 -0.006,-10e-4 -0.0147,-0.003 -0.0275,0.004 -0.003,0.002 -0.006,0.004 -0.009,0.007 v 0 c -0.008,0.008 -0.0118,0.0205 -0.0117,0.0276 0,0.0189 0.006,0.0232 0.0102,0.0311 0.004,0.008 0.01,0.0164 0.0164,0.026 0.0127,0.0192 0.0291,0.0429 0.0457,0.0706 0.0874,0.14568 0.35157,0.41184 0.41623,0.47219 -1.00359,0.56519 -1.83862,1.39403 -2.41044,2.39276 -0.0497,-0.0841 -0.23396,-0.37312 -0.33869,-0.49543 -0.0365,-0.0427 -0.0612,-0.0707 -0.079,-0.0883 -0.009,-0.009 -0.0148,-0.015 -0.0256,-0.0209 -0.005,-0.003 -0.0132,-0.007 -0.0275,-0.005 -0.0143,0.002 -0.027,0.0173 -0.0299,0.0263 -0.006,0.0179 -0.002,0.0239 0,0.0329 0.002,0.009 0.004,0.0186 0.007,0.0297 0.006,0.0222 0.0141,0.0499 0.0212,0.0814 0.0381,0.16908 0.21345,0.51841 0.25141,0.58644 l 0.0419,0.0751 -0.13024,0.006 c -0.0546,0.002 -0.0983,0.0176 -0.12914,0.0429 -0.0308,0.0252 -0.0479,0.0612 -0.0463,0.0972 0.002,0.036 0.0218,0.0702 0.0547,0.0927 0.002,0.001 0.004,0.003 0.006,0.004 -0.0338,0.008 -0.0621,0.0217 -0.0837,0.0401 -0.0321,0.0271 -0.0494,0.0652 -0.047,0.10291 0.002,0.0378 0.0242,0.0735 0.0593,0.0966 0.006,0.004 0.0121,0.007 0.0186,0.0104 -0.0476,0.006 -0.086,0.0221 -0.11383,0.0456 -0.0321,0.0272 -0.0493,0.0652 -0.047,0.10297 0.002,0.0313 0.0175,0.061 0.0427,0.0835 -0.0382,0.008 -0.0696,0.0223 -0.0934,0.0424 -0.0321,0.0271 -0.0496,0.0651 -0.0473,0.10287 0.002,0.0366 0.023,0.0711 0.0562,0.0943 -0.13347,0.0116 -0.40591,0.0412 -0.54283,0.075 -0.0545,0.0134 -0.0904,0.0229 -0.11414,0.0308 -0.0119,0.004 -0.0202,0.007 -0.0303,0.0136 -0.005,0.003 -0.0126,0.008 -0.0169,0.0221 -10e-4,0.003 -10e-4,0.007 -10e-4,0.011 h -0.001 c 0.001,0.0113 0.006,0.0228 0.0113,0.0277 0.0135,0.0132 0.0204,0.0123 0.0292,0.0147 0.009,0.002 0.0187,0.005 0.03,0.007 0.0226,0.005 0.0509,0.01 0.0823,0.0175 0.16469,0.041 0.5387,0.0423 0.62789,0.0392 -0.15161,0.54413 -0.23299,1.11744 -0.23299,1.70979 0,0.5773 0.0774,1.1365 0.2217,1.66825 -0.0947,-0.0245 -0.42929,-0.0993 -0.58985,-0.11203 -0.056,-0.004 -0.0933,-0.007 -0.11832,-0.007 -0.0125,0 -0.021,-2.4e-4 -0.0328,0.003 -0.006,0.002 -0.0146,0.004 -0.0231,0.0158 -0.008,0.0118 -0.007,0.0314 -0.003,0.0397 0.009,0.0168 0.0155,0.0184 0.0231,0.0235 0.008,0.005 0.0162,0.01 0.0262,0.0158 0.02,0.0115 0.0453,0.0254 0.0726,0.0427 0.14647,0.0929 0.51748,0.21669 0.59244,0.2381 l 0.0828,0.0236 -0.0883,0.0958 c -0.037,0.0401 -0.0572,0.0819 -0.0612,0.12152 -0.004,0.0396 0.009,0.0771 0.0359,0.10149 0.0266,0.0244 0.065,0.0343 0.10423,0.0271 0.002,-4.7e-4 0.005,-0.001 0.007,-0.002 -0.0182,0.0296 -0.0286,0.0592 -0.031,0.0875 -0.004,0.0419 0.0111,0.0809 0.0394,0.10603 0.0283,0.0251 0.0691,0.035 0.11031,0.0266 0.007,-0.001 0.0137,-0.003 0.0205,-0.006 -0.0294,0.0378 -0.0453,0.0763 -0.0484,0.11256 -0.003,0.0418 0.0112,0.081 0.0395,0.10608 0.0235,0.0208 0.0555,0.0309 0.0892,0.0291 -0.0217,0.0324 -0.0335,0.0649 -0.0362,0.0959 -0.004,0.0418 0.011,0.0811 0.0393,0.10618 0.0274,0.0243 0.0665,0.0342 0.10639,0.0272 -0.0864,0.10232 -0.25838,0.31551 -0.33152,0.43596 -0.0291,0.048 -0.0479,0.08 -0.0591,0.10233 -0.006,0.0112 -0.01,0.0188 -0.0118,0.0309 -0.001,0.006 -0.003,0.0147 0.004,0.0276 0.002,0.003 0.004,0.006 0.007,0.009 v 0 c 0.008,0.008 0.0205,0.0118 0.0276,0.0117 0.0189,0 0.0232,-0.006 0.0311,-0.0102 0.008,-0.004 0.0164,-0.01 0.0261,-0.0163 0.0193,-0.0127 0.0429,-0.029 0.0707,-0.0456 0.14591,-0.0872 0.41268,-0.35117 0.473,-0.41562 0.5652,1.00311 1.39445,1.83792 2.39386,2.4098 -0.0838,0.0493 -0.3739,0.23364 -0.49654,0.33832 -0.0427,0.0365 -0.0708,0.0611 -0.0884,0.0788 -0.009,0.009 -0.0149,0.0147 -0.0208,0.0255 -0.003,0.005 -0.007,0.0132 -0.005,0.0275 0.002,0.0143 0.0173,0.027 0.0263,0.0299 0.018,0.006 0.024,0.002 0.0329,2.4e-4 0.009,-0.002 0.0186,-0.004 0.0297,-0.007 0.0223,-0.006 0.05,-0.0141 0.0815,-0.0211 0.16927,-0.038 0.51904,-0.21292 0.58716,-0.2508 l 0.0751,-0.0418 0.006,0.13012 c 0.002,0.0545 0.0176,0.0983 0.0429,0.12906 0.0252,0.0308 0.0613,0.0479 0.0973,0.0464 0.0361,-0.002 0.0703,-0.0218 0.0928,-0.0546 10e-4,-0.002 0.003,-0.004 0.004,-0.006 0.008,0.0338 0.0217,0.0621 0.0401,0.0837 0.0271,0.032 0.0652,0.0493 0.10301,0.047 0.0378,-0.002 0.0735,-0.0241 0.0967,-0.0592 0.004,-0.006 0.007,-0.0121 0.0105,-0.0186 0.006,0.0475 0.0221,0.0859 0.0456,0.11372 0.0272,0.0321 0.0652,0.0493 0.10297,0.047 0.0313,-0.002 0.0612,-0.0174 0.0837,-0.0425 0.008,0.0382 0.0223,0.0696 0.0424,0.0933 0.0272,0.032 0.0652,0.0495 0.10296,0.0472 0.0366,-0.002 0.0712,-0.0229 0.0944,-0.056 0.0115,0.13336 0.041,0.40555 0.0747,0.54236 0.0134,0.0545 0.0229,0.0904 0.0308,0.11409 0.004,0.0119 0.007,0.0201 0.0136,0.0302 0.003,0.005 0.008,0.0126 0.0221,0.0169 0.003,0.001 0.007,0.001 0.011,0.001 v 0 c 0.0113,-7e-4 0.0228,-0.006 0.0278,-0.0112 0.0132,-0.0134 0.0123,-0.0205 0.0148,-0.0293 0.002,-0.009 0.004,-0.0187 0.007,-0.03 0.005,-0.0226 0.01,-0.0509 0.0176,-0.0822 0.0412,-0.16447 0.0427,-0.53796 0.0397,-0.62719 0.54579,0.15216 1.12095,0.23377 1.71526,0.23377 0.57747,0 1.13684,-0.0773 1.6688,-0.22122 -0.0245,0.0943 -0.0995,0.42906 -0.11235,0.5896 -0.005,0.056 -0.007,0.0932 -0.007,0.11815 0,0.0125 0,0.021 0.003,0.0328 0.002,0.006 0.004,0.0146 0.0158,0.0231 0.0118,0.008 0.0314,0.007 0.0398,0.003 0.0168,-0.009 0.0184,-0.0155 0.0235,-0.0231 0.005,-0.008 0.01,-0.0162 0.0158,-0.0262 0.0115,-0.02 0.0254,-0.0453 0.0427,-0.0725 0.093,-0.1463 0.21699,-0.51693 0.23843,-0.59181 l 0.0237,-0.0827 0.0959,0.0882 c 0.0402,0.037 0.082,0.0572 0.1216,0.0612 0.0396,0.004 0.0772,-0.009 0.10158,-0.0359 0.0244,-0.0265 0.0344,-0.0649 0.0271,-0.10407 0,-0.002 -0.001,-0.005 -0.002,-0.007 0.0296,0.0182 0.0593,0.0286 0.0876,0.031 0.0419,0.004 0.081,-0.0111 0.10613,-0.0394 0.0251,-0.0283 0.035,-0.0689 0.0267,-0.11014 -0.001,-0.007 -0.003,-0.0137 -0.006,-0.0205 0.0379,0.0294 0.0764,0.0453 0.11272,0.0483 0.0419,0.004 0.081,-0.0111 0.10613,-0.0394 0.0208,-0.0235 0.031,-0.0555 0.0291,-0.0892 0.0324,0.0217 0.065,0.0335 0.096,0.0362 0.0419,0.004 0.0812,-0.0109 0.10629,-0.0392 0.0243,-0.0274 0.0342,-0.0664 0.0272,-0.10629 0.10242,0.0863 0.31579,0.25816 0.43634,0.33126 0.048,0.0291 0.08,0.0479 0.10239,0.059 0.0112,0.006 0.0189,0.01 0.031,0.0118 0.006,0.001 0.0147,0.003 0.0275,-0.004 0.003,-0.002 0.006,-0.004 0.009,-0.007 v 0 c 0.008,-0.008 0.0118,-0.0205 0.0118,-0.0276 0,-0.0189 -0.006,-0.0232 -0.0102,-0.0311 -0.004,-0.008 -0.01,-0.0164 -0.0163,-0.026 -0.0127,-0.0192 -0.0291,-0.043 -0.0456,-0.0707 -0.0873,-0.1458 -0.35147,-0.41238 -0.41597,-0.47266 1.00418,-0.5645 1.83993,-1.39283 2.41255,-2.39118 0.0493,0.0836 0.2338,0.37365 0.3386,0.49622 0.0365,0.0427 0.0611,0.0707 0.0789,0.0883 0.009,0.009 0.0148,0.015 0.0255,0.0209 0.005,0.003 0.0132,0.008 0.0275,0.005 0.0143,-0.002 0.0271,-0.0173 0.03,-0.0263 0.006,-0.0179 0.002,-0.0239 0,-0.0329 -0.002,-0.009 -0.004,-0.0186 -0.007,-0.0297 -0.006,-0.0223 -0.0141,-0.0499 -0.0212,-0.0814 -0.038,-0.16911 -0.21303,-0.51859 -0.25094,-0.58665 l -0.0418,-0.0751 0.13019,-0.005 c 0.0546,-0.002 0.0984,-0.0176 0.12925,-0.0428 0.0308,-0.0252 0.048,-0.0611 0.0464,-0.0972 -0.002,-0.036 -0.0217,-0.0702 -0.0546,-0.0927 -0.002,-10e-4 -0.004,-0.003 -0.006,-0.004 0.0339,-0.008 0.0621,-0.0217 0.0838,-0.04 0.0321,-0.0271 0.0494,-0.0651 0.0471,-0.10286 -0.002,-0.0378 -0.0241,-0.0735 -0.0592,-0.0967 -0.006,-0.004 -0.0121,-0.007 -0.0186,-0.0104 0.0476,-0.006 0.086,-0.0221 0.11384,-0.0456 0.0321,-0.0271 0.0494,-0.0651 0.0471,-0.10286 -0.002,-0.0313 -0.0174,-0.0611 -0.0426,-0.0836 0.0383,-0.008 0.0696,-0.0223 0.0934,-0.0423 0.0321,-0.0271 0.0496,-0.0651 0.0473,-0.10281 -0.002,-0.0366 -0.0229,-0.0711 -0.056,-0.0944 0.13349,-0.0115 0.40594,-0.0409 0.54289,-0.0745 0.0546,-0.0134 0.0905,-0.0228 0.1142,-0.0307 0.0118,-0.004 0.0201,-0.007 0.0302,-0.0136 0.005,-0.004 0.0127,-0.008 0.0169,-0.0221 0.001,-0.003 0.001,-0.007 0.001,-0.011 v 0 c -9.4e-4,-0.0113 -0.006,-0.0228 -0.0112,-0.0278 -0.0135,-0.0132 -0.0205,-0.0123 -0.0292,-0.0147 -0.009,-0.002 -0.0187,-0.005 -0.03,-0.007 -0.0226,-0.005 -0.0509,-0.01 -0.0823,-0.0176 -0.16465,-0.0412 -0.53869,-0.0427 -0.62789,-0.0397 0.15255,-0.54569 0.23441,-1.12085 0.23441,-1.71508 0,-0.57545 -0.077,-1.13286 -0.22038,-1.66308 0.0945,0.0246 0.4294,0.0997 0.59007,0.11262 0.056,0.004 0.0933,0.007 0.11826,0.007 0.0125,-2e-5 0.021,2.4e-4 0.0328,-0.003 0.006,-0.002 0.0146,-0.004 0.0231,-0.0158 0.008,-0.0118 0.007,-0.0313 0.003,-0.0397 -0.009,-0.0168 -0.0155,-0.0184 -0.0231,-0.0235 -0.008,-0.005 -0.0162,-0.01 -0.0262,-0.0158 -0.02,-0.0115 -0.0453,-0.0255 -0.0725,-0.0428 -0.14639,-0.093 -0.51734,-0.21704 -0.59228,-0.23852 l -0.0827,-0.0237 0.0883,-0.0957 c 0.037,-0.0401 0.0573,-0.0818 0.0613,-0.12142 0.004,-0.0396 -0.009,-0.0771 -0.0358,-0.10155 -0.0266,-0.0244 -0.065,-0.0344 -0.10423,-0.0271 -0.002,4.7e-4 -0.005,10e-4 -0.007,0.002 0.0183,-0.0296 0.0286,-0.0592 0.031,-0.0875 0.004,-0.0418 -0.0111,-0.081 -0.0394,-0.10607 -0.0283,-0.0251 -0.069,-0.035 -0.11024,-0.0267 -0.007,0.001 -0.0137,0.003 -0.0205,0.006 0.0294,-0.0378 0.0453,-0.0763 0.0484,-0.11262 0.004,-0.0418 -0.0111,-0.0809 -0.0394,-0.10603 -0.0235,-0.0208 -0.0554,-0.031 -0.0892,-0.0292 0.0217,-0.0324 0.0336,-0.0649 0.0362,-0.0958 0.004,-0.0418 -0.0109,-0.0811 -0.0392,-0.10619 -0.0274,-0.0243 -0.0664,-0.0342 -0.10634,-0.0273 0.0864,-0.10226 0.2586,-0.31531 0.33184,-0.4357 0.0292,-0.048 0.048,-0.0799 0.0592,-0.10223 0.006,-0.0112 0.01,-0.0189 0.0118,-0.0309 10e-4,-0.006 0.003,-0.0147 -0.004,-0.0276 -0.002,-0.003 -0.004,-0.006 -0.007,-0.009 v 0 c -0.008,-0.008 -0.0205,-0.0118 -0.0276,-0.0117 -0.0189,0 -0.0232,0.006 -0.0311,0.0102 -0.008,0.004 -0.0164,0.01 -0.026,0.0163 -0.0193,0.0127 -0.043,0.029 -0.0708,0.0456 -0.14598,0.0871 -0.41283,0.35074 -0.47328,0.4152 -0.5644,-1.00359 -1.39299,-1.83904 -2.39191,-2.4117 0.0839,-0.0493 0.37406,-0.23333 0.49676,-0.3379 0.0428,-0.0364 0.0708,-0.0611 0.0885,-0.0788 0.009,-0.009 0.015,-0.0147 0.0209,-0.0255 0.003,-0.005 0.007,-0.0131 0.005,-0.0275 -0.002,-0.0143 -0.0173,-0.0271 -0.0263,-0.0299 -0.018,-0.006 -0.024,-0.002 -0.0329,-2.3e-4 -0.009,0.002 -0.0185,0.004 -0.0297,0.007 -0.0223,0.006 -0.05,0.014 -0.0815,0.0211 -0.1693,0.0378 -0.51923,0.2125 -0.58737,0.25033 l -0.0752,0.0418 -0.005,-0.13012 c -0.002,-0.0545 -0.0175,-0.0983 -0.0428,-0.12912 -0.0252,-0.0308 -0.0612,-0.0479 -0.0973,-0.0464 -0.0361,0.002 -0.0703,0.0217 -0.0928,0.0546 -0.001,0.002 -0.003,0.004 -0.004,0.006 -0.008,-0.0339 -0.0217,-0.0621 -0.04,-0.0837 -0.0271,-0.0321 -0.0652,-0.0494 -0.10296,-0.0471 -0.0378,0.002 -0.0735,0.0241 -0.0968,0.0591 -0.004,0.006 -0.007,0.0121 -0.0105,0.0186 -0.006,-0.0475 -0.022,-0.086 -0.0455,-0.11378 -0.0271,-0.0321 -0.0652,-0.0493 -0.10296,-0.0471 -0.0313,0.002 -0.0611,0.0173 -0.0837,0.0425 -0.008,-0.0382 -0.0222,-0.0696 -0.0423,-0.0933 -0.0271,-0.0321 -0.0651,-0.0496 -0.1029,-0.0473 -0.0366,0.002 -0.0712,0.0228 -0.0945,0.0559 -0.0114,-0.13336 -0.0407,-0.40558 -0.0743,-0.54241 -0.0134,-0.0545 -0.0227,-0.0904 -0.0307,-0.11409 -0.004,-0.0119 -0.007,-0.0201 -0.0135,-0.0302 -0.003,-0.005 -0.008,-0.0126 -0.0221,-0.0169 -0.003,-10e-4 -0.007,-10e-4 -0.011,-10e-4 v 2.4e-4 c -0.0113,7e-4 -0.0228,0.006 -0.0278,0.0112 -0.0132,0.0134 -0.0123,0.0204 -0.0148,0.0292 -0.002,0.009 -0.005,0.0187 -0.007,0.0299 -0.005,0.0226 -0.01,0.0509 -0.0177,0.0822 -0.0413,0.16444 -0.0431,0.5379 -0.0402,0.62714 -0.54734,-0.15309 -1.12434,-0.23519 -1.72052,-0.2352 -0.57916,1e-5 -1.14006,0.0777 -1.6734,0.22249 0.0245,-0.0945 0.0992,-0.42906 0.11183,-0.58954 0.004,-0.056 0.007,-0.0932 0.007,-0.11815 0,-0.0125 0,-0.021 -0.003,-0.0328 -0.002,-0.006 -0.004,-0.0146 -0.0158,-0.023 -0.006,-0.004 -0.0137,-0.006 -0.0212,-0.006 z m 1.59513,0.9479 c 0.52626,0 1.03649,0.0683 1.52258,0.19597 l -0.004,0.004 a 0.03512795,0.03509419 0 0 0 -0.002,0.002 c -0.0533,0.0517 -0.31199,0.32839 -0.40879,0.46729 -0.0321,0.0461 -0.0528,0.0768 -0.0653,0.0984 -0.006,0.0108 -0.0108,0.0183 -0.0138,0.0302 -0.001,0.006 -0.004,0.0145 0.002,0.0277 0.006,0.0132 0.0235,0.0218 0.0329,0.0224 0.0188,9.4e-4 0.0237,-0.004 0.0319,-0.008 0.008,-0.004 0.0168,-0.009 0.0268,-0.0147 0.02,-0.0115 0.045,-0.0262 0.0737,-0.041 0.15415,-0.0795 0.44825,-0.33709 0.50456,-0.39094 l 0.0408,-0.0391 0.003,0.0747 c 0.002,0.0545 0.0175,0.0983 0.0427,0.12912 0.0252,0.0308 0.0612,0.0479 0.0973,0.0463 0.0361,-0.002 0.0703,-0.0216 0.0929,-0.0545 0.002,-0.002 0.003,-0.005 0.004,-0.007 0.005,0.052 0.0214,0.0936 0.0465,0.12326 0.0271,0.0321 0.0652,0.0497 0.10295,0.0474 0.0313,-0.002 0.0611,-0.0174 0.0837,-0.0425 0.008,0.0382 0.0222,0.0696 0.0423,0.0933 0.0271,0.0321 0.0651,0.0494 0.10291,0.0471 0.0378,-0.002 0.0735,-0.0239 0.0968,-0.0589 0,-4.7e-4 9.3e-4,-0.001 9.3e-4,-0.002 0.004,0.002 0.009,0.005 0.0136,0.006 0.008,0.0368 0.0219,0.0672 0.0414,0.0903 0.0271,0.0321 0.0651,0.0494 0.10291,0.0471 0.035,-0.002 0.068,-0.0209 0.0913,-0.0514 0.0138,0.14487 0.041,0.37792 0.0706,0.49875 0.0134,0.0545 0.0228,0.0905 0.0307,0.11415 0.004,0.0118 0.007,0.02 0.0135,0.0302 0.003,0.005 0.008,0.0127 0.0221,0.017 0.0139,0.004 0.0322,-0.003 0.0388,-0.0101 0.0132,-0.0134 0.0123,-0.0204 0.0147,-0.0292 0.002,-0.009 0.005,-0.0184 0.007,-0.0297 0.005,-0.0226 0.01,-0.0512 0.0177,-0.0825 0.0353,-0.14071 0.0414,-0.42717 0.0407,-0.56577 0.91069,0.52113 1.67046,1.27524 2.19844,2.18093 h -0.005 a 0.03509412,0.03512802 89.883562 0 0 -0.002,0 0.03509412,0.03512802 89.883562 0 0 0,-2.4e-4 c -0.0743,-0.001 -0.45304,0.0113 -0.61982,0.041 -0.0553,0.01 -0.0917,0.017 -0.11589,0.0234 -0.0121,0.003 -0.0206,0.005 -0.0311,0.0115 -0.005,0.003 -0.0131,0.007 -0.0183,0.021 -0.005,0.0136 10e-4,0.032 0.007,0.0391 0.0126,0.014 0.0197,0.0138 0.0283,0.0168 0.009,0.003 0.0182,0.006 0.0294,0.009 0.0223,0.006 0.0503,0.0133 0.0811,0.0232 0.16522,0.0529 0.55551,0.0789 0.63344,0.0807 l 0.0565,0.001 -0.0507,0.0549 c -0.0371,0.0401 -0.0573,0.0818 -0.0613,0.12142 -0.004,0.0396 0.009,0.0771 0.0358,0.10154 0.0266,0.0244 0.065,0.0345 0.10423,0.0272 0.003,-4.7e-4 0.005,-0.001 0.008,-0.002 -0.0333,0.0402 -0.0512,0.0812 -0.0545,0.11995 -0.004,0.0418 0.0108,0.0812 0.0391,0.10629 0.0235,0.0208 0.0555,0.031 0.0893,0.0292 -0.0217,0.0324 -0.0336,0.0649 -0.0363,0.0958 -0.004,0.0418 0.011,0.0809 0.0393,0.10603 0.0283,0.0251 0.0688,0.0352 0.11009,0.0269 9.3e-4,0 0.001,-4.7e-4 0.002,-4.7e-4 0.001,0.005 0.003,0.01 0.005,0.0142 -0.0207,0.0314 -0.0322,0.0629 -0.0347,0.0931 -0.004,0.0418 0.011,0.0809 0.0393,0.10603 0.0262,0.0232 0.0628,0.0334 0.10085,0.0283 -0.0929,0.1121 -0.23883,0.2959 -0.3035,0.40222 -0.0292,0.048 -0.048,0.08 -0.0592,0.10233 -0.006,0.0112 -0.01,0.0188 -0.0118,0.0308 -10e-4,0.006 -0.003,0.0148 0.004,0.0276 0.007,0.0129 0.0251,0.0204 0.0346,0.0203 0.0189,0 0.0231,-0.006 0.0311,-0.0102 0.008,-0.004 0.0162,-0.01 0.0259,-0.0161 0.0193,-0.0127 0.0433,-0.0292 0.071,-0.0457 0.12462,-0.0744 0.33178,-0.27235 0.42953,-0.3708 0.13486,0.49788 0.20725,1.0214 0.20724,1.56196 1e-5,0.52445 -0.068,1.03299 -0.19516,1.51752 l -0.004,-0.004 a 0.03509405,0.03512809 89.999856 0 0 -0.002,-0.002 0.03509405,0.03512809 89.999856 0 0 0,-2.3e-4 c -0.0518,-0.0532 -0.32891,-0.31147 -0.46799,-0.40808 -0.0461,-0.032 -0.0769,-0.0527 -0.0986,-0.0652 -0.0108,-0.006 -0.0183,-0.0108 -0.0302,-0.0138 -0.006,-0.001 -0.0145,-0.004 -0.0278,0.002 -0.0133,0.006 -0.0218,0.0235 -0.0223,0.0329 -9.4e-4,0.0188 0.004,0.0237 0.008,0.0319 0.004,0.008 0.009,0.0167 0.0147,0.0267 0.0115,0.02 0.0263,0.0449 0.0411,0.0736 0.0797,0.15396 0.3377,0.44759 0.39163,0.50382 l 0.0392,0.0408 -0.0747,0.003 c -0.0546,0.002 -0.0984,0.0175 -0.12924,0.0428 -0.0308,0.0252 -0.0479,0.0612 -0.0463,0.0972 0.002,0.036 0.0218,0.0702 0.0546,0.0927 0.002,0.002 0.005,0.003 0.007,0.004 -0.052,0.005 -0.0937,0.0215 -0.12338,0.0465 -0.0321,0.0271 -0.0497,0.0651 -0.0474,0.10286 0.002,0.0313 0.0174,0.0611 0.0426,0.0836 -0.0383,0.008 -0.0696,0.0222 -0.0934,0.0423 -0.0321,0.0271 -0.0494,0.0651 -0.0471,0.10281 0.002,0.0377 0.0239,0.0735 0.059,0.0967 9.4e-4,4.7e-4 0.001,7e-4 0.002,9.4e-4 -0.002,0.004 -0.005,0.009 -0.006,0.0136 -0.0368,0.008 -0.0672,0.0219 -0.0903,0.0414 -0.0321,0.0271 -0.0494,0.0651 -0.0471,0.10287 0.002,0.0349 0.0209,0.0679 0.0515,0.0911 -0.145,0.0139 -0.37825,0.0412 -0.49919,0.0709 -0.0546,0.0134 -0.0905,0.0228 -0.11425,0.0307 -0.0118,0.004 -0.0201,0.007 -0.0302,0.0136 -0.005,0.004 -0.0126,0.008 -0.0169,0.0221 -0.004,0.0139 0.003,0.0322 0.0101,0.0388 0.0135,0.0132 0.0204,0.0122 0.0292,0.0147 0.009,0.002 0.0184,0.005 0.0297,0.007 0.0226,0.005 0.0512,0.01 0.0825,0.0177 0.14076,0.0352 0.4273,0.0411 0.56615,0.0403 -0.52109,0.91007 -1.27539,1.66948 -2.18151,2.19748 v -0.005 a 0.03512802,0.03509412 0.11643921 0 0 0,-0.002 0.03512802,0.03509412 0.11643921 0 0 0,-2.4e-4 c 10e-4,-0.0742 -0.0116,-0.45263 -0.0414,-0.61923 -0.01,-0.0553 -0.017,-0.0916 -0.0234,-0.11578 -0.003,-0.0121 -0.005,-0.0205 -0.0116,-0.0311 -0.003,-0.005 -0.007,-0.0131 -0.0209,-0.0182 -0.0136,-0.005 -0.0321,0.001 -0.0391,0.007 -0.0141,0.0126 -0.0139,0.0197 -0.0169,0.0283 -0.003,0.009 -0.006,0.0182 -0.009,0.0293 -0.006,0.0223 -0.0132,0.0503 -0.0231,0.081 -0.0528,0.16508 -0.0786,0.55503 -0.0804,0.63288 l -0.001,0.0565 -0.0551,-0.0506 c -0.0402,-0.037 -0.0819,-0.0572 -0.12158,-0.0611 -0.0396,-0.004 -0.0772,0.009 -0.1016,0.0359 -0.0244,0.0266 -0.0344,0.0649 -0.0271,0.10408 0,0.003 10e-4,0.005 0.002,0.008 -0.0403,-0.0333 -0.0814,-0.0511 -0.12012,-0.0544 -0.0419,-0.004 -0.0813,0.0108 -0.10639,0.0391 -0.0208,0.0235 -0.0309,0.0555 -0.0291,0.0892 -0.0324,-0.0217 -0.065,-0.0335 -0.096,-0.0361 -0.0419,-0.004 -0.081,0.011 -0.10613,0.0393 -0.0251,0.0283 -0.0351,0.0688 -0.0268,0.10998 0,7e-4 0,10e-4 0,0.002 -0.005,0.001 -0.01,0.003 -0.0142,0.005 -0.0315,-0.0206 -0.063,-0.032 -0.0931,-0.0346 -0.0419,-0.004 -0.081,0.011 -0.10617,0.0393 -0.0232,0.0262 -0.0334,0.0628 -0.0282,0.10076 -0.11226,-0.0927 -0.29631,-0.2384 -0.40276,-0.30295 -0.048,-0.0291 -0.0801,-0.0479 -0.10249,-0.0591 -0.0112,-0.006 -0.0188,-0.01 -0.0309,-0.0118 -0.006,-0.001 -0.0148,-0.003 -0.0277,0.004 -0.0129,0.007 -0.0204,0.0252 -0.0203,0.0346 0,0.0189 0.006,0.0231 0.0102,0.0311 0.005,0.008 0.01,0.0162 0.0161,0.0258 0.0127,0.0192 0.0292,0.0432 0.0458,0.0709 0.0745,0.12442 0.27268,0.33123 0.37131,0.42884 -0.49949,0.13539 -1.02483,0.2081 -1.56727,0.2081 -0.52452,0 -1.03309,-0.0678 -1.51772,-0.19471 l 0.004,-0.004 a 0.03512795,0.03509419 1.8825663e-4 0 0 0.002,-0.002 c 0.0532,-0.0517 0.31174,-0.32868 0.40842,-0.46765 0.0321,-0.0461 0.0527,-0.0769 0.0652,-0.0985 0.006,-0.0108 0.0108,-0.0182 0.0138,-0.0302 10e-4,-0.006 0.004,-0.0145 -0.002,-0.0277 -0.006,-0.0132 -0.0235,-0.0218 -0.0329,-0.0223 -0.0188,-9.4e-4 -0.0237,0.004 -0.0319,0.008 -0.008,0.004 -0.0168,0.009 -0.0268,0.0147 -0.02,0.0115 -0.0449,0.0263 -0.0736,0.0411 -0.1541,0.0796 -0.44799,0.33742 -0.50426,0.39131 l -0.0408,0.0391 -0.003,-0.0746 c -0.002,-0.0545 -0.0176,-0.0983 -0.0428,-0.12907 -0.0252,-0.0308 -0.0612,-0.0479 -0.0973,-0.0463 -0.0361,0.002 -0.0703,0.0217 -0.0929,0.0546 -0.002,0.002 -0.003,0.005 -0.004,0.007 -0.005,-0.052 -0.0215,-0.0936 -0.0466,-0.12326 -0.0271,-0.0321 -0.0652,-0.0496 -0.10302,-0.0473 -0.0313,0.002 -0.0611,0.0174 -0.0836,0.0426 -0.008,-0.0382 -0.0223,-0.0695 -0.0424,-0.0933 -0.0272,-0.0321 -0.0652,-0.0494 -0.10296,-0.0471 -0.0378,0.002 -0.0735,0.0239 -0.0967,0.059 0,4.7e-4 -9.4e-4,10e-4 -9.4e-4,0.002 -0.004,-0.002 -0.009,-0.005 -0.0136,-0.006 -0.008,-0.0368 -0.0219,-0.0672 -0.0415,-0.0903 -0.0271,-0.0321 -0.0652,-0.0493 -0.10296,-0.047 -0.035,0.002 -0.068,0.0209 -0.0912,0.0514 -0.0139,-0.14485 -0.0413,-0.37784 -0.071,-0.49865 -0.0134,-0.0545 -0.0229,-0.0905 -0.0308,-0.11414 -0.004,-0.0119 -0.007,-0.0201 -0.0135,-0.0302 -0.003,-0.005 -0.008,-0.0127 -0.0221,-0.017 -0.0139,-0.004 -0.0322,0.003 -0.0389,0.0101 -0.0132,0.0134 -0.0123,0.0204 -0.0147,0.0292 -0.002,0.009 -0.005,0.0184 -0.007,0.0297 -0.005,0.0226 -0.01,0.0512 -0.0177,0.0825 -0.0352,0.14071 -0.041,0.42709 -0.0402,0.56572 -0.91107,-0.52038 -1.67137,-1.27384 -2.20004,-2.17905 h 0.005 a 0.03509412,0.03512802 89.883561 0 0 0.002,0 0.03509412,0.03512802 89.883561 0 0 0,2.4e-4 c 0.0743,0.001 0.45308,-0.0117 0.61982,-0.0415 0.0553,-0.01 0.0917,-0.017 0.11589,-0.0234 0.0121,-0.003 0.0206,-0.005 0.0311,-0.0116 0.005,-0.003 0.0131,-0.007 0.0183,-0.021 0.005,-0.0136 -0.001,-0.032 -0.007,-0.0391 -0.0126,-0.014 -0.0197,-0.0138 -0.0283,-0.0168 -0.009,-0.003 -0.0183,-0.006 -0.0294,-0.009 -0.0223,-0.006 -0.0503,-0.0133 -0.0811,-0.0231 -0.16526,-0.0527 -0.55551,-0.0784 -0.63344,-0.0801 l -0.0566,-0.001 0.0507,-0.055 c 0.037,-0.0401 0.0572,-0.0819 0.0612,-0.12148 0.004,-0.0396 -0.009,-0.0771 -0.036,-0.10149 -0.0266,-0.0244 -0.065,-0.0344 -0.10423,-0.0271 -0.003,4.7e-4 -0.005,0.001 -0.008,0.002 0.0333,-0.0403 0.0511,-0.0813 0.0544,-0.12 0.004,-0.0418 -0.0109,-0.0811 -0.0393,-0.10624 -0.0235,-0.0208 -0.0555,-0.0309 -0.0893,-0.0291 0.0217,-0.0324 0.0335,-0.0649 0.0361,-0.0959 0.004,-0.0418 -0.011,-0.0809 -0.0394,-0.10602 -0.0283,-0.0251 -0.0689,-0.0351 -0.11014,-0.0268 -0.001,0 -0.001,4.7e-4 -0.002,4.7e-4 -0.001,-0.005 -0.003,-0.01 -0.005,-0.0142 0.0206,-0.0314 0.0321,-0.0629 0.0346,-0.093 0.004,-0.0418 -0.011,-0.0809 -0.0394,-0.10603 -0.0262,-0.0232 -0.0629,-0.0333 -0.10091,-0.0281 0.0928,-0.11218 0.23859,-0.29612 0.30318,-0.40249 0.0291,-0.048 0.0479,-0.08 0.0591,-0.10238 0.006,-0.0112 0.01,-0.0188 0.0118,-0.0308 0.001,-0.006 0.003,-0.0148 -0.004,-0.0276 -0.007,-0.0129 -0.0252,-0.0204 -0.0346,-0.0204 -0.0189,0 -0.0231,0.006 -0.0311,0.0102 -0.008,0.004 -0.0162,0.01 -0.0259,0.0161 -0.0193,0.0127 -0.0432,0.0292 -0.0709,0.0458 -0.12451,0.0744 -0.33138,0.27244 -0.4291,0.37101 -0.13567,-0.49929 -0.20852,-1.02449 -0.20852,-1.56676 0,-0.52272 0.0675,-1.02958 0.1939,-1.51266 l 0.004,0.004 a 0.03509405,0.03512809 89.999669 0 0 0.002,0.002 0.03509405,0.03512809 89.999669 0 0 0,2.3e-4 c 0.0518,0.0532 0.32916,0.31127 0.46831,0.40776 0.0462,0.032 0.0769,0.0526 0.0986,0.0651 0.0108,0.006 0.0183,0.0108 0.0302,0.0137 0.006,0.001 0.0145,0.004 0.0278,-0.002 0.0132,-0.006 0.0218,-0.0235 0.0223,-0.0329 10e-4,-0.0188 -0.004,-0.0237 -0.008,-0.0319 -0.004,-0.008 -0.009,-0.0168 -0.0147,-0.0267 -0.0115,-0.02 -0.0263,-0.0449 -0.0412,-0.0735 -0.0798,-0.1539 -0.33807,-0.44737 -0.39206,-0.50355 l -0.0391,-0.0408 0.0747,-0.003 c 0.0546,-0.002 0.0984,-0.0176 0.12919,-0.0429 0.0308,-0.0252 0.0478,-0.0613 0.0462,-0.0973 -0.002,-0.036 -0.0218,-0.0702 -0.0547,-0.0927 -0.002,-0.002 -0.005,-0.003 -0.007,-0.004 0.052,-0.005 0.0936,-0.0215 0.12329,-0.0466 0.0321,-0.0271 0.0496,-0.0652 0.0473,-0.10296 -0.002,-0.0313 -0.0175,-0.061 -0.0427,-0.0835 0.0382,-0.008 0.0696,-0.0223 0.0934,-0.0424 0.0321,-0.0271 0.0493,-0.0651 0.047,-0.10286 -0.002,-0.0378 -0.0239,-0.0735 -0.059,-0.0966 0,-4.7e-4 -0.001,-7.1e-4 -0.002,-9.4e-4 0.002,-0.004 0.004,-0.009 0.006,-0.0136 0.0368,-0.008 0.0672,-0.022 0.0903,-0.0415 0.0321,-0.0271 0.0493,-0.0651 0.047,-0.10286 -0.002,-0.0349 -0.021,-0.0679 -0.0516,-0.0911 0.145,-0.014 0.37823,-0.0415 0.49914,-0.0713 0.0546,-0.0134 0.0905,-0.0229 0.11421,-0.0308 0.0118,-0.004 0.02,-0.007 0.0301,-0.0135 0.005,-0.003 0.0127,-0.008 0.017,-0.0221 0.004,-0.0139 -0.003,-0.0322 -0.0101,-0.0388 -0.0135,-0.0132 -0.0204,-0.0122 -0.0292,-0.0147 -0.009,-0.002 -0.0184,-0.005 -0.0297,-0.007 -0.0226,-0.005 -0.0512,-0.01 -0.0826,-0.0175 -0.14087,-0.0351 -0.42762,-0.0408 -0.56636,-0.0399 0.52036,-0.91064 1.27407,-1.67074 2.17985,-2.19946 v 0.005 a 0.03512802,0.03509412 0.11643847 0 0 0,0.002 0.03512802,0.03509412 0.11643847 0 0 0,2.3e-4 c -9.3e-4,0.0742 0.012,0.45261 0.042,0.61918 0.01,0.0553 0.017,0.0916 0.0235,0.11578 0.003,0.0121 0.005,0.0205 0.0116,0.0311 0.003,0.005 0.007,0.013 0.021,0.0182 0.0136,0.005 0.0321,-0.001 0.0391,-0.007 0.0141,-0.0126 0.0138,-0.0197 0.0168,-0.0283 0.003,-0.009 0.006,-0.0183 0.009,-0.0294 0.006,-0.0223 0.0132,-0.0503 0.023,-0.081 0.0527,-0.16512 0.0782,-0.55508 0.0799,-0.63293 l 10e-4,-0.0565 0.0551,0.0506 c 0.0402,0.037 0.082,0.0571 0.12159,0.061 0.0397,0.004 0.0772,-0.009 0.1016,-0.0359 0.0244,-0.0266 0.0344,-0.065 0.0271,-0.10413 0,-0.003 -0.001,-0.005 -0.002,-0.008 0.0403,0.0332 0.0814,0.051 0.12017,0.0542 0.0419,0.004 0.0812,-0.011 0.10634,-0.0393 0.0208,-0.0235 0.0309,-0.0555 0.029,-0.0892 0.0324,0.0216 0.065,0.0335 0.096,0.0361 0.0419,0.003 0.081,-0.0111 0.10607,-0.0394 0.0251,-0.0283 0.0351,-0.0688 0.0268,-0.11003 0,-7e-4 0,-0.001 -9.4e-4,-0.002 0.005,-10e-4 0.009,-0.003 0.0142,-0.005 0.0315,0.0206 0.063,0.032 0.0931,0.0345 0.0419,0.004 0.081,-0.0111 0.10613,-0.0394 0.0232,-0.0262 0.0333,-0.0628 0.0281,-0.10081 0.11235,0.0926 0.29653,0.23817 0.40303,0.30263 0.0481,0.0291 0.0802,0.0478 0.10254,0.059 0.0112,0.006 0.0188,0.01 0.0309,0.0118 0.006,0.001 0.0148,0.003 0.0276,-0.004 0.0129,-0.007 0.0204,-0.0251 0.0204,-0.0345 0,-0.0189 -0.006,-0.0231 -0.0103,-0.031 -0.004,-0.008 -0.01,-0.0162 -0.0161,-0.0258 -0.0127,-0.0192 -0.0292,-0.0431 -0.0459,-0.0708 -0.0746,-0.12443 -0.27319,-0.33122 -0.37184,-0.42869 0.50082,-0.13617 1.02768,-0.20926 1.57176,-0.20925 z" />
    </g>
  </g>
</svg>
