<?xml version="1.0" encoding="UTF-8" standalone="no"?>
<svg
   xmlns:dc="http://purl.org/dc/elements/1.1/"
   xmlns:cc="http://creativecommons.org/ns#"
   xmlns:rdf="http://www.w3.org/1999/02/22-rdf-syntax-ns#"
   xmlns:svg="http://www.w3.org/2000/svg"
   xmlns="http://www.w3.org/2000/svg"
   xmlns:sodipodi="http://sodipodi.sourceforge.net/DTD/sodipodi-0.dtd"
   xmlns:inkscape="http://www.inkscape.org/namespaces/inkscape"
   width="175.1257mm"
   height="33.955528mm"
   viewBox="0 0 175.1257 33.955528"
   version="1.1"
   id="svg8"
   inkscape:version="1.0.1 (3bc2e813f5, 2020-09-07)"
   sodipodi:docname="Main Logo White.svg">
  <defs
     id="defs2" />
  <sodipodi:namedview
     id="base"
     pagecolor="#ffffff"
     bordercolor="#666666"
     borderopacity="1.0"
     inkscape:pageopacity="0.0"
     inkscape:pageshadow="2"
     inkscape:zoom="1.979899"
     inkscape:cx="372.4163"
     inkscape:cy="-17.69029"
     inkscape:document-units="px"
     inkscape:current-layer="layer1"
     showgrid="false"
     inkscape:window-width="1920"
     inkscape:window-height="1057"
     inkscape:window-x="-8"
     inkscape:window-y="-8"
     inkscape:window-maximized="1"
     inkscape:document-rotation="0" />
  <metadata
     id="metadata5">
    <rdf:RDF>
      <cc:Work
         rdf:about="">
        <dc:format>image/svg+xml</dc:format>
        <dc:type
           rdf:resource="http://purl.org/dc/dcmitype/StillImage" />
        <dc:title></dc:title>
      </cc:Work>
    </rdf:RDF>
  </metadata>
  <g
     inkscape:label="Layer 1"
     inkscape:groupmode="layer"
     id="layer1"
     transform="translate(-225.38952,-238.02222)">
    <path
       id="path855"
       style="color:#000000;font-style:normal;font-variant:normal;font-weight:normal;font-stretch:normal;font-size:medium;line-height:1.25;font-family:FreeSans;-inkscape-font-specification:'FreeSans Bold';font-variant-ligatures:normal;font-variant-position:normal;font-variant-caps:normal;font-variant-numeric:normal;font-variant-alternates:normal;font-variant-east-asian:normal;font-feature-settings:normal;font-variation-settings:normal;text-indent:0;text-align:start;text-decoration:none;text-decoration-line:none;text-decoration-style:solid;text-decoration-color:#000000;letter-spacing:0px;word-spacing:0px;text-transform:none;writing-mode:lr-tb;direction:ltr;text-orientation:mixed;dominant-baseline:auto;baseline-shift:baseline;text-anchor:start;white-space:normal;shape-padding:0;shape-margin:0;inline-size:0;clip-rule:nonzero;display:inline;overflow:visible;visibility:visible;isolation:auto;mix-blend-mode:normal;color-interpolation:sRGB;color-interpolation-filters:linearRGB;solid-color:#000000;solid-opacity:1;vector-effect:none;fill:#ffffff;fill-opacity:1;fill-rule:nonzero;stroke:none;stroke-width:0.264583;stroke-linecap:butt;stroke-linejoin:miter;stroke-miterlimit:4;stroke-dasharray:none;stroke-dashoffset:0;stroke-opacity:1;color-rendering:auto;image-rendering:auto;shape-rendering:auto;text-rendering:auto;enable-background:accumulate;stop-color:#000000"
       d="m 323.03315,238.89064 c -4.41287,0 -8.13389,1.63155 -10.7456,4.45915 -2.61172,2.8276 -4.11138,6.84693 -4.11138,11.60963 0,9.27701 6.06686,16.06827 14.35727,16.06827 4.01561,0 6.78035,-1.45184 9.09763,-4.71496 l 0.72089,3.83801 h 3.99614 v -16.7013 h -12.44575 v 5.47873 h 6.89467 c -0.30783,2.73907 -1.77626,4.35653 -3.38688,5.2927 -1.64163,0.9542 -3.42453,1.20096 -4.1677,1.20096 -2.48527,0 -4.613,-1.08287 -6.12883,-2.94297 -1.51583,-1.86011 -2.41639,-4.50044 -2.41639,-7.60367 0,-3.25319 0.79786,-5.84981 2.23863,-7.62899 1.44078,-1.77917 3.52464,-2.75177 6.14071,-2.75177 4.29197,0 6.26874,2.24115 7.13238,4.79092 l 0.0294,0.0899 h 0.0956 6.03167 l -0.0181,-0.14832 c -0.37926,-3.16063 -1.85867,-5.75127 -4.16976,-7.54527 -2.31109,-1.79399 -5.44973,-2.79103 -9.14466,-2.79104 z m 31.62132,0 c -4.41286,0 -8.13232,1.63155 -10.74404,4.45915 -2.61171,2.8276 -4.11345,6.84693 -4.11345,11.60963 0,9.27701 6.06687,16.06827 14.35727,16.06827 4.01658,0 6.78208,-1.45222 9.0997,-4.71702 l 0.71882,3.84007 h 3.99821 v -16.7013 h -12.44731 v 5.47873 h 6.89467 c -0.30782,2.73907 -1.77625,4.35653 -3.38687,5.2927 -1.64164,0.9542 -3.42505,1.20096 -4.16822,1.20096 -2.48527,0 -4.613,-1.08287 -6.12883,-2.94297 -1.51583,-1.86011 -2.41587,-4.50044 -2.41587,-7.60367 0,-3.25319 0.7994,-5.84981 2.24017,-7.62899 1.44077,-1.77917 3.52258,-2.75177 6.13865,-2.75177 4.29197,0 6.26927,2.24115 7.13289,4.79092 l 0.031,0.0899 h 0.094 6.03116 l -0.0176,-0.14832 c -0.37928,-3.16063 -1.85868,-5.75127 -4.16977,-7.54527 -2.31108,-1.79399 -5.44972,-2.79103 -9.14467,-2.79104 z m -117.02541,0.58394 -10.90011,30.67616 h 6.66574 l 2.04484,-6.13296 h 11.19725 l 2.00194,6.13296 h 6.70709 l -10.60556,-30.67616 z m 136.0842,0 v 30.67616 h 0.13281 11.88868 c 4.64993,0 7.62358,-1.09929 9.69501,-3.59203 2.44565,-2.8673 3.74603,-7.0295 3.74603,-11.76775 0,-4.69677 -1.29919,-8.85674 -3.74396,-11.76518 -2.07142,-2.49416 -5.00504,-3.5512 -9.69708,-3.5512 z m 6.52105,5.47873 h 5.50044 c 2.32621,0 4.03602,0.8026 5.18521,2.4319 1.14919,1.6293 1.73271,4.10624 1.73271,7.44915 0,3.32196 -0.58356,5.78575 -1.73271,7.40989 -1.14916,1.62414 -2.859,2.42775 -5.18521,2.42776 h -5.50044 z m -110.80616,2.02934 c -2.57725,0 -4.81601,1.64879 -6.12727,4.42557 v -4.04885 h -6.10351 v 0.13126 22.66011 h 6.10351 v -12.10572 c 0,-1.68836 0.42034,-2.92975 1.24437,-3.75377 0.82402,-0.82403 2.06747,-1.24437 3.75584,-1.24437 0.61988,0 1.02432,0.0396 1.81436,0.16433 l 0.15244,0.0253 v -6.19549 l -0.11523,-0.0155 c -0.34047,-0.0425 -0.55764,-0.0429 -0.72451,-0.0429 z m 12.93151,0 c -3.38728,0 -6.09079,1.12146 -7.9375,3.21686 -1.8467,2.0954 -2.83238,5.15287 -2.83238,9.0134 0,3.73589 0.97576,6.71304 2.80706,8.75605 1.8313,2.04301 4.51253,3.14038 7.87859,3.14038 5.51951,0 9.38789,-3.44121 9.93583,-8.87853 l 0.0134,-0.14676 h -5.83789 l -0.0253,0.0997 c -0.37235,1.44806 -0.84551,2.43598 -1.48621,3.05666 -0.64071,0.62069 -1.45263,0.89038 -2.55695,0.89038 -1.44122,0 -2.58053,-0.63976 -3.37861,-1.82418 -0.79808,-1.18442 -1.24592,-2.92163 -1.24592,-5.09374 0,-1.5544 0.17894,-3.3846 0.8475,-4.80849 0.66857,-1.4239 1.8001,-2.44326 3.77703,-2.44326 1.16805,0 1.99864,0.2723 2.63291,0.89658 0.63427,0.62428 1.07716,1.62082 1.40818,3.08973 l 0.0238,0.10336 h 5.83944 l -0.0114,-0.14263 c -0.21062,-2.78051 -1.24621,-5.01755 -2.94761,-6.55464 -1.7014,-1.5371 -4.06224,-2.37091 -6.90397,-2.37091 z m -41.30083,0.21652 3.77909,11.33988 h -7.55819 z m 53.39053,8.42016 v 5.89628 h 11.61325 v -5.89628 h -0.13281 z" />
  </g>
</svg>
