<?xml version="1.0" encoding="UTF-8" standalone="no"?>
<svg
   xmlns:dc="http://purl.org/dc/elements/1.1/"
   xmlns:cc="http://creativecommons.org/ns#"
   xmlns:rdf="http://www.w3.org/1999/02/22-rdf-syntax-ns#"
   xmlns:svg="http://www.w3.org/2000/svg"
   xmlns="http://www.w3.org/2000/svg"
   xmlns:sodipodi="http://sodipodi.sourceforge.net/DTD/sodipodi-0.dtd"
   xmlns:inkscape="http://www.inkscape.org/namespaces/inkscape"
   width="509.8602mm"
   height="294.24167mm"
   viewBox="0 0 509.8602 294.24167"
   version="1.1"
   id="svg8"
   inkscape:version="1.0.1 (3bc2e813f5, 2020-09-07)"
   sodipodi:docname="MotifsBlue.svg">
  <defs
     id="defs2" />
  <sodipodi:namedview
     id="base"
     pagecolor="#ffffff"
     bordercolor="#666666"
     borderopacity="1.0"
     inkscape:pageopacity="0.0"
     inkscape:pageshadow="2"
     inkscape:zoom="0.24748737"
     inkscape:cx="1038.0703"
     inkscape:cy="988.0883"
     inkscape:document-units="px"
     inkscape:current-layer="layer1"
     showgrid="false"
     inkscape:window-width="1920"
     inkscape:window-height="1057"
     inkscape:window-x="1912"
     inkscape:window-y="-8"
     inkscape:window-maximized="1"
     inkscape:document-rotation="0" />
  <metadata
     id="metadata5">
    <rdf:RDF>
      <cc:Work
         rdf:about="">
        <dc:format>image/svg+xml</dc:format>
        <dc:type
           rdf:resource="http://purl.org/dc/dcmitype/StillImage" />
        <dc:title></dc:title>
      </cc:Work>
    </rdf:RDF>
  </metadata>
  <g
     inkscape:label="Layer 1"
     inkscape:groupmode="layer"
     id="layer1"
     transform="translate(337.21979,-33.985856)">
    <g
       aria-label="DE"
       transform="matrix(0.62643372,0,0,1.2850559,-302.12566,79.557923)"
       id="g2297"
       style="font-style:normal;font-variant:normal;font-weight:bold;font-stretch:normal;font-size:10.9257px;line-height:1.25;font-family:'VCR OSD Mono';-inkscape-font-specification:'VCR OSD Mono Bold';text-decoration:none;text-decoration-line:none;text-decoration-color:#000000;letter-spacing:0px;word-spacing:0px;fill:#0000ff;stroke:none;stroke-width:0.573426;stop-color:#000000">
      <g
         id="g6365">
        <path
           style="color:#000000;font-style:normal;font-variant:normal;font-weight:normal;font-stretch:normal;font-size:medium;line-height:normal;font-family:sans-serif;font-variant-ligatures:normal;font-variant-position:normal;font-variant-caps:normal;font-variant-numeric:normal;font-variant-alternates:normal;font-variant-east-asian:normal;font-feature-settings:normal;font-variation-settings:normal;text-indent:0;text-align:start;text-decoration:none;text-decoration-line:none;text-decoration-style:solid;text-decoration-color:#000000;letter-spacing:normal;word-spacing:normal;text-transform:none;writing-mode:lr-tb;direction:ltr;text-orientation:mixed;dominant-baseline:auto;baseline-shift:baseline;text-anchor:start;white-space:normal;shape-padding:0;shape-margin:0;inline-size:0;clip-rule:nonzero;display:inline;overflow:visible;visibility:visible;isolation:auto;mix-blend-mode:normal;color-interpolation:sRGB;color-interpolation-filters:linearRGB;solid-color:#000000;solid-opacity:1;vector-effect:none;fill:#0000ff;fill-opacity:1;fill-rule:evenodd;stroke:none;stroke-width:0.903725;stroke-linecap:round;stroke-linejoin:round;stroke-miterlimit:4;stroke-dasharray:none;stroke-dashoffset:0;stroke-opacity:1;color-rendering:auto;image-rendering:auto;shape-rendering:auto;text-rendering:auto;enable-background:accumulate;stop-color:#000000"
           d="m 316.81552,198.55772 v 1.02536 h 70.1008 v -1.02536 z"
           id="path1954"
           transform="matrix(1.5963381,0,0,0.77817626,44.049113,-25.331675)" />
        <path
           d="m 285.34565,95.818241 h 0.80476 c 0.57668,0 0.94678,-0.408837 0.94678,-1.045762 0,-0.628318 -0.35719,-0.972602 -1.01133,-0.972602 h -1.38574 v 3.137287 h 0.64553 z m 0,-0.537943 V 94.33782 h 0.6025 c 0.34428,0 0.50351,0.150624 0.50351,0.473391 0,0.318462 -0.15923,0.469087 -0.50351,0.469087 z"
           style="font-style:normal;font-variant:normal;font-weight:bold;font-stretch:normal;font-size:4.30355px;line-height:1.25;font-family:FreeSans;-inkscape-font-specification:'FreeSans Bold';text-align:start;text-decoration:none;text-decoration-line:none;text-decoration-color:#000000;letter-spacing:0px;word-spacing:0px;text-anchor:start;white-space:pre;inline-size:172.917;fill:#0000ff;fill-opacity:1;stroke-width:0.0408855;stop-color:#000000"
           id="path1717"
           transform="matrix(4.4536947,0,0,8.9422584,-1014.3313,-675.93723)" />
        <path
           d="m 289.36516,96.399221 c 0,0.292641 0.0172,0.387319 0.099,0.537943 h 0.69287 v -0.116196 c -0.099,-0.05595 -0.13772,-0.120499 -0.13772,-0.258213 -0.0172,-0.925263 -0.0344,-0.968298 -0.43466,-1.14044 0.3529,-0.137714 0.52934,-0.391623 0.52934,-0.774639 0,-0.348588 -0.16784,-0.847799 -0.84349,-0.847799 h -1.68269 v 3.137287 h 0.64553 v -1.243726 h 0.74021 c 0.27973,0 0.40023,0.111893 0.40023,0.374409 0,0.13341 -0.009,0.09898 -0.009,0.331374 z m 0.10329,-1.661171 c 0,0.365802 -0.18936,0.417445 -0.45618,0.417445 h -0.77894 V 94.33782 h 0.77894 c 0.27113,0 0.45618,0.05164 0.45618,0.40023 z"
           style="font-style:normal;font-variant:normal;font-weight:bold;font-stretch:normal;font-size:4.30355px;line-height:1.25;font-family:FreeSans;-inkscape-font-specification:'FreeSans Bold';text-align:start;text-decoration:none;text-decoration-line:none;text-decoration-color:#000000;letter-spacing:0px;word-spacing:0px;text-anchor:start;white-space:pre;inline-size:172.917;fill:#0000ff;fill-opacity:1;stroke-width:0.0408855;stop-color:#000000"
           id="path1719"
           transform="matrix(4.4536947,0,0,8.9422584,-1014.3313,-675.93723)" />
        <path
           d="m 291.16404,95.58585 h 1.50193 v -0.537944 h -1.50193 V 94.33782 h 1.62243 v -0.537943 h -2.26797 v 3.137287 h 2.34544 v -0.537943 h -1.6999 z"
           style="font-style:normal;font-variant:normal;font-weight:bold;font-stretch:normal;font-size:4.30355px;line-height:1.25;font-family:FreeSans;-inkscape-font-specification:'FreeSans Bold';text-align:start;text-decoration:none;text-decoration-line:none;text-decoration-color:#000000;letter-spacing:0px;word-spacing:0px;text-anchor:start;white-space:pre;inline-size:172.917;fill:#0000ff;fill-opacity:1;stroke-width:0.0408855;stop-color:#000000"
           id="path1721"
           transform="matrix(4.4536947,0,0,8.9422584,-1014.3313,-675.93723)" />
        <path
           d="M 293.83654,93.799877 H 293.191 v 3.137287 h 0.64554 z"
           style="font-style:normal;font-variant:normal;font-weight:bold;font-stretch:normal;font-size:4.30355px;line-height:1.25;font-family:FreeSans;-inkscape-font-specification:'FreeSans Bold';text-align:start;text-decoration:none;text-decoration-line:none;text-decoration-color:#000000;letter-spacing:0px;word-spacing:0px;text-anchor:start;white-space:pre;inline-size:172.917;fill:#0000ff;fill-opacity:1;stroke-width:0.0408855;stop-color:#000000"
           id="path1723"
           transform="matrix(4.4536947,0,0,8.9422584,-1014.3313,-675.93723)" />
        <path
           d="m 296.57789,94.755265 c 0,-0.856407 -0.74451,-1.007031 -1.23082,-1.007031 -0.75312,0 -1.18777,0.352891 -1.18777,0.963995 0,0.486301 0.2453,0.722996 0.88222,0.843496 l 0.43896,0.08607 c 0.43036,0.08177 0.58959,0.202267 0.58959,0.456176 0,0.262517 -0.241,0.421748 -0.63262,0.421748 -0.43896,0 -0.68427,-0.185053 -0.70578,-0.52073 h -0.62832 c 0.0387,0.671354 0.49921,1.037156 1.29967,1.037156 0.80907,0 1.28676,-0.378712 1.28676,-1.015638 0,-0.494908 -0.2496,-0.753121 -0.83058,-0.865013 l -0.49061,-0.09468 c -0.46048,-0.09037 -0.59389,-0.180749 -0.59389,-0.408838 0,-0.236695 0.21088,-0.387319 0.54225,-0.387319 0.40884,0 0.63693,0.172142 0.65844,0.490605 z"
           style="font-style:normal;font-variant:normal;font-weight:bold;font-stretch:normal;font-size:4.30355px;line-height:1.25;font-family:FreeSans;-inkscape-font-specification:'FreeSans Bold';text-align:start;text-decoration:none;text-decoration-line:none;text-decoration-color:#000000;letter-spacing:0px;word-spacing:0px;text-anchor:start;white-space:pre;inline-size:172.917;fill:#0000ff;fill-opacity:1;stroke-width:0.0408855;stop-color:#000000"
           id="path1725"
           transform="matrix(4.4536947,0,0,8.9422584,-1014.3313,-675.93723)" />
        <path
           d="m 299.76251,96.937164 0.86932,-3.137287 h -0.68427 l -0.46908,2.354041 -0.50782,-2.354041 h -0.63693 l -0.4863,2.349738 -0.4863,-2.349738 h -0.68426 l 0.88653,3.137287 h 0.58098 l 0.51212,-2.44872 0.52503,2.44872 z"
           style="font-style:normal;font-variant:normal;font-weight:bold;font-stretch:normal;font-size:4.30355px;line-height:1.25;font-family:FreeSans;-inkscape-font-specification:'FreeSans Bold';text-align:start;text-decoration:none;text-decoration-line:none;text-decoration-color:#000000;letter-spacing:0px;word-spacing:0px;text-anchor:start;white-space:pre;inline-size:172.917;fill:#0000ff;fill-opacity:1;stroke-width:0.0408855;stop-color:#000000"
           id="path1727"
           transform="matrix(4.4536947,0,0,8.9422584,-1014.3313,-675.93723)" />
        <path
           d="m 301.43228,95.58585 h 1.50194 v -0.537944 h -1.50194 V 94.33782 h 1.62244 v -0.537943 h -2.26797 v 3.137287 h 2.34543 v -0.537943 h -1.6999 z"
           style="font-style:normal;font-variant:normal;font-weight:bold;font-stretch:normal;font-size:4.30355px;line-height:1.25;font-family:FreeSans;-inkscape-font-specification:'FreeSans Bold';text-align:start;text-decoration:none;text-decoration-line:none;text-decoration-color:#000000;letter-spacing:0px;word-spacing:0px;text-anchor:start;white-space:pre;inline-size:172.917;fill:#0000ff;fill-opacity:1;stroke-width:0.0408855;stop-color:#000000"
           id="path1729"
           transform="matrix(4.4536947,0,0,8.9422584,-1014.3313,-675.93723)" />
        <path
           d="m 305.43888,96.399221 c 0,0.292641 0.0172,0.387319 0.099,0.537943 h 0.69287 v -0.116196 c -0.099,-0.05595 -0.13772,-0.120499 -0.13772,-0.258213 -0.0172,-0.925263 -0.0344,-0.968298 -0.43465,-1.14044 0.35289,-0.137714 0.52933,-0.391623 0.52933,-0.774639 0,-0.348588 -0.16784,-0.847799 -0.84349,-0.847799 h -1.68269 v 3.137287 h 0.64553 v -1.243726 h 0.74021 c 0.27973,0 0.40023,0.111893 0.40023,0.374409 0,0.13341 -0.009,0.09898 -0.009,0.331374 z m 0.10329,-1.661171 c 0,0.365802 -0.18936,0.417445 -0.45618,0.417445 h -0.77894 V 94.33782 h 0.77894 c 0.27113,0 0.45618,0.05164 0.45618,0.40023 z"
           style="font-style:normal;font-variant:normal;font-weight:bold;font-stretch:normal;font-size:4.30355px;line-height:1.25;font-family:FreeSans;-inkscape-font-specification:'FreeSans Bold';text-align:start;text-decoration:none;text-decoration-line:none;text-decoration-color:#000000;letter-spacing:0px;word-spacing:0px;text-anchor:start;white-space:pre;inline-size:172.917;fill:#0000ff;fill-opacity:1;stroke-width:0.0408855;stop-color:#000000"
           id="path1731"
           transform="matrix(4.4536947,0,0,8.9422584,-1014.3313,-675.93723)" />
        <path
           d="m 307.99518,94.33782 h 0.91666 v -0.537943 h -2.51327 v 0.537943 h 0.95108 v 2.599344 h 0.64553 z"
           style="font-style:normal;font-variant:normal;font-weight:bold;font-stretch:normal;font-size:4.30355px;line-height:1.25;font-family:FreeSans;-inkscape-font-specification:'FreeSans Bold';text-align:start;text-decoration:none;text-decoration-line:none;text-decoration-color:#000000;letter-spacing:0px;word-spacing:0px;text-anchor:start;white-space:pre;inline-size:172.917;fill:#0000ff;fill-opacity:1;stroke-width:0.0408855;stop-color:#000000"
           id="path1733"
           transform="matrix(4.4536947,0,0,8.9422584,-1014.3313,-675.93723)" />
        <path
           d="m 285.33704,95.58585 h 1.37283 v -0.537944 h -1.37283 V 94.33782 h 1.55789 v -0.537943 h -2.20342 v 3.137287 h 0.64553 z"
           style="font-style:normal;font-variant:normal;font-weight:bold;font-stretch:normal;font-size:4.30355px;line-height:1.25;font-family:FreeSans;-inkscape-font-specification:'FreeSans Bold';text-align:start;text-decoration:none;text-decoration-line:none;text-decoration-color:#000000;letter-spacing:0px;word-spacing:0px;text-anchor:start;white-space:pre;inline-size:172.917;fill:#0000ff;fill-opacity:1;stroke-width:0.0364553;stop-color:#000000"
           id="path1737"
           transform="matrix(4.3792922,0,0,7.901173,-662.30312,-776.5921)" />
        <path
           d="m 287.77714,93.799877 h -0.64553 v 3.137287 h 2.14747 v -0.537943 h -1.50194 z"
           style="font-style:normal;font-variant:normal;font-weight:bold;font-stretch:normal;font-size:4.30355px;line-height:1.25;font-family:FreeSans;-inkscape-font-specification:'FreeSans Bold';text-align:start;text-decoration:none;text-decoration-line:none;text-decoration-color:#000000;letter-spacing:0px;word-spacing:0px;text-anchor:start;white-space:pre;inline-size:172.917;fill:#0000ff;fill-opacity:1;stroke-width:0.0364553;stop-color:#000000"
           id="path1739"
           transform="matrix(4.3792922,0,0,7.901173,-662.30312,-776.5921)" />
        <path
           d="m 290.18712,95.58585 h 1.50194 v -0.537944 h -1.50194 V 94.33782 h 1.62244 v -0.537943 h -2.26798 v 3.137287 h 2.34544 v -0.537943 h -1.6999 z"
           style="font-style:normal;font-variant:normal;font-weight:bold;font-stretch:normal;font-size:4.30355px;line-height:1.25;font-family:FreeSans;-inkscape-font-specification:'FreeSans Bold';text-align:start;text-decoration:none;text-decoration-line:none;text-decoration-color:#000000;letter-spacing:0px;word-spacing:0px;text-anchor:start;white-space:pre;inline-size:172.917;fill:#0000ff;fill-opacity:1;stroke-width:0.0364553;stop-color:#000000"
           id="path1741"
           transform="matrix(4.3792922,0,0,7.901173,-662.30312,-776.5921)" />
        <path
           d="m 293.74615,95.336244 0.9683,-1.536367 h -0.74882 l -0.57668,1.032851 -0.55085,-1.032851 h -0.76603 l 0.95539,1.557885 -0.98982,1.579402 h 0.74882 l 0.59819,-1.088798 0.6025,1.088798 h 0.76603 z"
           style="font-style:normal;font-variant:normal;font-weight:bold;font-stretch:normal;font-size:4.30355px;line-height:1.25;font-family:FreeSans;-inkscape-font-specification:'FreeSans Bold';text-align:start;text-decoration:none;text-decoration-line:none;text-decoration-color:#000000;letter-spacing:0px;word-spacing:0px;text-anchor:start;white-space:pre;inline-size:172.917;fill:#0000ff;fill-opacity:1;stroke-width:0.0364553;stop-color:#000000"
           id="path1743"
           transform="matrix(4.3792922,0,0,7.901173,-662.30312,-776.5921)" />
        <path
           d="m 295.55794,93.799877 h -0.64553 v 3.137287 h 0.64553 z"
           style="font-style:normal;font-variant:normal;font-weight:bold;font-stretch:normal;font-size:4.30355px;line-height:1.25;font-family:FreeSans;-inkscape-font-specification:'FreeSans Bold';text-align:start;text-decoration:none;text-decoration-line:none;text-decoration-color:#000000;letter-spacing:0px;word-spacing:0px;text-anchor:start;white-space:pre;inline-size:172.917;fill:#0000ff;fill-opacity:1;stroke-width:0.0364553;stop-color:#000000"
           id="path1745"
           transform="matrix(4.3792922,0,0,7.901173,-662.30312,-776.5921)" />
        <path
           d="m 298.70383,96.033419 c 0,-0.309856 -0.16784,-0.555158 -0.52073,-0.761728 0.30986,-0.197964 0.43036,-0.378713 0.43036,-0.645533 0,-0.288338 -0.19797,-0.826281 -1.02425,-0.826281 h -1.39865 v 3.137287 h 1.41156 c 0.88223,0 1.10171,-0.529336 1.10171,-0.903745 z m -1.86774,-1.695599 h 0.70148 c 0.29695,0 0.45618,0.124803 0.45618,0.357195 0,0.228088 -0.15923,0.352891 -0.45618,0.352891 h -0.70148 z m 0,1.24803 h 0.77034 c 0.31416,0 0.47769,0.142017 0.47769,0.408837 0,0.262516 -0.16353,0.404534 -0.47769,0.404534 h -0.77034 z"
           style="font-style:normal;font-variant:normal;font-weight:bold;font-stretch:normal;font-size:4.30355px;line-height:1.25;font-family:FreeSans;-inkscape-font-specification:'FreeSans Bold';text-align:start;text-decoration:none;text-decoration-line:none;text-decoration-color:#000000;letter-spacing:0px;word-spacing:0px;text-anchor:start;white-space:pre;inline-size:172.917;fill:#0000ff;fill-opacity:1;stroke-width:0.0364553;stop-color:#000000"
           id="path1747"
           transform="matrix(4.3792922,0,0,7.901173,-662.30312,-776.5921)" />
        <path
           d="m 299.71515,95.58585 h 1.50194 v -0.537944 h -1.50194 V 94.33782 h 1.62244 v -0.537943 h -2.26797 v 3.137287 h 2.34544 v -0.537943 h -1.69991 z"
           style="font-style:normal;font-variant:normal;font-weight:bold;font-stretch:normal;font-size:4.30355px;line-height:1.25;font-family:FreeSans;-inkscape-font-specification:'FreeSans Bold';text-align:start;text-decoration:none;text-decoration-line:none;text-decoration-color:#000000;letter-spacing:0px;word-spacing:0px;text-anchor:start;white-space:pre;inline-size:172.917;fill:#0000ff;fill-opacity:1;stroke-width:0.0364553;stop-color:#000000"
           id="path1749"
           transform="matrix(4.3792922,0,0,7.901173,-662.30312,-776.5921)" />
        <path
           d="m 302.39626,93.799877 h -0.64553 v 3.137287 h 2.14747 v -0.537943 h -1.50194 z"
           style="font-style:normal;font-variant:normal;font-weight:bold;font-stretch:normal;font-size:4.30355px;line-height:1.25;font-family:FreeSans;-inkscape-font-specification:'FreeSans Bold';text-align:start;text-decoration:none;text-decoration-line:none;text-decoration-color:#000000;letter-spacing:0px;word-spacing:0px;text-anchor:start;white-space:pre;inline-size:172.917;fill:#0000ff;fill-opacity:1;stroke-width:0.0364553;stop-color:#000000"
           id="path1751"
           transform="matrix(4.3792922,0,0,7.901173,-662.30312,-776.5921)" />
        <path
           d="m 286.02991,94.33782 h 0.91666 v -0.537943 h -2.51327 v 0.537943 h 0.95108 v 2.599344 h 0.64553 z"
           style="font-style:normal;font-variant:normal;font-weight:bold;font-stretch:normal;font-size:4.30355px;line-height:1.25;font-family:FreeSans;-inkscape-font-specification:'FreeSans Bold';text-align:start;text-decoration:none;text-decoration-line:none;text-decoration-color:#000000;letter-spacing:0px;word-spacing:0px;text-anchor:start;white-space:pre;inline-size:172.917;fill:#0000ff;fill-opacity:1;stroke-width:0.171314;stop-color:#000000"
           id="path1755"
           transform="matrix(1.4562975,0,0,1.4949479,248.49919,-175.68903)" />
        <path
           d="m 287.80297,94.492748 0.56376,2.444416 h 0.64553 l 0.55516,-2.444416 v 2.444416 h 0.64553 v -3.137287 h -0.9726 l -0.55085,2.496058 -0.56807,-2.496058 h -0.964 v 3.137287 h 0.64554 z"
           style="font-style:normal;font-variant:normal;font-weight:bold;font-stretch:normal;font-size:4.30355px;line-height:1.25;font-family:FreeSans;-inkscape-font-specification:'FreeSans Bold';text-align:start;text-decoration:none;text-decoration-line:none;text-decoration-color:#000000;letter-spacing:0px;word-spacing:0px;text-anchor:start;white-space:pre;inline-size:172.917;fill:#0000ff;fill-opacity:1;stroke-width:0.171314;stop-color:#000000"
           id="path1757"
           transform="matrix(1.4562975,0,0,1.4949479,248.49919,-175.68903)" />
        <path
           d="m 40.284545,28.853743 v 5.334814 h 2.133926 v 0.0053 h 0.533482 v -0.538816 h 0.533481 v -4.267852 h -0.533481 v -0.533481 z m -1.066962,6.396442 v -7.46874 h 4.262516 v 0.533481 h 0.538817 v 0.533482 h 0.533481 v 5.334814 h -0.533481 v 0.533482 h -0.533482 v 0.538816 h -1.066963 v -0.0053 z"
           style="font-style:normal;font-variant:normal;font-weight:bold;font-stretch:normal;font-size:10.9257px;line-height:1.25;font-family:'VCR OSD Mono';-inkscape-font-specification:'VCR OSD Mono Bold';text-decoration:none;text-decoration-line:none;text-decoration-color:#000000;letter-spacing:0px;word-spacing:0px;fill:#0000ff;stroke:none;stroke-width:0.573426;stop-color:#000000"
           id="path2143"
           transform="translate(561.66504,75.341603)" />
        <path
           d="m 50.954174,27.78678 v 1.066963 h -4.267851 v 2.133925 h 3.200888 v 1.066963 h -3.200888 v 2.133926 h 4.267851 V 35.25552 H 45.61936 v -7.46874 z"
           style="font-style:normal;font-variant:normal;font-weight:bold;font-stretch:normal;font-size:10.9257px;line-height:1.25;font-family:'VCR OSD Mono';-inkscape-font-specification:'VCR OSD Mono Bold';text-decoration:none;text-decoration-line:none;text-decoration-color:#000000;letter-spacing:0px;word-spacing:0px;fill:#0000ff;stroke:none;stroke-width:0.573426;stop-color:#000000"
           id="path2145"
           transform="translate(561.66504,75.341603)" />
        <path
           id="path2149"
           style="font-style:normal;font-variant:normal;font-weight:bold;font-stretch:normal;font-size:20.2951px;line-height:1.25;font-family:FreeSans;-inkscape-font-specification:'FreeSans Bold';text-decoration:none;text-decoration-line:none;text-decoration-color:#000000;letter-spacing:0px;word-spacing:0px;fill:#0000ff;stroke:none;stroke-width:0.769005"
           d="m 34.517909,272.68396 c -10.00318,0 -16.218346,-21.90027 -16.218346,-57.05817 0,-5.78601 0.173554,-11.20406 0.501959,-16.23511 h 7.391427 c -0.400891,4.65786 -0.60955,9.99225 -0.60955,15.93924 0,23.98485 3.448133,38.28534 9.178102,38.28534 6.069896,0 7.185976,-14.00425 7.574446,-19.51629 h 6.94384 c -0.631276,24.43171 -6.506805,38.58499 -14.761878,38.58499 z m -66.574839,-1.78663 -8.280405,-71.50665 h 24.399896 l -8.057883,71.50665 z M 2.9059021,267.91585 -9.6711684,203.26358 v -3.8729 H 14.512323 v 3.57324 h -3.594305 v 64.95193 z m 1.2141592,-19.81221 v -45.13972 h -8.9839656 z m -32.2920743,-2.82975 4.613167,-42.45791 h -9.2263 z"
           transform="matrix(1.5963381,0,0,0.77817626,44.049113,-25.331675)" />
        <path
           d="M -73.144323,6.7556397 V 7.171834 h -0.416195 V 6.3394453 h 0.416195 V 5.923251 h 0.416194 V 5.5070567 h -0.416194 V 5.0908624 h -0.416195 V 4.2584737 h 0.416195 V 4.674668 h 0.416194 v 0.4161944 h 0.416194 v -1.248583 h 0.832389 v 1.248583 h 0.416194 V 4.674668 h 0.416195 V 4.2584737 h 0.416194 v 0.8323887 h -0.416194 v 0.4161943 h -0.416195 V 5.923251 h 0.416195 v 0.4161943 h 0.416194 V 7.171834 h -0.416194 V 6.7556397 h -0.416195 V 6.3394453 h -0.416194 v 1.248583 h -0.832389 v -1.248583 h -0.416194 v 0.4161944 z"
           style="font-style:normal;font-variant:normal;font-weight:normal;font-stretch:normal;font-size:8.52366px;line-height:0.45;font-family:'VCR OSD Mono', norm;-inkscape-font-specification:'VCR OSD Mono, norm';text-decoration:none;text-decoration-line:none;text-decoration-color:#000000;letter-spacing:0px;word-spacing:0px;fill:#0000ff;stroke-width:0.303808;stop-color:#000000"
           id="path2151"
           transform="matrix(-1.915814,0,0,0.93391304,382.06696,158.36663)" />
        <path
           d="M -68.149991,6.7556397 V 7.171834 h -0.416195 V 6.3394453 h 0.416195 V 5.923251 h 0.416194 V 5.5070567 h -0.416194 V 5.0908624 h -0.416195 V 4.2584737 h 0.416195 V 4.674668 h 0.416194 v 0.4161944 h 0.416194 v -1.248583 h 0.832389 v 1.248583 h 0.416194 V 4.674668 h 0.416195 V 4.2584737 h 0.416194 v 0.8323887 h -0.416194 V 5.5070567 H -66.06902 V 5.923251 h 0.416195 v 0.4161943 h 0.416194 V 7.171834 h -0.416194 V 6.7556397 H -66.06902 V 6.3394453 h -0.416194 v 1.248583 h -0.832389 v -1.248583 h -0.416194 v 0.4161944 z"
           style="font-style:normal;font-variant:normal;font-weight:normal;font-stretch:normal;font-size:8.52366px;line-height:0.45;font-family:'VCR OSD Mono', norm;-inkscape-font-specification:'VCR OSD Mono, norm';text-decoration:none;text-decoration-line:none;text-decoration-color:#000000;letter-spacing:0px;word-spacing:0px;fill:#0000ff;stroke-width:0.303808;stop-color:#000000"
           id="path2153"
           transform="matrix(-1.915814,0,0,0.93391304,382.06696,158.36663)" />
        <path
           d="m -73.144323,12.763821 v 0.416194 h -0.416195 v -0.832389 h 0.416195 v -0.416194 h 0.416194 v -0.416194 h -0.416194 v -0.416195 h -0.416195 v -0.832388 h 0.416195 v 0.416194 h 0.416194 v 0.416194 h 0.416194 V 9.8504605 h 0.832389 v 1.2485825 h 0.416194 v -0.416194 h 0.416195 v -0.416194 h 0.416194 v 0.832388 h -0.416194 v 0.416195 h -0.416195 v 0.416194 h 0.416195 v 0.416194 h 0.416194 v 0.832389 h -0.416194 v -0.416194 h -0.416195 v -0.416195 h -0.416194 v 1.248583 h -0.832389 v -1.248583 h -0.416194 v 0.416195 z"
           style="font-style:normal;font-variant:normal;font-weight:normal;font-stretch:normal;font-size:8.52366px;line-height:0.45;font-family:'VCR OSD Mono', norm;-inkscape-font-specification:'VCR OSD Mono, norm';text-decoration:none;text-decoration-line:none;text-decoration-color:#000000;letter-spacing:0px;word-spacing:0px;fill:#0000ff;stroke-width:0.303808;stop-color:#000000"
           id="path2155"
           transform="matrix(-1.915814,0,0,0.93391304,382.06696,158.36663)" />
        <path
           d="m -68.149991,12.763821 v 0.416194 h -0.416195 v -0.832389 h 0.416195 v -0.416194 h 0.416194 v -0.416194 h -0.416194 v -0.416195 h -0.416195 v -0.832388 h 0.416195 v 0.416194 h 0.416194 v 0.416194 h 0.416194 V 9.8504605 h 0.832389 v 1.2485825 h 0.416194 v -0.416194 h 0.416195 v -0.416194 h 0.416194 v 0.832388 h -0.416194 v 0.416195 h -0.416195 v 0.416194 h 0.416195 v 0.416194 h 0.416194 v 0.832389 h -0.416194 v -0.416194 h -0.416195 v -0.416195 h -0.416194 v 1.248583 h -0.832389 v -1.248583 h -0.416194 v 0.416195 z"
           style="font-style:normal;font-variant:normal;font-weight:normal;font-stretch:normal;font-size:8.52366px;line-height:0.45;font-family:'VCR OSD Mono', norm;-inkscape-font-specification:'VCR OSD Mono, norm';text-decoration:none;text-decoration-line:none;text-decoration-color:#000000;letter-spacing:0px;word-spacing:0px;fill:#0000ff;stroke-width:0.303808;stop-color:#000000"
           id="path2157"
           transform="matrix(-1.915814,0,0,0.93391304,382.06696,158.36663)" />
        <path
           d="m -73.144323,18.772002 v 0.416194 h -0.416195 v -0.832388 h 0.416195 v -0.416195 h 0.416194 v -0.416194 h -0.416194 v -0.416194 h -0.416195 v -0.832389 h 0.416195 v 0.416194 h 0.416194 v 0.416195 h 0.416194 v -1.248583 h 0.832389 v 1.248583 h 0.416194 V 16.69103 h 0.416195 v -0.416194 h 0.416194 v 0.832389 h -0.416194 v 0.416194 h -0.416195 v 0.416194 h 0.416195 v 0.416195 h 0.416194 v 0.832388 h -0.416194 v -0.416194 h -0.416195 v -0.416194 h -0.416194 v 1.248583 h -0.832389 v -1.248583 h -0.416194 v 0.416194 z"
           style="font-style:normal;font-variant:normal;font-weight:normal;font-stretch:normal;font-size:8.52366px;line-height:0.45;font-family:'VCR OSD Mono', norm;-inkscape-font-specification:'VCR OSD Mono, norm';text-decoration:none;text-decoration-line:none;text-decoration-color:#000000;letter-spacing:0px;word-spacing:0px;fill:#0000ff;stroke-width:0.303808;stop-color:#000000"
           id="path2159"
           transform="matrix(-1.915814,0,0,0.93391304,382.06696,158.36663)" />
        <path
           d="m -68.149991,18.772002 v 0.416194 h -0.416195 v -0.832388 h 0.416195 v -0.416195 h 0.416194 v -0.416194 h -0.416194 v -0.416194 h -0.416195 v -0.832389 h 0.416195 v 0.416194 h 0.416194 v 0.416195 h 0.416194 v -1.248583 h 0.832389 v 1.248583 h 0.416194 V 16.69103 h 0.416195 v -0.416194 h 0.416194 v 0.832389 h -0.416194 v 0.416194 h -0.416195 v 0.416194 h 0.416195 v 0.416195 h 0.416194 v 0.832388 h -0.416194 v -0.416194 h -0.416195 v -0.416194 h -0.416194 v 1.248583 h -0.832389 v -1.248583 h -0.416194 v 0.416194 z"
           style="font-style:normal;font-variant:normal;font-weight:normal;font-stretch:normal;font-size:8.52366px;line-height:0.45;font-family:'VCR OSD Mono', norm;-inkscape-font-specification:'VCR OSD Mono, norm';text-decoration:none;text-decoration-line:none;text-decoration-color:#000000;letter-spacing:0px;word-spacing:0px;fill:#0000ff;stroke-width:0.303808;stop-color:#000000"
           id="path2161"
           transform="matrix(-1.915814,0,0,0.93391304,382.06696,158.36663)" />
        <path
           d="m -73.144323,24.780183 v 0.416194 h -0.416195 v -0.832388 h 0.416195 v -0.416195 h 0.416194 V 23.5316 h -0.416194 v -0.416194 h -0.416195 v -0.832389 h 0.416195 v 0.416194 h 0.416194 v 0.416195 h 0.416194 v -1.248583 h 0.832389 v 1.248583 h 0.416194 v -0.416195 h 0.416195 v -0.416194 h 0.416194 v 0.832389 h -0.416194 V 23.5316 h -0.416195 v 0.416194 h 0.416195 v 0.416195 h 0.416194 v 0.832388 h -0.416194 v -0.416194 h -0.416195 v -0.416194 h -0.416194 v 1.248583 h -0.832389 v -1.248583 h -0.416194 v 0.416194 z"
           style="font-style:normal;font-variant:normal;font-weight:normal;font-stretch:normal;font-size:8.52366px;line-height:0.45;font-family:'VCR OSD Mono', norm;-inkscape-font-specification:'VCR OSD Mono, norm';text-decoration:none;text-decoration-line:none;text-decoration-color:#000000;letter-spacing:0px;word-spacing:0px;fill:#0000ff;stroke-width:0.303808;stop-color:#000000"
           id="path2163"
           transform="matrix(-1.915814,0,0,0.93391304,382.06696,158.36663)" />
        <path
           d="m -68.149991,24.780183 v 0.416194 h -0.416195 v -0.832388 h 0.416195 v -0.416195 h 0.416194 V 23.5316 h -0.416194 v -0.416194 h -0.416195 v -0.832389 h 0.416195 v 0.416194 h 0.416194 v 0.416195 h 0.416194 v -1.248583 h 0.832389 v 1.248583 h 0.416194 v -0.416195 h 0.416195 v -0.416194 h 0.416194 v 0.832389 h -0.416194 V 23.5316 h -0.416195 v 0.416194 h 0.416195 v 0.416195 h 0.416194 v 0.832388 h -0.416194 v -0.416194 h -0.416195 v -0.416194 h -0.416194 v 1.248583 h -0.832389 v -1.248583 h -0.416194 v 0.416194 z"
           style="font-style:normal;font-variant:normal;font-weight:normal;font-stretch:normal;font-size:8.52366px;line-height:0.45;font-family:'VCR OSD Mono', norm;-inkscape-font-specification:'VCR OSD Mono, norm';text-decoration:none;text-decoration-line:none;text-decoration-color:#000000;letter-spacing:0px;word-spacing:0px;fill:#0000ff;stroke-width:0.303808;stop-color:#000000"
           id="path2165"
           transform="matrix(-1.915814,0,0,0.93391304,382.06696,158.36663)" />
        <path
           d="m -73.144323,30.788364 v 0.416194 h -0.416195 V 30.37217 h 0.416195 v -0.416194 h 0.416194 v -0.416195 h -0.416194 v -0.416194 h -0.416195 v -0.832389 h 0.416195 v 0.416195 h 0.416194 v 0.416194 h 0.416194 v -1.248583 h 0.832389 v 1.248583 h 0.416194 v -0.416194 h 0.416195 v -0.416195 h 0.416194 v 0.832389 h -0.416194 v 0.416194 h -0.416195 v 0.416195 h 0.416195 v 0.416194 h 0.416194 v 0.832388 h -0.416194 v -0.416194 h -0.416195 V 30.37217 h -0.416194 v 1.248583 h -0.832389 V 30.37217 h -0.416194 v 0.416194 z"
           style="font-style:normal;font-variant:normal;font-weight:normal;font-stretch:normal;font-size:8.52366px;line-height:0.45;font-family:'VCR OSD Mono', norm;-inkscape-font-specification:'VCR OSD Mono, norm';text-decoration:none;text-decoration-line:none;text-decoration-color:#000000;letter-spacing:0px;word-spacing:0px;fill:#0000ff;stroke-width:0.303808;stop-color:#000000"
           id="path2167"
           transform="matrix(-1.915814,0,0,0.93391304,382.06696,158.36663)" />
        <path
           d="m -68.149991,30.788364 v 0.416194 h -0.416195 V 30.37217 h 0.416195 v -0.416194 h 0.416194 v -0.416195 h -0.416194 v -0.416194 h -0.416195 v -0.832389 h 0.416195 v 0.416195 h 0.416194 v 0.416194 h 0.416194 v -1.248583 h 0.832389 v 1.248583 h 0.416194 v -0.416194 h 0.416195 v -0.416195 h 0.416194 v 0.832389 h -0.416194 v 0.416194 h -0.416195 v 0.416195 h 0.416195 v 0.416194 h 0.416194 v 0.832388 h -0.416194 V 30.788364 H -66.06902 V 30.37217 h -0.416194 v 1.248583 h -0.832389 V 30.37217 h -0.416194 v 0.416194 z"
           style="font-style:normal;font-variant:normal;font-weight:normal;font-stretch:normal;font-size:8.52366px;line-height:0.45;font-family:'VCR OSD Mono', norm;-inkscape-font-specification:'VCR OSD Mono, norm';text-decoration:none;text-decoration-line:none;text-decoration-color:#000000;letter-spacing:0px;word-spacing:0px;fill:#0000ff;stroke-width:0.303808;stop-color:#000000"
           id="path2169"
           transform="matrix(-1.915814,0,0,0.93391304,382.06696,158.36663)" />
        <path
           d="m -73.144323,36.796545 v 0.416195 h -0.416195 v -0.832389 h 0.416195 v -0.416194 h 0.416194 v -0.416195 h -0.416194 v -0.416194 h -0.416195 v -0.832389 h 0.416195 v 0.416195 h 0.416194 v 0.416194 h 0.416194 v -1.248583 h 0.832389 v 1.248583 h 0.416194 v -0.416194 h 0.416195 v -0.416195 h 0.416194 v 0.832389 h -0.416194 v 0.416194 h -0.416195 v 0.416195 h 0.416195 v 0.416194 h 0.416194 v 0.832389 h -0.416194 v -0.416195 h -0.416195 v -0.416194 h -0.416194 v 1.248583 h -0.832389 v -1.248583 h -0.416194 v 0.416194 z"
           style="font-style:normal;font-variant:normal;font-weight:normal;font-stretch:normal;font-size:8.52366px;line-height:0.45;font-family:'VCR OSD Mono', norm;-inkscape-font-specification:'VCR OSD Mono, norm';text-decoration:none;text-decoration-line:none;text-decoration-color:#000000;letter-spacing:0px;word-spacing:0px;fill:#0000ff;stroke-width:0.303808;stop-color:#000000"
           id="path2171"
           transform="matrix(-1.915814,0,0,0.93391304,382.06696,158.36663)" />
        <path
           d="m -68.149991,36.796545 v 0.416195 h -0.416195 v -0.832389 h 0.416195 v -0.416194 h 0.416194 v -0.416195 h -0.416194 v -0.416194 h -0.416195 v -0.832389 h 0.416195 v 0.416195 h 0.416194 v 0.416194 h 0.416194 v -1.248583 h 0.832389 v 1.248583 h 0.416194 v -0.416194 h 0.416195 v -0.416195 h 0.416194 v 0.832389 h -0.416194 v 0.416194 h -0.416195 v 0.416195 h 0.416195 v 0.416194 h 0.416194 v 0.832389 h -0.416194 v -0.416195 h -0.416195 v -0.416194 h -0.416194 v 1.248583 h -0.832389 v -1.248583 h -0.416194 v 0.416194 z"
           style="font-style:normal;font-variant:normal;font-weight:normal;font-stretch:normal;font-size:8.52366px;line-height:0.45;font-family:'VCR OSD Mono', norm;-inkscape-font-specification:'VCR OSD Mono, norm';text-decoration:none;text-decoration-line:none;text-decoration-color:#000000;letter-spacing:0px;word-spacing:0px;fill:#0000ff;stroke-width:0.303808;stop-color:#000000"
           id="path2173"
           transform="matrix(-1.915814,0,0,0.93391304,382.06696,158.36663)" />
        <path
           d="m -63.15566,36.796545 v 0.416195 h -0.416194 v -0.832389 h 0.416194 v -0.416194 h 0.416195 v -0.416195 h -0.416195 v -0.416194 h -0.416194 v -0.832389 h 0.416194 v 0.416195 h 0.416195 v 0.416194 h 0.416194 v -1.248583 h 0.832389 v 1.248583 h 0.416194 v -0.416194 h 0.416194 v -0.416195 h 0.416195 v 0.832389 h -0.416195 v 0.416194 h -0.416194 v 0.416195 h 0.416194 v 0.416194 h 0.416195 v 0.832389 h -0.416195 v -0.416195 h -0.416194 v -0.416194 h -0.416194 v 1.248583 h -0.832389 v -1.248583 h -0.416194 v 0.416194 z"
           style="font-style:normal;font-variant:normal;font-weight:normal;font-stretch:normal;font-size:8.52366px;line-height:0.45;font-family:'VCR OSD Mono', norm;-inkscape-font-specification:'VCR OSD Mono, norm';text-decoration:none;text-decoration-line:none;text-decoration-color:#000000;letter-spacing:0px;word-spacing:0px;fill:#0000ff;stroke-width:0.303808;stop-color:#000000"
           id="path2175"
           transform="matrix(-1.915814,0,0,0.93391304,382.06696,158.36663)" />
        <path
           d="m -58.161327,36.796545 v 0.416195 h -0.416195 v -0.832389 h 0.416195 v -0.416194 h 0.416194 v -0.416195 h -0.416194 v -0.416194 h -0.416195 v -0.832389 h 0.416195 v 0.416195 h 0.416194 v 0.416194 h 0.416194 v -1.248583 h 0.832389 v 1.248583 h 0.416194 v -0.416194 h 0.416195 v -0.416195 h 0.416194 v 0.832389 h -0.416194 v 0.416194 h -0.416195 v 0.416195 h 0.416195 v 0.416194 h 0.416194 v 0.832389 h -0.416194 v -0.416195 h -0.416195 v -0.416194 h -0.416194 v 1.248583 h -0.832389 v -1.248583 h -0.416194 v 0.416194 z"
           style="font-style:normal;font-variant:normal;font-weight:normal;font-stretch:normal;font-size:8.52366px;line-height:0.45;font-family:'VCR OSD Mono', norm;-inkscape-font-specification:'VCR OSD Mono, norm';text-decoration:none;text-decoration-line:none;text-decoration-color:#000000;letter-spacing:0px;word-spacing:0px;fill:#0000ff;stroke-width:0.303808;stop-color:#000000"
           id="path2177"
           transform="matrix(-1.915814,0,0,0.93391304,382.06696,158.36663)" />
        <path
           d="m -53.166996,36.796545 v 0.416195 h -0.416194 v -0.832389 h 0.416194 v -0.416194 h 0.416194 v -0.416195 h -0.416194 v -0.416194 h -0.416194 v -0.832389 h 0.416194 v 0.416195 h 0.416194 v 0.416194 h 0.416195 v -1.248583 h 0.832388 v 1.248583 h 0.416195 v -0.416194 h 0.416194 v -0.416195 h 0.416194 v 0.832389 h -0.416194 v 0.416194 h -0.416194 v 0.416195 h 0.416194 v 0.416194 h 0.416194 v 0.832389 h -0.416194 v -0.416195 h -0.416194 v -0.416194 h -0.416195 v 1.248583 h -0.832388 v -1.248583 h -0.416195 v 0.416194 z"
           style="font-style:normal;font-variant:normal;font-weight:normal;font-stretch:normal;font-size:8.52366px;line-height:0.45;font-family:'VCR OSD Mono', norm;-inkscape-font-specification:'VCR OSD Mono, norm';text-decoration:none;text-decoration-line:none;text-decoration-color:#000000;letter-spacing:0px;word-spacing:0px;fill:#0000ff;stroke-width:0.303808;stop-color:#000000"
           id="path2179"
           transform="matrix(-1.915814,0,0,0.93391304,382.06696,158.36663)" />
        <path
           d="m -48.172665,36.796545 v 0.416195 h -0.416194 v -0.832389 h 0.416194 v -0.416194 h 0.416195 v -0.416195 h -0.416195 v -0.416194 h -0.416194 v -0.832389 h 0.416194 v 0.416195 h 0.416195 v 0.416194 h 0.416194 v -1.248583 h 0.832389 v 1.248583 h 0.416194 v -0.416194 h 0.416194 v -0.416195 h 0.416195 v 0.832389 h -0.416195 v 0.416194 h -0.416194 v 0.416195 h 0.416194 v 0.416194 h 0.416195 v 0.832389 h -0.416195 v -0.416195 h -0.416194 v -0.416194 h -0.416194 v 1.248583 h -0.832389 v -1.248583 h -0.416194 v 0.416194 z"
           style="font-style:normal;font-variant:normal;font-weight:normal;font-stretch:normal;font-size:8.52366px;line-height:0.45;font-family:'VCR OSD Mono', norm;-inkscape-font-specification:'VCR OSD Mono, norm';text-decoration:none;text-decoration-line:none;text-decoration-color:#000000;letter-spacing:0px;word-spacing:0px;fill:#0000ff;stroke-width:0.303808;stop-color:#000000"
           id="path2181"
           transform="matrix(-1.915814,0,0,0.93391304,382.06696,158.36663)" />
        <path
           d="m -43.178331,36.796545 v 0.416195 h -0.416195 v -0.832389 h 0.416195 v -0.416194 h 0.416194 v -0.416195 h -0.416194 v -0.416194 h -0.416195 v -0.832389 h 0.416195 v 0.416195 h 0.416194 v 0.416194 h 0.416194 v -1.248583 h 0.832389 v 1.248583 h 0.416194 v -0.416194 h 0.416195 v -0.416195 h 0.416194 v 0.832389 h -0.416194 v 0.416194 h -0.416195 v 0.416195 h 0.416195 v 0.416194 h 0.416194 v 0.832389 h -0.416194 v -0.416195 h -0.416195 v -0.416194 h -0.416194 v 1.248583 h -0.832389 v -1.248583 h -0.416194 v 0.416194 z"
           style="font-style:normal;font-variant:normal;font-weight:normal;font-stretch:normal;font-size:8.52366px;line-height:0.45;font-family:'VCR OSD Mono', norm;-inkscape-font-specification:'VCR OSD Mono, norm';text-decoration:none;text-decoration-line:none;text-decoration-color:#000000;letter-spacing:0px;word-spacing:0px;fill:#0000ff;stroke-width:0.303808;stop-color:#000000"
           id="path2183"
           transform="matrix(-1.915814,0,0,0.93391304,382.06696,158.36663)" />
        <path
           d="m -38.184,36.796545 v 0.416195 h -0.416194 V 36.380351 H -38.184 v -0.416194 h 0.416194 V 35.547962 H -38.184 v -0.416194 h -0.416194 V 34.299379 H -38.184 v 0.416195 h 0.416194 v 0.416194 h 0.416195 v -1.248583 h 0.832388 v 1.248583 h 0.416195 v -0.416194 h 0.416194 v -0.416195 h 0.416194 v 0.832389 h -0.416194 v 0.416194 h -0.416194 v 0.416195 h 0.416194 v 0.416194 h 0.416194 v 0.832389 h -0.416194 v -0.416195 h -0.416194 v -0.416194 h -0.416195 v 1.248583 h -0.832388 v -1.248583 h -0.416195 v 0.416194 z"
           style="font-style:normal;font-variant:normal;font-weight:normal;font-stretch:normal;font-size:8.52366px;line-height:0.45;font-family:'VCR OSD Mono', norm;-inkscape-font-specification:'VCR OSD Mono, norm';text-decoration:none;text-decoration-line:none;text-decoration-color:#000000;letter-spacing:0px;word-spacing:0px;fill:#0000ff;stroke-width:0.303808;stop-color:#000000"
           id="path2185"
           transform="matrix(-1.915814,0,0,0.93391304,382.06696,158.36663)" />
        <path
           d="m -33.189669,36.796545 v 0.416195 h -0.416194 v -0.832389 h 0.416194 v -0.416194 h 0.416195 v -0.416195 h -0.416195 v -0.416194 h -0.416194 v -0.832389 h 0.416194 v 0.416195 h 0.416195 v 0.416194 h 0.416194 v -1.248583 h 0.832389 v 1.248583 h 0.416194 v -0.416194 h 0.416194 v -0.416195 h 0.416195 v 0.832389 h -0.416195 v 0.416194 h -0.416194 v 0.416195 h 0.416194 v 0.416194 h 0.416195 v 0.832389 h -0.416195 v -0.416195 h -0.416194 v -0.416194 h -0.416194 v 1.248583 h -0.832389 v -1.248583 h -0.416194 v 0.416194 z"
           style="font-style:normal;font-variant:normal;font-weight:normal;font-stretch:normal;font-size:8.52366px;line-height:0.45;font-family:'VCR OSD Mono', norm;-inkscape-font-specification:'VCR OSD Mono, norm';text-decoration:none;text-decoration-line:none;text-decoration-color:#000000;letter-spacing:0px;word-spacing:0px;fill:#0000ff;stroke-width:0.303808;stop-color:#000000"
           id="path2187"
           transform="matrix(-1.915814,0,0,0.93391304,382.06696,158.36663)" />
        <path
           d="m 15.315428,32.45389 v 6.039835 h 1.729196 v -8.757143 h -1.14868 C 15.624213,30.7741 14.72256,31.30521 13.21569,31.30521 v 1.14868 z"
           style="font-style:normal;font-variant:normal;font-weight:bold;font-stretch:normal;font-size:12.3514px;line-height:1.25;font-family:FreeSans;-inkscape-font-specification:'FreeSans Bold';text-decoration:none;text-decoration-line:none;text-decoration-color:#000000;letter-spacing:1.26121px;word-spacing:0px;fill:#0000ff;stroke-width:0.264584;stop-color:#000000"
           id="path2191"
           transform="matrix(2.8713544,0,0,1.3997159,221.06318,-64.622709)" />
        <path
           d="m 24.185098,34.269546 h -3.359581 v 1.667439 h 3.359581 z"
           style="font-style:normal;font-variant:normal;font-weight:bold;font-stretch:normal;font-size:12.3514px;line-height:1.25;font-family:FreeSans;-inkscape-font-specification:'FreeSans Bold';text-decoration:none;text-decoration-line:none;text-decoration-color:#000000;letter-spacing:1.26121px;word-spacing:0px;fill:#0000ff;stroke-width:0.264584;stop-color:#000000"
           id="path2193"
           transform="matrix(2.8713544,0,0,1.3997159,221.06318,-64.622709)" />
        <path
           d="m 31.91842,29.736582 h -4.681181 l -0.778138,4.878803 h 1.556276 c 0.185271,-0.432299 0.580516,-0.666976 1.111626,-0.666976 0.87695,0 1.40806,0.629922 1.40806,1.692142 0,1.025167 -0.543462,1.655088 -1.40806,1.655088 -0.753435,0 -1.173383,-0.382893 -1.210437,-1.086923 h -1.704493 c 0.0247,1.531573 1.185734,2.569091 2.890227,2.569091 1.877413,0 3.161959,-1.284546 3.161959,-3.17431 0,-1.790953 -1.111626,-3.026093 -2.72966,-3.026093 -0.580515,0 -1.012814,0.148217 -1.519222,0.53111 l 0.284082,-1.828007 h 3.618961 z"
           style="font-style:normal;font-variant:normal;font-weight:bold;font-stretch:normal;font-size:12.3514px;line-height:1.25;font-family:FreeSans;-inkscape-font-specification:'FreeSans Bold';text-decoration:none;text-decoration-line:none;text-decoration-color:#000000;letter-spacing:1.26121px;word-spacing:0px;fill:#0000ff;stroke-width:0.264584;stop-color:#000000"
           id="path2195"
           transform="matrix(2.8713544,0,0,1.3997159,221.06318,-64.622709)" />
        <path
           d="m 37.687888,34.269546 h -3.359581 v 1.667439 h 3.359581 z"
           style="font-style:normal;font-variant:normal;font-weight:bold;font-stretch:normal;font-size:12.3514px;line-height:1.25;font-family:FreeSans;-inkscape-font-specification:'FreeSans Bold';text-decoration:none;text-decoration-line:none;text-decoration-color:#000000;letter-spacing:1.26121px;word-spacing:0px;fill:#0000ff;stroke-width:0.264584;stop-color:#000000"
           id="path2197"
           transform="matrix(2.8713544,0,0,1.3997159,221.06318,-64.622709)" />
        <path
           d="m 16.238134,26.98992 c 0,-0.60734 -0.525268,-1.050535 -1.24204,-1.050535 -0.722243,0 -1.247511,0.443195 -1.247511,1.056007 0,0.372065 0.153203,0.607341 0.503381,0.793373 -0.448666,0.240748 -0.634698,0.536211 -0.634698,0.995821 0,0.733186 0.563568,1.242039 1.378828,1.242039 0.809788,0 1.373356,-0.508853 1.373356,-1.242039 0,-0.45961 -0.186032,-0.755073 -0.634698,-0.995821 0.268105,-0.14226 0.503382,-0.350178 0.503382,-0.798845 z m -1.236569,-0.432251 c 0.339236,0 0.574512,0.207918 0.574512,0.508853 0,0.295463 -0.240748,0.508853 -0.574512,0.508853 -0.339235,0 -0.579983,-0.21339 -0.579983,-0.514325 0,-0.295463 0.235276,-0.503381 0.579983,-0.503381 z m -0.01094,1.537503 c 0.377537,0 0.612813,0.25169 0.612813,0.656584 0,0.372065 -0.240748,0.618284 -0.612813,0.618284 -0.372064,0 -0.607341,-0.246219 -0.607341,-0.629227 0,-0.393951 0.240748,-0.645641 0.607341,-0.645641 z"
           style="font-style:normal;font-variant:normal;font-weight:bold;font-stretch:normal;font-size:5.47154px;line-height:1.25;font-family:FreeSans;-inkscape-font-specification:'FreeSans Bold';text-decoration:none;text-decoration-line:none;text-decoration-color:#000000;letter-spacing:0px;word-spacing:0px;fill:#0000ff;stroke-width:0.264584;stop-color:#000000"
           id="path2201"
           transform="matrix(2.8713544,0,0,1.3997159,221.06318,-64.622709)" />
        <path
           d="m 18.032797,30.026625 c 1.077894,0 1.335056,-0.930162 1.335056,-2.018998 0,-0.7113 -0.08754,-1.192796 -0.273577,-1.493731 -0.229805,-0.372064 -0.607341,-0.574511 -1.061479,-0.574511 -0.415837,0 -0.771487,0.175089 -1.006763,0.49791 -0.224333,0.300935 -0.328293,0.798845 -0.328293,1.548446 0,1.127137 0.268106,2.040884 1.335056,2.040884 z m 0.56904,-2.035413 c 0,0.432252 -0.04377,0.869975 -0.09849,1.023178 -0.08755,0.229805 -0.251691,0.35565 -0.470553,0.35565 -0.35565,0 -0.56904,-0.235276 -0.56904,-1.389771 0,-1.099779 0.175089,-1.4226 0.56904,-1.4226 0.350179,0 0.56904,0.224333 0.56904,1.433543 z"
           style="font-style:normal;font-variant:normal;font-weight:bold;font-stretch:normal;font-size:5.47154px;line-height:1.25;font-family:FreeSans;-inkscape-font-specification:'FreeSans Bold';text-decoration:none;text-decoration-line:none;text-decoration-color:#000000;letter-spacing:0px;word-spacing:0px;fill:#0000ff;stroke-width:0.264584;stop-color:#000000"
           id="path2203"
           transform="matrix(2.8713544,0,0,1.3997159,221.06318,-64.622709)" />
        <path
           d="m 22.256825,26.021458 h -2.073714 l -0.344707,2.161258 h 0.689414 c 0.08207,-0.191504 0.257162,-0.295463 0.492439,-0.295463 0.388479,0 0.623755,0.279049 0.623755,0.749601 0,0.454138 -0.240748,0.733186 -0.623755,0.733186 -0.333764,0 -0.519797,-0.169617 -0.536211,-0.481495 h -0.755073 c 0.01094,0.678471 0.525268,1.13808 1.280341,1.13808 0.831674,0 1.400714,-0.56904 1.400714,-1.406186 0,-0.793373 -0.492439,-1.340527 -1.209211,-1.340527 -0.257162,0 -0.448666,0.06566 -0.672999,0.235276 L 20.653663,26.7054 h 1.603162 z"
           style="font-style:normal;font-variant:normal;font-weight:bold;font-stretch:normal;font-size:5.47154px;line-height:1.25;font-family:FreeSans;-inkscape-font-specification:'FreeSans Bold';text-decoration:none;text-decoration-line:none;text-decoration-color:#000000;letter-spacing:0px;word-spacing:0px;fill:#0000ff;stroke-width:0.264584;stop-color:#000000"
           id="path2205"
           transform="matrix(2.8713544,0,0,1.3997159,221.06318,-64.622709)" />
        <path
           d="m 22.831334,27.175953 v 0.06566 h 0.711301 c 0.01094,-0.415837 0.09849,-0.683942 0.530739,-0.683942 0.306406,0 0.481496,0.186032 0.481496,0.508853 0,0.388479 -0.224334,0.585455 -0.678471,0.585455 h -0.06566 v 0.514325 c 0.268106,0 0.317349,0.0055 0.448666,0.0383 0.257163,0.07113 0.421309,0.295463 0.421309,0.579984 0,0.339235 -0.240748,0.585454 -0.574512,0.585454 -0.361121,0 -0.558097,-0.207918 -0.579983,-0.607341 H 22.78209 c 0.0055,0.776959 0.514324,1.263926 1.307698,1.263926 0.826202,0 1.356942,-0.486967 1.356942,-1.242039 0,-0.454138 -0.196976,-0.749601 -0.634699,-0.962991 0.361122,-0.224334 0.508853,-0.470553 0.508853,-0.826203 0,-0.645642 -0.481495,-1.056007 -1.231096,-1.056007 -0.49791,0 -1.258455,0.186032 -1.258455,1.236568 z"
           style="font-style:normal;font-variant:normal;font-weight:bold;font-stretch:normal;font-size:5.47154px;line-height:1.25;font-family:FreeSans;-inkscape-font-specification:'FreeSans Bold';text-decoration:none;text-decoration-line:none;text-decoration-color:#000000;letter-spacing:0px;word-spacing:0px;fill:#0000ff;stroke-width:0.264584;stop-color:#000000"
           id="path2207"
           transform="matrix(2.8713544,0,0,1.3997159,221.06318,-64.622709)" />
        <path
           d="m 28.488906,27.87631 c 0,-1.646934 -0.81526,-1.936925 -1.362414,-1.936925 -0.776958,0 -1.307698,0.558097 -1.307698,1.367885 0,0.798845 0.470553,1.345999 1.159967,1.345999 0.476024,0 0.651113,-0.279049 0.744129,-0.383008 0,0.738658 -0.207918,1.105251 -0.64017,1.105251 -0.268105,0 -0.454138,-0.147732 -0.470552,-0.377536 H 25.87351 c 0.01641,0.596397 0.519796,1.034121 1.187324,1.034121 0.612812,0 1.428072,-0.322821 1.428072,-2.155787 z m -1.3843,-1.31317 c 0.372065,0 0.60187,0.289992 0.60187,0.74413 0,0.42678 -0.240748,0.7113 -0.590927,0.7113 -0.350178,0 -0.56904,-0.279049 -0.56904,-0.722243 0,-0.448667 0.218862,-0.733187 0.558097,-0.733187 z"
           style="font-style:normal;font-variant:normal;font-weight:bold;font-stretch:normal;font-size:5.47154px;line-height:1.25;font-family:FreeSans;-inkscape-font-specification:'FreeSans Bold';text-decoration:none;text-decoration-line:none;text-decoration-color:#000000;letter-spacing:0px;word-spacing:0px;fill:#0000ff;stroke-width:0.264584;stop-color:#000000"
           id="path2209"
           transform="matrix(2.8713544,0,0,1.3997159,221.06318,-64.622709)" />
        <path
           d="m 33.118378,28.407807 v 0.36246 h -0.36246 v -0.72492 h 0.36246 v -0.36246 h 0.36246 v -0.36246 h -0.36246 v -0.36246 h -0.36246 v -0.72492 h 0.36246 v 0.36246 h 0.36246 v 0.36246 h 0.36246 v -1.08738 h 0.72492 v 1.08738 h 0.36246 v -0.36246 h 0.36246 v -0.36246 h 0.36246 v 0.72492 h -0.36246 v 0.36246 h -0.36246 v 0.36246 h 0.36246 v 0.36246 h 0.36246 v 0.72492 h -0.36246 v -0.36246 h -0.36246 v -0.36246 h -0.36246 v 1.08738 h -0.72492 v -1.08738 h -0.36246 v 0.36246 z"
           style="font-style:normal;font-variant:normal;font-weight:bold;font-stretch:normal;font-size:7.42318px;line-height:0.5;font-family:'VCR OSD Mono';-inkscape-font-specification:'VCR OSD Mono Bold';text-decoration:none;text-decoration-line:none;text-decoration-color:#000000;letter-spacing:0px;word-spacing:0px;fill:#0000ff;stroke-width:0.264584;stop-color:#000000"
           id="path2213"
           transform="matrix(3.1840606,0,0,2.2110257,77.700011,-63.983722)" />
        <path
           d="m 37.467898,28.407807 v 0.36246 h -0.36246 v -0.72492 h 0.36246 v -0.36246 h 0.36246 v -0.36246 h -0.36246 v -0.36246 h -0.36246 v -0.72492 h 0.36246 v 0.36246 h 0.36246 v 0.36246 h 0.36246 v -1.08738 h 0.72492 v 1.08738 h 0.36246 v -0.36246 h 0.36246 v -0.36246 h 0.36246 v 0.72492 h -0.36246 v 0.36246 h -0.36246 v 0.36246 h 0.36246 v 0.36246 h 0.36246 v 0.72492 h -0.36246 v -0.36246 h -0.36246 v -0.36246 h -0.36246 v 1.08738 h -0.72492 v -1.08738 h -0.36246 v 0.36246 z"
           style="font-style:normal;font-variant:normal;font-weight:bold;font-stretch:normal;font-size:7.42318px;line-height:0.5;font-family:'VCR OSD Mono';-inkscape-font-specification:'VCR OSD Mono Bold';text-decoration:none;text-decoration-line:none;text-decoration-color:#000000;letter-spacing:0px;word-spacing:0px;fill:#0000ff;stroke-width:0.264584;stop-color:#000000"
           id="path2215"
           transform="matrix(3.1840606,0,0,2.2110257,77.700011,-63.983722)" />
        <path
           d="m 41.817418,28.407807 v 0.36246 h -0.36246 v -0.72492 h 0.36246 v -0.36246 h 0.36246 v -0.36246 h -0.36246 v -0.36246 h -0.36246 v -0.72492 h 0.36246 v 0.36246 h 0.36246 v 0.36246 h 0.36246 v -1.08738 h 0.724919 v 1.08738 h 0.36246 v -0.36246 h 0.36246 v -0.36246 h 0.36246 v 0.72492 h -0.36246 v 0.36246 h -0.36246 v 0.36246 h 0.36246 v 0.36246 h 0.36246 v 0.72492 h -0.36246 v -0.36246 h -0.36246 v -0.36246 h -0.36246 v 1.08738 h -0.724919 v -1.08738 h -0.36246 v 0.36246 z"
           style="font-style:normal;font-variant:normal;font-weight:bold;font-stretch:normal;font-size:7.42318px;line-height:0.5;font-family:'VCR OSD Mono';-inkscape-font-specification:'VCR OSD Mono Bold';text-decoration:none;text-decoration-line:none;text-decoration-color:#000000;letter-spacing:0px;word-spacing:0px;fill:#0000ff;stroke-width:0.264584;stop-color:#000000"
           id="path2217"
           transform="matrix(3.1840606,0,0,2.2110257,77.700011,-63.983722)" />
        <path
           d="m 46.166937,28.407807 v 0.36246 h -0.36246 v -0.72492 h 0.36246 v -0.36246 h 0.36246 v -0.36246 h -0.36246 v -0.36246 h -0.36246 v -0.72492 h 0.36246 v 0.36246 h 0.36246 v 0.36246 h 0.36246 v -1.08738 h 0.72492 v 1.08738 h 0.36246 v -0.36246 h 0.36246 v -0.36246 h 0.36246 v 0.72492 h -0.36246 v 0.36246 h -0.36246 v 0.36246 h 0.36246 v 0.36246 h 0.36246 v 0.72492 h -0.36246 v -0.36246 h -0.36246 v -0.36246 h -0.36246 v 1.08738 h -0.72492 v -1.08738 h -0.36246 v 0.36246 z"
           style="font-style:normal;font-variant:normal;font-weight:bold;font-stretch:normal;font-size:7.42318px;line-height:0.5;font-family:'VCR OSD Mono';-inkscape-font-specification:'VCR OSD Mono Bold';text-decoration:none;text-decoration-line:none;text-decoration-color:#000000;letter-spacing:0px;word-spacing:0px;fill:#0000ff;stroke-width:0.264584;stop-color:#000000"
           id="path2219"
           transform="matrix(3.1840606,0,0,2.2110257,77.700011,-63.983722)" />
        <path
           id="path2223"
           style="font-style:normal;font-variant:normal;font-weight:bold;font-stretch:normal;font-size:20.2951px;line-height:1.25;font-family:FreeSans;-inkscape-font-specification:'FreeSans Bold';text-decoration:none;text-decoration-line:none;text-decoration-color:#000000;letter-spacing:0px;word-spacing:0px;fill:#0000ff;stroke:none;stroke-width:0.769005"
           d="m 12.167295,272.68396 c -10.0031919,0 -16.2183581,-21.90027 -16.2183581,-57.05817 0,-5.78601 0.173542,-11.20406 0.5019823,-16.23511 h 7.3914495 c -0.4009372,4.65786 -0.6095385,9.99225 -0.6095385,15.93924 0,23.98485 3.4480755,38.28534 9.1780448,38.28534 6.069884,0 7.185988,-14.00425 7.574446,-19.51629 h 6.943816 c -0.631276,24.43171 -6.506769,38.58499 -14.761842,38.58499 z m -66.574803,-1.78663 -8.280472,-71.50665 h 24.39993 l -8.057903,71.50665 z m 34.962798,-2.98148 -12.577051,-64.65227 v -3.8729 h 24.1834552 v 3.57324 h -3.5943202 v 64.95193 z m 1.214143,-19.81221 v -45.13972 h -8.983943 z m -32.292078,-2.82975 4.613174,-42.45791 h -9.226327 z"
           transform="matrix(1.5963381,0,0,0.77817626,44.049113,-25.331675)" />
        <path
           style="font-variation-settings:normal;vector-effect:none;fill:#0000ff;fill-opacity:1;stroke:#000000;stroke-width:1.21484;stroke-linecap:butt;stroke-linejoin:miter;stroke-miterlimit:4;stroke-dasharray:none;stroke-dashoffset:0;stroke-opacity:1;stop-color:#000000"
           d="m 37.177144,184.92334 h 3.746709"
           id="path2227"
           transform="matrix(1.5963381,0,0,0.77817626,44.049113,-25.331675)" />
        <path
           d="m 54.276195,26.865276 c 0,-0.535279 -0.462945,-0.925889 -1.094671,-0.925889 -0.636549,0 -1.099494,0.39061 -1.099494,0.930712 0,0.327919 0.135026,0.53528 0.443656,0.699239 -0.395432,0.212183 -0.559392,0.472589 -0.559392,0.877666 0,0.646194 0.496701,1.094671 1.21523,1.094671 0.713706,0 1.210407,-0.448477 1.210407,-1.094671 0,-0.405077 -0.163959,-0.665483 -0.559391,-0.877666 0.236295,-0.125381 0.443655,-0.30863 0.443655,-0.704062 z m -1.089849,-0.380964 c 0.298985,0 0.506346,0.183249 0.506346,0.448477 0,0.260407 -0.212183,0.448478 -0.506346,0.448478 -0.298985,0 -0.511168,-0.188071 -0.511168,-0.4533 0,-0.260406 0.207361,-0.443655 0.511168,-0.443655 z m -0.0096,1.355077 c 0.332741,0 0.540102,0.221828 0.540102,0.578681 0,0.327919 -0.212183,0.544924 -0.540102,0.544924 -0.32792,0 -0.53528,-0.217005 -0.53528,-0.554569 0,-0.347208 0.212183,-0.569036 0.53528,-0.569036 z"
           style="font-style:normal;font-variant:normal;font-weight:bold;font-stretch:normal;font-size:4.82234px;line-height:1.25;font-family:FreeSans;-inkscape-font-specification:'FreeSans Bold';text-decoration:none;text-decoration-line:none;text-decoration-color:#000000;letter-spacing:0px;word-spacing:0px;fill:#0000ff;stroke-width:0.264584;stop-color:#000000"
           id="path2229"
           transform="matrix(4.2163153,0,0,4.1267701,349.1657,-71.100303)" />
        <path
           d="m 55.857921,29.541675 c 0.950001,0 1.176651,-0.819798 1.176651,-1.779443 0,-0.626905 -0.07716,-1.05127 -0.241117,-1.316499 -0.202538,-0.327919 -0.535279,-0.506346 -0.935534,-0.506346 -0.366497,0 -0.67995,0.154315 -0.88731,0.438833 -0.197716,0.265229 -0.289341,0.704062 -0.289341,1.364722 0,0.993402 0.236295,1.798733 1.176651,1.798733 z m 0.501524,-1.79391 c 0,0.380965 -0.03858,0.766752 -0.0868,0.901777 -0.07716,0.202539 -0.221828,0.313452 -0.414722,0.313452 -0.313452,0 -0.501523,-0.20736 -0.501523,-1.224874 0,-0.96929 0.154315,-1.253808 0.501523,-1.253808 0.30863,0 0.501524,0.197716 0.501524,1.263453 z"
           style="font-style:normal;font-variant:normal;font-weight:bold;font-stretch:normal;font-size:4.82234px;line-height:1.25;font-family:FreeSans;-inkscape-font-specification:'FreeSans Bold';text-decoration:none;text-decoration-line:none;text-decoration-color:#000000;letter-spacing:0px;word-spacing:0px;fill:#0000ff;stroke-width:0.264584;stop-color:#000000"
           id="path2231"
           transform="matrix(4.2163153,0,0,4.1267701,349.1657,-71.100303)" />
        <path
           d="M 59.580767,26.011722 H 57.7531 l -0.303808,1.904825 h 0.607615 c 0.07233,-0.168782 0.22665,-0.260407 0.434011,-0.260407 0.342386,0 0.549747,0.24594 0.549747,0.660661 0,0.400254 -0.212183,0.646193 -0.549747,0.646193 -0.294163,0 -0.458122,-0.149492 -0.472589,-0.424366 h -0.665483 c 0.0096,0.597971 0.462944,1.003047 1.128427,1.003047 0.732996,0 1.234519,-0.501523 1.234519,-1.239341 0,-0.69924 -0.43401,-1.181474 -1.065737,-1.181474 -0.22665,0 -0.395432,0.05787 -0.593148,0.207361 l 0.110914,-0.713706 h 1.412946 z"
           style="font-style:normal;font-variant:normal;font-weight:bold;font-stretch:normal;font-size:4.82234px;line-height:1.25;font-family:FreeSans;-inkscape-font-specification:'FreeSans Bold';text-decoration:none;text-decoration-line:none;text-decoration-color:#000000;letter-spacing:0px;word-spacing:0px;fill:#0000ff;stroke-width:0.264584;stop-color:#000000"
           id="path2233"
           transform="matrix(4.2163153,0,0,4.1267701,349.1657,-71.100303)" />
        <path
           d="m 60.087111,27.029236 v 0.05787 h 0.626904 c 0.0096,-0.366498 0.0868,-0.602792 0.467767,-0.602792 0.270051,0 0.424366,0.163959 0.424366,0.448477 0,0.342386 -0.197716,0.515991 -0.59797,0.515991 h -0.05787 v 0.4533 c 0.236294,0 0.279696,0.0048 0.395432,0.03376 0.22665,0.06269 0.37132,0.260406 0.37132,0.511168 0,0.298985 -0.212183,0.51599 -0.506346,0.51599 -0.318274,0 -0.491879,-0.183249 -0.511168,-0.535279 H 60.04371 c 0.0048,0.684772 0.4533,1.11396 1.152539,1.11396 0.728173,0 1.19594,-0.429188 1.19594,-1.094671 0,-0.400254 -0.173604,-0.660661 -0.559391,-0.848732 0.318274,-0.197716 0.448478,-0.414721 0.448478,-0.728173 0,-0.569036 -0.424366,-0.930712 -1.085027,-0.930712 -0.438833,0 -1.109138,0.16396 -1.109138,1.089849 z"
           style="font-style:normal;font-variant:normal;font-weight:bold;font-stretch:normal;font-size:4.82234px;line-height:1.25;font-family:FreeSans;-inkscape-font-specification:'FreeSans Bold';text-decoration:none;text-decoration-line:none;text-decoration-color:#000000;letter-spacing:0px;word-spacing:0px;fill:#0000ff;stroke-width:0.264584;stop-color:#000000"
           id="path2235"
           transform="matrix(4.2163153,0,0,4.1267701,349.1657,-71.100303)" />
        <path
           d="m 65.07341,27.646496 c 0,-1.451525 -0.718529,-1.707109 -1.200763,-1.707109 -0.684772,0 -1.152539,0.491879 -1.152539,1.205585 0,0.704062 0.414721,1.186296 1.022336,1.186296 0.419543,0 0.573858,-0.24594 0.655838,-0.337564 0,0.651016 -0.183249,0.974113 -0.564214,0.974113 -0.236295,0 -0.400254,-0.130203 -0.414721,-0.332742 h -0.651016 c 0.01447,0.525635 0.458122,0.911422 1.046448,0.911422 0.540102,0 1.258631,-0.284518 1.258631,-1.900001 z m -1.220053,-1.157362 c 0.32792,0 0.530458,0.255584 0.530458,0.655838 0,0.376143 -0.212183,0.626904 -0.520813,0.626904 -0.30863,0 -0.501523,-0.245939 -0.501523,-0.636549 0,-0.395431 0.192893,-0.646193 0.491878,-0.646193 z"
           style="font-style:normal;font-variant:normal;font-weight:bold;font-stretch:normal;font-size:4.82234px;line-height:1.25;font-family:FreeSans;-inkscape-font-specification:'FreeSans Bold';text-decoration:none;text-decoration-line:none;text-decoration-color:#000000;letter-spacing:0px;word-spacing:0px;fill:#0000ff;stroke-width:0.264584;stop-color:#000000"
           id="path2237"
           transform="matrix(4.2163153,0,0,4.1267701,349.1657,-71.100303)" />
        <path
           d="m 178.66064,44.259776 v 0.589479 h -0.58948 v -1.178956 h 0.58948 v -0.589477 h 0.58949 v -0.589477 h -0.58949 v -0.589477 h -0.58948 v -1.178954 h 0.58948 v 0.589477 h 0.58949 v 0.589477 h 0.58947 v -1.768432 h 1.17895 v 1.768432 h 0.58948 v -0.589477 h 0.58948 v -0.589477 h 0.58947 v 1.178954 h -0.58947 v 0.589477 h -0.58948 v 0.589477 h 0.58948 v 0.589477 h 0.58947 v 1.178956 h -0.58947 v -0.589479 h -0.58948 v -0.589477 h -0.58948 v 1.768433 h -1.17895 v -1.768433 h -0.58947 v 0.589477 z"
           style="font-style:normal;font-variant:normal;font-weight:bold;font-stretch:normal;font-size:8.45304px;line-height:0.5;font-family:'VCR OSD Mono';-inkscape-font-specification:'VCR OSD Mono Bold';text-decoration:none;text-decoration-line:none;text-decoration-color:#000000;letter-spacing:0px;word-spacing:0px;fill:#0000ff;stroke-width:0.264582;stop-color:#000000"
           id="path2241"
           transform="matrix(1.4206214,0,0,0.70391727,334.28338,79.726898)" />
        <path
           d="m 22.940824,50.072896 v -0.547139 h 1.094277 v 4.37711 h 1.094278 v 1.094277 h -1.094278 v 2.188555 h -1.094277 v -2.188555 h -3.282832 v -2.188555 h 0.547139 v -0.547138 h 0.547138 v -0.547139 h 0.547139 v -0.547139 h 0.547139 v -0.547138 h 0.547138 v -0.547139 z m 0,3.829971 v -2.188555 h -0.547139 v 0.547139 h -0.547138 v 0.547138 h -0.547139 v 0.547139 h -0.547139 v 0.547139 z"
           style="font-style:normal;font-variant:normal;font-weight:bold;font-stretch:normal;font-size:11.2054px;line-height:1.25;font-family:'VCR OSD Mono';-inkscape-font-specification:'VCR OSD Mono Bold';text-decoration:none;text-decoration-line:none;text-decoration-color:#000000;letter-spacing:0px;word-spacing:0px;fill:#0000ff;stroke-width:0.446521;stop-color:#000000"
           id="path2245"
           transform="matrix(1.7448357,0,0,1.0507188,40.385218,63.215267)" />
        <path
           d="m 27.317934,53.902867 v 3.282832 h -1.094278 v -7.659942 h 1.094278 v 3.282832 h 0.547138 v -0.547138 h 0.547139 v -0.547139 h 0.547139 v -0.547139 h 0.547138 v -0.547138 h 0.547139 v -0.547139 h 0.547139 v -0.547139 h 1.094277 v 1.094278 h -0.547139 v 0.547138 h -0.547138 v 0.547139 h -0.547139 v 0.547139 h -0.547139 v 0.547138 H 28.95935 v 1.094278 h 0.547138 v 0.547139 h 0.547139 v 0.547138 h 0.547139 v 0.547139 h 0.547138 v 0.547139 h 0.547139 v 1.094277 H 30.600766 V 56.63856 H 30.053627 V 56.091422 H 29.506488 V 55.544283 H 28.95935 v -0.547139 h -0.547139 v -0.547138 h -0.547139 v -0.547139 z"
           style="font-style:normal;font-variant:normal;font-weight:bold;font-stretch:normal;font-size:11.2054px;line-height:1.25;font-family:'VCR OSD Mono';-inkscape-font-specification:'VCR OSD Mono Bold';text-decoration:none;text-decoration-line:none;text-decoration-color:#000000;letter-spacing:0px;word-spacing:0px;fill:#0000ff;stroke-width:0.446521;stop-color:#000000"
           id="path2247"
           transform="matrix(1.7448357,0,0,1.0507188,40.385218,63.215267)" />
        <path
           d="m 37.71904,50.620035 h 0.547139 v 1.094277 h -1.094278 v -0.547139 h -0.547138 v -0.547138 h -2.188555 v 0.547138 h -0.55261 v 0.547139 h 0.01094 v 1.094277 h -0.0055 v 2.188555 h -0.0055 v 0.547139 h 0.55261 v 0.547139 h 1.641416 v 0.0055 h 0.547139 v -0.55261 h 0.547138 v -1.641416 h -1.641416 v -1.094278 h 2.735694 v 3.282833 H 37.71904 v 0.547138 h -0.547139 v 0.55261 h -1.094277 v -0.0055 H 33.889069 V 56.63856 H 33.341931 V 56.091422 H 32.78932 v -1.094278 h 0.0055 v -2.188555 h 0.0055 v -1.094277 h -0.01094 v -1.094277 h 0.552611 v -0.547139 h 0.55261 v -0.547139 h 3.27736 v 0.547139 H 37.7191 Z"
           style="font-style:normal;font-variant:normal;font-weight:bold;font-stretch:normal;font-size:11.2054px;line-height:1.25;font-family:'VCR OSD Mono';-inkscape-font-specification:'VCR OSD Mono Bold';text-decoration:none;text-decoration-line:none;text-decoration-color:#000000;letter-spacing:0px;word-spacing:0px;fill:#0000ff;stroke-width:0.446521;stop-color:#000000"
           id="path2249"
           transform="matrix(1.7448357,0,0,1.0507188,40.385218,63.215267)" />
        <path
           d="m 44.284705,50.620035 h 0.547139 v 1.094277 h -1.094277 v -0.547139 h -0.547139 v -0.547138 h -2.188555 v 0.547138 h -0.547139 v 1.094278 h 0.547139 v 0.547138 h 2.735694 v 0.547139 h 0.547138 v 0.547139 h 0.547139 v 2.188555 h -0.547139 v 0.547138 h -0.547138 v 0.547139 H 40.454734 V 56.63856 h -0.547138 v -0.547138 h -0.547139 v -1.094278 h 1.094277 v 0.547139 h 0.547139 v 0.547139 h 2.188555 v -0.547139 h 0.547139 v -1.094277 h -0.547139 v -0.547139 h -2.735694 v -0.547139 h -0.547138 v -0.547139 h -0.547139 v -2.188554 h 0.547139 v -0.547139 h 0.547138 v -0.547139 h 3.282833 v 0.547139 h 0.547138 z"
           style="font-style:normal;font-variant:normal;font-weight:bold;font-stretch:normal;font-size:11.2054px;line-height:1.25;font-family:'VCR OSD Mono';-inkscape-font-specification:'VCR OSD Mono Bold';text-decoration:none;text-decoration-line:none;text-decoration-color:#000000;letter-spacing:0px;word-spacing:0px;fill:#0000ff;stroke-width:0.446521;stop-color:#000000"
           id="path2251"
           transform="matrix(1.7448357,0,0,1.0507188,40.385218,63.215267)" />
        <path
           id="path2255"
           style="font-style:normal;font-variant:normal;font-weight:bold;font-stretch:normal;font-size:20.2951px;line-height:1.25;font-family:FreeSans;-inkscape-font-specification:'FreeSans Bold';text-decoration:none;text-decoration-line:none;text-decoration-color:#000000;letter-spacing:0px;word-spacing:0px;fill:#0000ff;stroke:none;stroke-width:0.202166"
           d="m 443.29147,76.914083 c -2.62977,0 -4.26368,-5.757414 -4.26368,-15.000145 0,-1.521103 0.0456,-2.94546 0.13197,-4.268084 h 1.94315 c -0.1054,1.224519 -0.16026,2.626885 -0.16026,4.190304 0,6.305424 0.90649,10.064901 2.41285,10.064901 1.59573,0 1.88913,-3.681596 1.99126,-5.130674 h 1.82547 c -0.16595,6.422906 -1.71057,10.143698 -3.88076,10.143698 z M 425.78948,76.44439 423.61261,57.645854 h 6.41455 L 427.9088,76.44439 Z m 9.19143,-0.78382 -3.3064,-16.996554 v -1.018162 h 6.35764 v 0.939384 h -0.94492 V 75.66057 Z m 0.3192,-5.208463 V 58.585238 h -2.36182 z m -8.48934,-0.743917 1.21276,-11.161845 h -2.4255 z"
           transform="matrix(1.5963381,0,0,0.77817626,44.049113,-25.331675)" />
        <path
           d="m 25.636521,55.756057 h 1.282502 v -0.320625 h 0.320626 v -0.644458 h -0.323832 v -0.317419 h -1.279296 v 0.320626 h -0.320625 v 0.641251 h 0.320625 z m 1.603128,0.320626 v 0.320625 H 25.315896 V 56.076683 H 24.99527 v -0.320626 h -0.320625 v -1.282502 h 0.320625 v -0.641251 h -0.320625 v -1.282502 h 0.320625 v -0.320625 h 0.320626 v -0.320626 h 1.923753 v 0.320626 h 0.320625 v 0.320625 H 27.8809 v 1.282502 h -0.320626 v 0.323832 h -0.0032 v 0.317419 H 27.8809 v 1.282502 h -0.320626 v 0.320626 z m -0.320626,-3.526881 h -1.282502 v 0.320626 h -0.320625 v 0.641251 h 0.320625 v 0.320625 h 1.282502 v -0.317419 h 0.320626 v -0.644457 h -0.320626 z"
           style="font-style:normal;font-variant:normal;font-weight:bold;font-stretch:normal;font-size:6.56641px;line-height:1.25;font-family:'VCR OSD Mono';-inkscape-font-specification:'VCR OSD Mono Bold';text-decoration:none;text-decoration-line:none;text-decoration-color:#000000;letter-spacing:0px;word-spacing:0px;fill:#0000ff;stroke-width:0.566208;stop-color:#000000"
           id="path2257"
           transform="matrix(2.309937,0,0,1.1260385,242.03895,-1.9187461)" />
        <path
           d="m 30.445903,52.229177 v -0.320626 h 0.641251 v 2.565004 h 0.641251 v 0.641251 h -0.641251 v 1.282502 H 30.445903 V 55.114806 H 28.52215 v -1.282502 h 0.320626 v -0.320625 h 0.320625 v -0.320626 h 0.320626 v -0.320625 h 0.320625 v -0.320626 h 0.320626 v -0.320625 z m 0,2.244378 v -1.282502 h -0.320625 v 0.320626 h -0.320626 v 0.320625 h -0.320625 v 0.320626 h -0.320626 v 0.320625 z"
           style="font-style:normal;font-variant:normal;font-weight:bold;font-stretch:normal;font-size:6.56641px;line-height:1.25;font-family:'VCR OSD Mono';-inkscape-font-specification:'VCR OSD Mono Bold';text-decoration:none;text-decoration-line:none;text-decoration-color:#000000;letter-spacing:0px;word-spacing:0px;fill:#0000ff;stroke-width:0.566208;stop-color:#000000"
           id="path2259"
           transform="matrix(2.309937,0,0,1.1260385,242.03895,-1.9187461)" />
        <path
           d="m 32.687076,55.756057 h -0.31742 v -0.641251 h 0.641251 v 0.320626 h 0.317419 v 0.320625 h 1.285709 v -0.320625 h 0.320625 v -0.641251 h -0.320625 v -0.320626 h -0.961877 v -0.641251 h 0.961877 v -0.320625 h 0.320625 v -0.641251 h -0.320625 v -0.320626 h -1.282502 v 0.320626 h -0.320626 v 0.320625 h -0.641251 v -0.641251 h 0.320626 v -0.320625 h 0.320625 v -0.320626 h 1.923753 v 0.320626 h 0.320626 v 0.320625 h 0.320625 v 1.282502 h -0.320625 v 0.641251 h 0.320625 v 1.282502 h -0.320625 v 0.320626 H 34.93466 v 0.320625 h -1.923753 v -0.320625 h -0.323831 z"
           style="font-style:normal;font-variant:normal;font-weight:bold;font-stretch:normal;font-size:6.56641px;line-height:1.25;font-family:'VCR OSD Mono';-inkscape-font-specification:'VCR OSD Mono Bold';text-decoration:none;text-decoration-line:none;text-decoration-color:#000000;letter-spacing:0px;word-spacing:0px;fill:#0000ff;stroke-width:0.566208;stop-color:#000000"
           id="path2261"
           transform="matrix(2.309937,0,0,1.1260385,242.03895,-1.9187461)" />
        <path
           style="font-variation-settings:normal;vector-effect:none;fill:#0000ff;fill-opacity:1;stroke:#000000;stroke-width:1.44703;stroke-linecap:butt;stroke-linejoin:miter;stroke-miterlimit:4;stroke-dasharray:none;stroke-dashoffset:0;stroke-opacity:1;stop-color:#000000"
           d="m 171.04387,114.81806 h 4.46278"
           id="path2265"
           transform="matrix(1.5963381,0,0,0.77817626,44.049113,-25.331675)" />
        <path
           d="m 178.66064,44.259776 v 0.589479 h -0.58948 v -1.178956 h 0.58948 v -0.589477 h 0.58949 v -0.589477 h -0.58949 v -0.589477 h -0.58948 v -1.178954 h 0.58948 v 0.589477 h 0.58949 v 0.589477 h 0.58947 v -1.768432 h 1.17895 v 1.768432 h 0.58948 v -0.589477 h 0.58948 v -0.589477 h 0.58947 v 1.178954 h -0.58947 v 0.589477 h -0.58948 v 0.589477 h 0.58948 v 0.589477 h 0.58947 v 1.178956 h -0.58947 v -0.589479 h -0.58948 v -0.589477 h -0.58948 v 1.768433 h -1.17895 v -1.768433 h -0.58947 v 0.589477 z"
           style="font-style:normal;font-variant:normal;font-weight:bold;font-stretch:normal;font-size:8.45304px;line-height:0.5;font-family:'VCR OSD Mono';-inkscape-font-specification:'VCR OSD Mono Bold';text-decoration:none;text-decoration-line:none;text-decoration-color:#000000;letter-spacing:0px;word-spacing:0px;fill:#0000ff;stroke-width:0.264582;stop-color:#000000"
           id="path2267"
           transform="matrix(2.2911582,0,0,1.1352679,-124.67899,3.468451)" />
        <path
           d="m 25.636521,55.756057 h 1.282502 v -0.320625 h 0.320626 v -0.644458 h -0.323832 v -0.317419 h -1.279296 v 0.320626 h -0.320625 v 0.641251 h 0.320625 z m 1.603128,0.320626 v 0.320625 H 25.315896 V 56.076683 H 24.99527 v -0.320626 h -0.320625 v -1.282502 h 0.320625 v -0.641251 h -0.320625 v -1.282502 h 0.320625 v -0.320625 h 0.320626 v -0.320626 h 1.923753 v 0.320626 h 0.320625 v 0.320625 H 27.8809 v 1.282502 h -0.320626 v 0.323832 h -0.0032 v 0.317419 H 27.8809 v 1.282502 h -0.320626 v 0.320626 z m -0.320626,-3.526881 h -1.282502 v 0.320626 h -0.320625 v 0.641251 h 0.320625 v 0.320625 h 1.282502 v -0.317419 h 0.320626 v -0.644457 h -0.320626 z"
           style="font-style:normal;font-variant:normal;font-weight:bold;font-stretch:normal;font-size:6.56641px;line-height:1.25;font-family:'VCR OSD Mono';-inkscape-font-specification:'VCR OSD Mono Bold';text-decoration:none;text-decoration-line:none;text-decoration-color:#000000;letter-spacing:0px;word-spacing:0px;fill:#0000ff;stroke-width:0.566208;stop-color:#000000"
           id="path2285"
           transform="matrix(1.4322652,0,0,0.69819469,41.505932,11.536238)" />
        <path
           d="m 30.445903,52.229177 v -0.320626 h 0.641251 v 2.565004 h 0.641251 v 0.641251 h -0.641251 v 1.282502 H 30.445903 V 55.114806 H 28.52215 v -1.282502 h 0.320626 v -0.320625 h 0.320625 v -0.320626 h 0.320626 v -0.320625 h 0.320625 v -0.320626 h 0.320626 v -0.320625 z m 0,2.244378 v -1.282502 h -0.320625 v 0.320626 h -0.320626 v 0.320625 h -0.320625 v 0.320626 h -0.320626 v 0.320625 z"
           style="font-style:normal;font-variant:normal;font-weight:bold;font-stretch:normal;font-size:6.56641px;line-height:1.25;font-family:'VCR OSD Mono';-inkscape-font-specification:'VCR OSD Mono Bold';text-decoration:none;text-decoration-line:none;text-decoration-color:#000000;letter-spacing:0px;word-spacing:0px;fill:#0000ff;stroke-width:0.566208;stop-color:#000000"
           id="path2287"
           transform="matrix(1.4322652,0,0,0.69819469,41.505932,11.536238)" />
        <path
           d="m 32.687076,55.756057 h -0.31742 v -0.641251 h 0.641251 v 0.320626 h 0.317419 v 0.320625 h 1.285709 v -0.320625 h 0.320625 v -0.641251 h -0.320625 v -0.320626 h -0.961877 v -0.641251 h 0.961877 v -0.320625 h 0.320625 v -0.641251 h -0.320625 v -0.320626 h -1.282502 v 0.320626 h -0.320626 v 0.320625 h -0.641251 v -0.641251 h 0.320626 v -0.320625 h 0.320625 v -0.320626 h 1.923753 v 0.320626 h 0.320626 v 0.320625 h 0.320625 v 1.282502 h -0.320625 v 0.641251 h 0.320625 v 1.282502 h -0.320625 v 0.320626 H 34.93466 v 0.320625 h -1.923753 v -0.320625 h -0.323831 z"
           style="font-style:normal;font-variant:normal;font-weight:bold;font-stretch:normal;font-size:6.56641px;line-height:1.25;font-family:'VCR OSD Mono';-inkscape-font-specification:'VCR OSD Mono Bold';text-decoration:none;text-decoration-line:none;text-decoration-color:#000000;letter-spacing:0px;word-spacing:0px;fill:#0000ff;stroke-width:0.566208;stop-color:#000000"
           id="path2289"
           transform="matrix(1.4322652,0,0,0.69819469,41.505932,11.536238)" />
        <path
           d="m 40.284545,28.853743 v 5.334814 h 2.133926 v 0.0053 h 0.533482 v -0.538816 h 0.533481 v -4.267852 h -0.533481 v -0.533481 z m -1.066962,6.396442 v -7.46874 h 4.262516 v 0.533481 h 0.538817 v 0.533482 h 0.533481 v 5.334814 h -0.533481 v 0.533482 h -0.533482 v 0.538816 h -1.066963 v -0.0053 z"
           style="font-style:normal;font-variant:normal;font-weight:bold;font-stretch:normal;font-family:'VCR OSD Mono';-inkscape-font-specification:'VCR OSD Mono Bold';fill:#0000ff;stroke:none;stroke-width:0.573426"
           id="path2293" />
        <path
           d="m 50.954174,27.78678 v 1.066963 h -4.267851 v 2.133925 h 3.200888 v 1.066963 h -3.200888 v 2.133926 h 4.267851 V 35.25552 H 45.61936 v -7.46874 z"
           style="font-style:normal;font-variant:normal;font-weight:bold;font-stretch:normal;font-family:'VCR OSD Mono';-inkscape-font-specification:'VCR OSD Mono Bold';fill:#0000ff;stroke:none;stroke-width:0.573426"
           id="path2295" />
      </g>
    </g>
  </g>
</svg>
