<?xml version="1.0" encoding="UTF-8" standalone="no"?>
<svg
   xmlns:dc="http://purl.org/dc/elements/1.1/"
   xmlns:cc="http://creativecommons.org/ns#"
   xmlns:rdf="http://www.w3.org/1999/02/22-rdf-syntax-ns#"
   xmlns:svg="http://www.w3.org/2000/svg"
   xmlns="http://www.w3.org/2000/svg"
   xmlns:sodipodi="http://sodipodi.sourceforge.net/DTD/sodipodi-0.dtd"
   xmlns:inkscape="http://www.inkscape.org/namespaces/inkscape"
   width="310.64456mm"
   height="154.67537mm"
   viewBox="0 0 310.64456 154.67537"
   version="1.1"
   id="svg8"
   inkscape:version="1.0.1 (3bc2e813f5, 2020-09-07)"
   sodipodi:docname="MotifsBlue.svg">
  <defs
     id="defs2" />
  <sodipodi:namedview
     id="base"
     pagecolor="#ffffff"
     bordercolor="#666666"
     borderopacity="1.0"
     inkscape:pageopacity="0.0"
     inkscape:pageshadow="2"
     inkscape:zoom="0.98994949"
     inkscape:cx="603.86904"
     inkscape:cy="183.73836"
     inkscape:document-units="px"
     inkscape:current-layer="layer1"
     showgrid="false"
     inkscape:window-width="1920"
     inkscape:window-height="1057"
     inkscape:window-x="1912"
     inkscape:window-y="-8"
     inkscape:window-maximized="1"
     inkscape:document-rotation="0" />
  <metadata
     id="metadata5">
    <rdf:RDF>
      <cc:Work
         rdf:about="">
        <dc:format>image/svg+xml</dc:format>
        <dc:type
           rdf:resource="http://purl.org/dc/dcmitype/StillImage" />
        <dc:title></dc:title>
      </cc:Work>
    </rdf:RDF>
  </metadata>
  <g
     inkscape:label="Layer 1"
     inkscape:groupmode="layer"
     id="layer1"
     transform="translate(219.13168,-124.44555)">
    <g
       id="g5940"
       style="fill:#0000ff"
       transform="translate(-322.5535,81.746621)">
      <g
         aria-label="ZERTIFIZIERUNG"
         transform="matrix(1.3301731,0,0,2.6118327,284.7463,-174.03229)"
         id="text3640"
         style="font-weight:bold;font-size:6.63739px;line-height:1.25;font-family:FreeSans;-inkscape-font-specification:'FreeSans Bold';text-decoration:none;text-decoration-line:none;text-decoration-color:#000000;letter-spacing:0px;word-spacing:0px;fill:#0000ff;stroke-width:0.264583;stop-color:#000000">
        <path
           d="M 28.03729,137.2102 H 24.4 v 0.82967 h 2.475746 L 24.4,141.21918 v 0.82968 h 3.63729 v -0.82968 h -2.469109 l 2.469109,-3.17931 z"
           style="fill:#0000ff;stroke-width:0.264583"
           id="path3642" />
        <path
           d="m 29.444397,139.96472 h 2.316449 v -0.82968 h -2.316449 v -1.09517 h 2.502296 v -0.82967 h -3.497905 v 4.83866 h 3.617378 v -0.82968 h -2.621769 z"
           style="fill:#0000ff;stroke-width:0.264583"
           id="path3644" />
        <path
           d="m 35.623805,141.21918 c 0,0.45135 0.02655,0.59737 0.15266,0.82968 h 1.06862 v -0.17921 c -0.15266,-0.0863 -0.212396,-0.18585 -0.212396,-0.39824 -0.02655,-1.42704 -0.0531,-1.49342 -0.670377,-1.75891 0.544266,-0.2124 0.816399,-0.60401 0.816399,-1.19473 0,-0.53763 -0.258858,-1.30757 -1.300928,-1.30757 h -2.59522 v 4.83866 h 0.995609 v -1.91821 h 1.141631 c 0.43143,0 0.617277,0.17258 0.617277,0.57746 0,0.20575 -0.01328,0.15266 -0.01328,0.51107 z m 0.159298,-2.56203 c 0,0.56418 -0.292045,0.64383 -0.703564,0.64383 h -1.201367 v -1.26111 h 1.201367 c 0.418156,0 0.703564,0.0796 0.703564,0.61728 z"
           style="fill:#0000ff;stroke-width:0.264583"
           id="path3646" />
        <path
           d="m 39.566401,138.03987 h 1.413764 v -0.82967 h -3.876236 v 0.82967 h 1.466863 v 4.00899 h 0.995609 z"
           style="fill:#0000ff;stroke-width:0.264583"
           id="path3648" />
        <path
           d="m 42.347451,137.2102 h -0.995608 v 4.83866 h 0.995608 z"
           style="fill:#0000ff;stroke-width:0.264583"
           id="path3650" />
        <path
           d="m 43.93378,139.96472 h 2.117327 v -0.82968 H 43.93378 v -1.09517 h 2.402735 v -0.82967 h -3.398344 v 4.83866 h 0.995609 z"
           style="fill:#0000ff;stroke-width:0.264583"
           id="path3652" />
        <path
           d="m 47.717074,137.2102 h -0.995608 v 4.83866 h 0.995608 z"
           style="fill:#0000ff;stroke-width:0.264583"
           id="path3654" />
        <path
           d="m 51.586663,137.2102 h -3.63729 v 0.82967 h 2.475747 l -2.475747,3.17931 v 0.82968 h 3.63729 v -0.82968 h -2.469109 l 2.469109,-3.17931 z"
           style="fill:#0000ff;stroke-width:0.264583"
           id="path3656" />
        <path
           d="M 52.953948,137.2102 H 51.95834 v 4.83866 h 0.995608 z"
           style="fill:#0000ff;stroke-width:0.264583"
           id="path3658" />
        <path
           d="m 54.606655,139.96472 h 2.316449 v -0.82968 h -2.316449 v -1.09517 h 2.502296 v -0.82967 h -3.497904 v 4.83866 h 3.617377 v -0.82968 h -2.621769 z"
           style="fill:#0000ff;stroke-width:0.264583"
           id="path3660" />
        <path
           d="m 60.786065,141.21918 c 0,0.45135 0.02655,0.59737 0.15266,0.82968 h 1.06862 v -0.17921 c -0.15266,-0.0863 -0.212396,-0.18585 -0.212396,-0.39824 -0.02655,-1.42704 -0.0531,-1.49342 -0.670377,-1.75891 0.544266,-0.2124 0.816399,-0.60401 0.816399,-1.19473 0,-0.53763 -0.258858,-1.30757 -1.300928,-1.30757 h -2.59522 v 4.83866 h 0.995609 v -1.91821 h 1.141631 c 0.43143,0 0.617277,0.17258 0.617277,0.57746 0,0.20575 -0.01328,0.15266 -0.01328,0.51107 z m 0.159298,-2.56203 c 0,0.56418 -0.292045,0.64383 -0.703564,0.64383 h -1.201367 v -1.26111 h 1.201367 c 0.418156,0 0.703564,0.0796 0.703564,0.61728 z"
           style="fill:#0000ff;stroke-width:0.264583"
           id="path3662" />
        <path
           d="m 64.728662,142.20152 c 0.816399,0 1.918206,-0.34515 1.918206,-1.71245 V 137.2102 H 65.65126 v 3.27887 c 0,0.58409 -0.298683,0.86286 -0.922598,0.86286 -0.623914,0 -0.922597,-0.27877 -0.922597,-0.86286 v -3.27887 h -0.995608 v 3.27887 c 0,1.3673 1.101806,1.71245 1.918205,1.71245 z"
           style="fill:#0000ff;stroke-width:0.264583"
           id="path3664" />
        <path
           d="m 70.489904,142.04886 h 0.995609 v -4.83866 h -0.995609 v 3.29215 L 68.571699,137.2102 H 67.54954 v 4.83866 h 0.995609 v -3.34525 z"
           style="fill:#0000ff;stroke-width:0.264583"
           id="path3666" />
        <path
           d="m 75.540946,138.74344 h 0.935872 c -0.119473,-0.99561 -0.929235,-1.62616 -2.097416,-1.62616 -1.393852,0 -2.342998,1.02879 -2.342998,2.53548 0,1.46686 0.955784,2.53548 2.26335,2.53548 0.650464,0 1.088532,-0.2323 1.460225,-0.77657 l 0.119473,0.63719 h 0.597366 v -2.61513 H 74.5387 v 0.82967 h 1.101806 c -0.08629,0.91596 -0.982333,1.07526 -1.227917,1.07526 -0.803124,0 -1.380577,-0.70357 -1.380577,-1.69917 0,-1.04207 0.511079,-1.67263 1.354028,-1.67263 0.690288,0 1.01552,0.36506 1.154906,0.77658 z"
           style="fill:#0000ff;stroke-width:0.264583"
           id="path3668" />
      </g>
      <path
         id="path1796"
         style="color:#000000;font-style:normal;font-variant:normal;font-weight:normal;font-stretch:normal;font-size:medium;line-height:normal;font-family:sans-serif;font-variant-ligatures:normal;font-variant-position:normal;font-variant-caps:normal;font-variant-numeric:normal;font-variant-alternates:normal;font-variant-east-asian:normal;font-feature-settings:normal;font-variation-settings:normal;text-indent:0;text-align:start;text-decoration:none;text-decoration-line:none;text-decoration-style:solid;text-decoration-color:#000000;letter-spacing:normal;word-spacing:normal;text-transform:none;writing-mode:lr-tb;direction:ltr;text-orientation:mixed;dominant-baseline:auto;baseline-shift:baseline;text-anchor:start;white-space:normal;shape-padding:0;shape-margin:0;inline-size:0;clip-rule:nonzero;display:inline;overflow:visible;visibility:visible;opacity:1;isolation:auto;mix-blend-mode:normal;color-interpolation:sRGB;color-interpolation-filters:linearRGB;solid-color:#000000;solid-opacity:1;vector-effect:none;fill:#0000ff;fill-opacity:1;fill-rule:evenodd;stroke:none;stroke-width:1.88576;stroke-linecap:round;stroke-linejoin:bevel;stroke-miterlimit:4;stroke-dasharray:none;stroke-dashoffset:0;stroke-opacity:1;color-rendering:auto;image-rendering:auto;shape-rendering:auto;text-rendering:auto;enable-background:accumulate;stop-color:#000000;stop-opacity:1"
         d="m 394.55547,126.7759 c -10.75547,0 -19.50788,8.61317 -19.50791,19.22947 0,10.61635 8.75244,19.22728 19.50791,19.22728 10.75555,0 19.5109,-8.61093 19.5109,-19.22728 0,-10.6163 -8.75538,-19.22947 -19.5109,-19.22947 z m 0,1.885 c 9.75177,0 17.62292,7.76291 17.62292,17.34447 5e-5,9.58161 -7.87115,17.34225 -17.62292,17.34225 -9.75173,0 -17.62364,-7.76064 -17.62364,-17.34225 0,-9.58156 7.87191,-17.34447 17.62364,-17.34447 z m 5.48417,4.3586 v 2.53103 c -0.32046,-0.50987 -0.78508,-0.7646 -1.39519,-0.7646 -0.58545,0 -1.06978,0.2095 -1.45187,0.62833 -0.38209,0.41883 -0.57309,0.9924 -0.57309,1.72075 0,0.64944 0.18225,1.2077 0.54586,1.67507 0.36976,0.46736 0.85945,0.70128 1.46956,0.70128 0.62241,0 1.09041,-0.25828 1.40473,-0.77423 v 0.71969 h 1.3502 v -6.43732 z m -12.22937,1.77526 c -0.58546,0 -1.06033,0.21579 -1.42391,0.64677 -0.35746,0.42485 -0.53626,0.96501 -0.53626,1.62053 0,0.74053 0.18492,1.29876 0.55468,1.67507 0.37593,0.37636 0.82302,0.56501 1.34064,0.56501 0.59165,0 1.02311,-0.20675 1.29423,-0.6195 v 0.30937 c 4e-5,0.36418 -0.0928,0.63151 -0.27769,0.80145 -0.18488,0.16994 -0.48014,0.25488 -0.88686,0.25488 -0.6286,0 -1.15903,-0.16984 -1.59037,-0.50976 v 1.35611 c 0.49297,0.23067 1.06941,0.34623 1.72882,0.34623 0.67792,0 1.24142,-0.18793 1.69128,-0.56426 0.44991,-0.37024 0.67548,-0.92571 0.67548,-1.66624 v -4.16999 h -1.34066 v 0.60992 c -0.26498,-0.437 -0.67475,-0.65559 -1.22938,-0.65559 z m 5.40753,0 c -0.58549,0 -1.05957,0.21579 -1.42318,0.64677 -0.35742,0.42485 -0.53623,0.96501 -0.53623,1.62053 0,0.74053 0.18488,1.29876 0.55468,1.67507 0.3759,0.37636 0.82226,0.56501 1.3399,0.56501 0.59163,0 1.02309,-0.20675 1.29423,-0.6195 v 0.30937 c 0,0.36418 -0.0921,0.63151 -0.27695,0.80145 -0.18492,0.16994 -0.4809,0.25488 -0.88767,0.25488 -0.62855,0 -1.15822,-0.16984 -1.5896,-0.50976 v 1.35611 c 0.49301,0.23067 1.06872,0.34623 1.7281,0.34623 0.67792,0 1.24214,-0.18793 1.69205,-0.56426 0.44986,-0.37024 0.67471,-0.92571 0.67471,-1.66624 v -4.16999 h -1.34064 v 0.60992 c -0.265,-0.437 -0.67477,-0.65559 -1.2294,-0.65559 z m 5.77729,1.09312 c 0.28351,0 0.52737,0.10574 0.73073,0.31825 0.20954,0.21244 0.31382,0.50963 0.31382,0.89203 0,0.39453 -0.0956,0.71058 -0.28656,0.94732 -0.19102,0.23671 -0.44024,0.35505 -0.74841,0.35505 -0.28347,0 -0.52394,-0.1121 -0.72115,-0.33664 -0.1972,-0.23067 -0.29539,-0.53141 -0.29539,-0.90161 0,-0.40062 0.0955,-0.71316 0.28656,-0.93775 0.19722,-0.22456 0.43693,-0.33665 0.7204,-0.33665 z m -10.87028,0.0178 c 0.6101,0 0.91484,0.41279 0.91484,1.23826 4e-5,0.30349 -0.0833,0.56452 -0.24971,0.78303 -0.1602,0.21245 -0.38511,0.31897 -0.67472,0.31897 -0.27732,0 -0.49003,-0.10021 -0.63791,-0.30055 -0.14791,-0.20032 -0.22172,-0.49196 -0.22172,-0.87436 0,-0.36417 0.0772,-0.6496 0.23131,-0.85597 0.15406,-0.20634 0.36673,-0.30938 0.63791,-0.30938 z m 5.40753,0 c 0.61008,0 0.91486,0.41279 0.91486,1.23826 0,0.30349 -0.0833,0.56452 -0.24972,0.78303 -0.16021,0.21245 -0.3851,0.31897 -0.67472,0.31897 -0.27736,0 -0.49004,-0.10021 -0.63791,-0.30055 -0.14792,-0.20032 -0.22173,-0.49196 -0.22173,-0.87436 0,-0.36417 0.0772,-0.6496 0.23131,-0.85597 0.15403,-0.20634 0.36674,-0.30938 0.63791,-0.30938 z m 9.60404,2.00289 c -0.22803,0 -0.42169,0.0793 -0.58194,0.23719 -0.16021,0.15781 -0.24013,0.34852 -0.24013,0.57308 0,0.22459 0.0799,0.41599 0.24013,0.57383 0.16025,0.1578 0.35391,0.23644 0.58194,0.23644 0.22802,0 0.42245,-0.0786 0.58266,-0.23644 0.16025,-0.15784 0.24012,-0.34924 0.24012,-0.57383 0,-0.22456 -0.0799,-0.41527 -0.24012,-0.57308 -0.16021,-0.15784 -0.35464,-0.23719 -0.58266,-0.23719 z m -13.71441,5.64691 c -2.26534,0.0256 -4.3132,1.37875 -5.01341,3.42679 -0.32039,0.93616 -0.3305,2.4973 -0.0249,3.82011 0.46359,2.00767 1.63808,3.47467 4.82563,6.02481 0.21901,0.17537 0.47626,0.38349 0.57232,0.46257 0.0953,0.0792 0.54299,0.44301 0.99448,0.80809 1.05816,0.85578 2.02057,1.66069 2.9737,2.4861 v 0 c 0.41906,0.36285 0.7861,0.66001 0.81544,0.66001 0.0291,0 0.23421,-0.1632 0.45673,-0.36244 0.74324,-0.66605 1.69001,-1.45969 3.31699,-2.7822 3.90698,-3.17556 4.70939,-3.93002 5.4996,-5.17182 0.75891,-1.19266 1.1138,-2.54923 1.1138,-4.25474 0,-1.51787 -0.54185,-2.77262 -1.61469,-3.74275 -1.5806,-1.42929 -4.10293,-1.78279 -6.11468,-0.85671 -1.00636,0.4633 -1.86939,1.20654 -2.60469,2.24303 -0.06,0.0855 -0.0647,0.0857 -0.12448,0.003 -1.14432,-1.57142 -2.44888,-2.42967 -4.09121,-2.69088 -0.32921,-0.0524 -0.65681,-0.0758 -0.98045,-0.0722 z" />
      <g
         aria-label="843"
         id="g2141"
         style="font-style:normal;font-variant:normal;font-weight:bold;font-stretch:normal;font-size:6.56641px;line-height:1.25;font-family:'VCR OSD Mono';-inkscape-font-specification:'VCR OSD Mono Bold';text-decoration:none;text-decoration-line:none;text-decoration-color:#000000;letter-spacing:0px;word-spacing:0px;fill:#0000ff;stroke-width:0.566208;stop-color:#000000"
         transform="matrix(2.4786349,0,0,3.8123957,56.344966,-155.19701)">
        <path
           d="m 20.889507,59.494357 h 2.528602 v -0.632149 h 0.632152 v -1.270624 h -0.638473 v -0.625829 h -2.522281 v 0.632152 h -0.632149 v 1.264301 h 0.632149 z m 3.160754,0.632152 v 0.632149 h -3.792903 v -0.632149 h -0.632152 v -0.632152 h -0.632149 v -2.528602 h 0.632149 v -1.264301 h -0.632149 v -2.528602 h 0.632149 v -0.632149 h 0.632152 v -0.632152 h 3.792903 v 0.632152 h 0.632149 v 0.632149 h 0.632152 v 2.528602 H 24.68241 v 0.638473 h -0.0063 v 0.625828 h 0.638452 v 2.528602 H 24.68241 v 0.632152 z m -0.632152,-6.953657 h -2.528602 v 0.632152 h -0.632149 v 1.264301 h 0.632149 v 0.632149 h 2.528602 v -0.625828 h 0.632152 v -1.270622 h -0.632152 z"
           style="font-style:normal;font-variant:normal;font-weight:bold;font-stretch:normal;font-family:'VCR OSD Mono';-inkscape-font-specification:'VCR OSD Mono Bold';fill:#0000ff;stroke-width:1.11635"
           id="path2135" />
        <path
           d="m 29.993325,52.342322 v -0.433771 h 0.86754 v 3.470161 h 0.86754 v 0.86754 h -0.86754 v 1.73508 h -0.86754 v -1.73508 h -2.602621 v -1.735081 h 0.433771 v -0.433769 h 0.433769 v -0.433771 h 0.433771 v -0.433769 h 0.43377 v -0.433771 h 0.43377 v -0.433769 z m 0,3.03639 v -1.735081 h -0.43377 v 0.433771 h -0.43377 v 0.433769 h -0.43377 v 0.433771 h -0.433771 v 0.43377 z"
           style="font-style:normal;font-variant:normal;font-weight:bold;font-stretch:normal;font-family:'VCR OSD Mono';-inkscape-font-specification:'VCR OSD Mono Bold';fill:#0000ff;stroke-width:0.766015"
           id="path2137" />
        <path
           d="m 32.687076,55.756057 h -0.31742 v -0.641251 h 0.641251 v 0.320626 h 0.317419 v 0.320625 h 1.285709 v -0.320625 h 0.320625 v -0.641251 h -0.320625 v -0.320626 h -0.961877 v -0.641251 h 0.961877 v -0.320625 h 0.320625 v -0.641251 h -0.320625 v -0.320626 h -1.282502 v 0.320626 h -0.320626 v 0.320625 h -0.641251 v -0.641251 h 0.320626 v -0.320625 h 0.320625 v -0.320626 h 1.923753 v 0.320626 h 0.320626 v 0.320625 h 0.320625 v 1.282502 h -0.320625 v 0.641251 h 0.320625 v 1.282502 h -0.320625 v 0.320626 H 34.93466 v 0.320625 h -1.923753 v -0.320625 h -0.323831 z"
           style="font-style:normal;font-variant:normal;font-weight:bold;font-stretch:normal;font-family:'VCR OSD Mono';-inkscape-font-specification:'VCR OSD Mono Bold';fill:#0000ff;stroke-width:0.566208"
           id="path2139" />
      </g>
      <g
         aria-label="4KGS"
         transform="matrix(1.3019246,0,0,1.6082912,124.02751,30.086923)"
         id="g2279"
         style="font-style:normal;font-variant:normal;font-weight:bold;font-stretch:normal;font-size:11.2054px;line-height:1.25;font-family:'VCR OSD Mono';-inkscape-font-specification:'VCR OSD Mono Bold';text-decoration:none;text-decoration-line:none;text-decoration-color:#000000;letter-spacing:0px;word-spacing:0px;fill:#0000ff;stroke-width:0.446521;stop-color:#000000">
        <path
           d="m 22.940824,50.072896 v -0.547139 h 1.094277 v 4.37711 h 1.094278 v 1.094277 h -1.094278 v 2.188555 h -1.094277 v -2.188555 h -3.282832 v -2.188555 h 0.547139 v -0.547138 h 0.547138 v -0.547139 h 0.547139 v -0.547139 h 0.547139 v -0.547138 h 0.547138 v -0.547139 z m 0,3.829971 v -2.188555 h -0.547139 v 0.547139 h -0.547138 v 0.547138 h -0.547139 v 0.547139 h -0.547139 v 0.547139 z"
           style="font-style:normal;font-variant:normal;font-weight:bold;font-stretch:normal;font-family:'VCR OSD Mono';-inkscape-font-specification:'VCR OSD Mono Bold';fill:#0000ff;stroke-width:0.446521"
           id="path2271" />
        <path
           d="m 27.317934,53.902867 v 3.282832 h -1.094278 v -7.659942 h 1.094278 v 3.282832 h 0.547138 v -0.547138 h 0.547139 v -0.547139 h 0.547139 v -0.547139 h 0.547138 v -0.547138 h 0.547139 v -0.547139 h 0.547139 v -0.547139 h 1.094277 v 1.094278 h -0.547139 v 0.547138 h -0.547138 v 0.547139 h -0.547139 v 0.547139 h -0.547139 v 0.547138 H 28.95935 v 1.094278 h 0.547138 v 0.547139 h 0.547139 v 0.547138 h 0.547139 v 0.547139 h 0.547138 v 0.547139 h 0.547139 v 1.094277 H 30.600766 V 56.63856 H 30.053627 V 56.091422 H 29.506488 V 55.544283 H 28.95935 v -0.547139 h -0.547139 v -0.547138 h -0.547139 v -0.547139 z"
           style="font-style:normal;font-variant:normal;font-weight:bold;font-stretch:normal;font-family:'VCR OSD Mono';-inkscape-font-specification:'VCR OSD Mono Bold';fill:#0000ff;stroke-width:0.446521"
           id="path2273" />
        <path
           d="m 37.71904,50.620035 h 0.547139 v 1.094277 h -1.094278 v -0.547139 h -0.547138 v -0.547138 h -2.188555 v 0.547138 h -0.55261 v 0.547139 h 0.01094 v 1.094277 h -0.0055 v 2.188555 h -0.0055 v 0.547139 h 0.55261 v 0.547139 h 1.641416 v 0.0055 h 0.547139 v -0.55261 h 0.547138 v -1.641416 h -1.641416 v -1.094278 h 2.735694 v 3.282833 H 37.71904 v 0.547138 h -0.547139 v 0.55261 h -1.094277 v -0.0055 H 33.889069 V 56.63856 H 33.341931 V 56.091422 H 32.78932 v -1.094278 h 0.0055 v -2.188555 h 0.0055 v -1.094277 h -0.01094 v -1.094277 h 0.552611 v -0.547139 h 0.55261 v -0.547139 h 3.27736 v 0.547139 H 37.7191 Z"
           style="font-style:normal;font-variant:normal;font-weight:bold;font-stretch:normal;font-family:'VCR OSD Mono';-inkscape-font-specification:'VCR OSD Mono Bold';fill:#0000ff;stroke-width:0.446521"
           id="path2275" />
        <path
           d="m 48.568651,51.572024 h 1.023133 v 2.046264 H 47.54552 v -1.023133 h -1.023134 v -1.023131 h -4.092531 v 1.023131 h -1.023133 v 2.046267 h 1.023133 v 1.023131 h 5.115665 v 1.023133 h 1.023131 v 1.023134 h 1.023133 v 4.092531 h -1.023133 v 1.023131 H 47.54552 v 1.023134 H 41.406722 V 62.826482 H 40.38359 v -1.023131 h -1.023133 v -2.046267 h 2.046265 v 1.023134 h 1.023133 v 1.023133 h 4.092531 V 60.780218 H 47.54552 V 58.733953 H 46.522386 V 57.71082 H 41.406722 V 56.687686 H 40.38359 V 55.664553 H 39.360457 V 51.572024 H 40.38359 V 50.54889 h 1.023132 v -1.023133 h 6.138798 v 1.023133 h 1.023131 z"
           style="font-style:normal;font-variant:normal;font-weight:bold;font-stretch:normal;font-family:'VCR OSD Mono';-inkscape-font-specification:'VCR OSD Mono Bold';fill:#0000ff;stroke-width:0.834981"
           id="path2277" />
      </g>
      <rect
         style="vector-effect:none;fill:#0000ff;fill-opacity:1;fill-rule:evenodd;stroke:none;stroke-width:0.0390803;stroke-linecap:round;stroke-linejoin:round;stroke-miterlimit:4;stroke-dasharray:none;stroke-dashoffset:0;stroke-opacity:1"
         id="rect2420"
         width="2.4098294"
         height="17.036366"
         x="269.31226"
         y="94.153763" />
    </g>
  </g>
</svg>
