<?xml version="1.0" encoding="UTF-8" standalone="no"?>
<svg
   xmlns:dc="http://purl.org/dc/elements/1.1/"
   xmlns:cc="http://creativecommons.org/ns#"
   xmlns:rdf="http://www.w3.org/1999/02/22-rdf-syntax-ns#"
   xmlns:svg="http://www.w3.org/2000/svg"
   xmlns="http://www.w3.org/2000/svg"
   xmlns:sodipodi="http://sodipodi.sourceforge.net/DTD/sodipodi-0.dtd"
   xmlns:inkscape="http://www.inkscape.org/namespaces/inkscape"
   width="729.35687mm"
   height="465.77878mm"
   viewBox="0 0 729.35687 465.77878"
   version="1.1"
   id="svg8"
   inkscape:version="1.0.1 (3bc2e813f5, 2020-09-07)"
   sodipodi:docname="MotifsBurgundy.svg">
  <defs
     id="defs2" />
  <sodipodi:namedview
     id="base"
     pagecolor="#ffffff"
     bordercolor="#666666"
     borderopacity="1.0"
     inkscape:pageopacity="0.0"
     inkscape:pageshadow="2"
     inkscape:zoom="0.35"
     inkscape:cx="1556.8837"
     inkscape:cy="731.64043"
     inkscape:document-units="px"
     inkscape:current-layer="layer1"
     showgrid="false"
     inkscape:window-width="1920"
     inkscape:window-height="1057"
     inkscape:window-x="1912"
     inkscape:window-y="-8"
     inkscape:window-maximized="1"
     inkscape:document-rotation="0" />
  <metadata
     id="metadata5">
    <rdf:RDF>
      <cc:Work
         rdf:about="">
        <dc:format>image/svg+xml</dc:format>
        <dc:type
           rdf:resource="http://purl.org/dc/dcmitype/StillImage" />
        <dc:title></dc:title>
      </cc:Work>
    </rdf:RDF>
  </metadata>
  <g
     inkscape:label="Layer 1"
     inkscape:groupmode="layer"
     id="layer1"
     transform="translate(428.9344,45.413196)">
    <g
       id="g5967"
       style="fill:#0000ff"
       transform="translate(-367.64391,37.395407)">
      <path
         id="path1960"
         style="color:#000000;font-style:normal;font-variant:normal;font-weight:normal;font-stretch:normal;font-size:medium;line-height:normal;font-family:sans-serif;font-variant-ligatures:normal;font-variant-position:normal;font-variant-caps:normal;font-variant-numeric:normal;font-variant-alternates:normal;font-variant-east-asian:normal;font-feature-settings:normal;font-variation-settings:normal;text-indent:0;text-align:start;text-decoration:none;text-decoration-line:none;text-decoration-style:solid;text-decoration-color:#000000;letter-spacing:normal;word-spacing:normal;text-transform:none;writing-mode:lr-tb;direction:ltr;text-orientation:mixed;dominant-baseline:auto;baseline-shift:baseline;text-anchor:start;white-space:normal;shape-padding:0;shape-margin:0;inline-size:0;clip-rule:nonzero;display:inline;overflow:visible;visibility:visible;isolation:auto;mix-blend-mode:normal;color-interpolation:sRGB;color-interpolation-filters:linearRGB;solid-color:#000000;solid-opacity:1;vector-effect:none;fill:#0000ff;fill-opacity:1;fill-rule:evenodd;stroke:none;stroke-width:2.22053;stroke-linecap:round;stroke-linejoin:round;stroke-miterlimit:4;stroke-dasharray:none;stroke-dashoffset:0;stroke-opacity:1;color-rendering:auto;image-rendering:auto;shape-rendering:auto;text-rendering:auto;enable-background:accumulate;stop-color:#000000"
         d="m 165.44713,301.73168 v 0.002 0.002 l -33.60223,0.002 v 1.29457 78.18755 h 33.74658 c 3.29799,0 5.96047,-0.1213 8.02927,-0.39523 2.84535,-0.37097 5.43772,-1.17724 7.75308,-2.40925 0,-0.002 0.0165,-0.005 0.0165,-0.0104 0.30912,-0.16487 0.60128,-0.35722 0.90002,-0.53725 0.26844,-0.16081 0.54464,-0.30914 0.8047,-0.48287 0,-0.002 0,0 0.0165,-0.002 0.54004,-0.36043 1.06115,-0.74917 1.56531,-1.16204 0.38102,-0.31188 0.74298,-0.65253 1.10295,-0.99399 0.12344,-0.1172 0.25331,-0.22212 0.37428,-0.34303 0,-0.002 0,-6.7e-4 0.0165,-0.0104 0.47107,-0.47025 0.92469,-0.9684 1.35741,-1.49104 2.05053,-2.47373 3.52003,-5.287 4.4439,-8.3756 0.48737,-2.07225 0.73855,-4.26864 0.73855,-6.59117 0,-0.49791 -0.0165,-0.98434 -0.0329,-1.45551 0,-0.0779 -0.0181,-0.18593 -0.0313,-0.34576 0,-0.005 0,-0.0132 0,-0.0182 -0.0181,-0.32654 -0.0494,-0.65336 -0.0839,-0.98219 0,-0.005 0,-0.005 0,-0.0104 -0.0181,-0.17173 -0.0461,-0.3595 -0.0708,-0.57036 0,-0.005 0,-0.005 0,-0.0104 -0.0313,-0.25143 -0.0642,-0.49878 -0.10205,-0.73601 -0.0313,-0.19373 -0.0692,-0.3902 -0.10701,-0.59877 -0.0412,-0.22165 -0.0889,-0.44606 -0.13662,-0.66508 -0.0461,-0.21386 -0.0955,-0.42226 -0.14649,-0.62715 -0.0494,-0.19784 -0.10043,-0.39065 -0.15142,-0.57507 -0.0642,-0.22578 -0.1251,-0.44059 -0.19094,-0.64612 -0.0461,-0.14057 -0.10702,-0.30502 -0.17365,-0.497 -0.0855,-0.24594 -0.15636,-0.46934 -0.22993,-0.66027 -0.051,-0.13464 -0.11686,-0.28531 -0.18813,-0.45918 -0.0937,-0.22759 -0.18188,-0.43964 -0.27158,-0.63661 -0.27077,-0.59162 -0.32937,-1.10735 -0.66529,-1.67796 -0.21151,-0.3595 -1.22576,-2.56422 -2.06913,-3.91208 -0.4314,-0.68991 -0.72126,-1.23605 -0.87548,-1.62829 -1.1148,-1.11963 -2.3644,-2.13615 -3.74931,-3.03645 l -0.861,-0.56089 0.80224,-0.64844 c 4.26168,-3.44143 6.86772,-8.1473 6.86772,-14.32309 0,-4.17431 -0.97489,-8.00747 -2.90558,-11.3955 v -0.0104 c -1.66704,-2.9923 -3.95456,-5.37288 -6.78938,-7.05882 v -0.0104 c -3.3905,-2.04871 -8.37164,-2.9323 -15.08052,-2.9323 z m 115.18978,0.005 v 48.05278 c 0,3.13198 -0.46727,5.52966 -1.29864,7.22781 l -0.0165,0.0104 c -0.73673,1.44744 -1.71427,2.56263 -3.02048,3.28019 -1.30606,0.71764 -2.90231,1.03424 -4.88897,1.03424 -3.22886,0 -5.42718,-0.94884 -6.89456,-2.75006 -1.48448,-1.82192 -2.32605,-4.70046 -2.32605,-8.80166 V 301.7389 h -22.18016 v 35.85024 c 0.60078,1.66644 0.93853,4.86749 1.1739,7.9047 0.31915,4.12051 0.27882,5.15457 0.27882,5.15457 l 0.13169,2.26252 c 0.80716,13.798 8.27533,25.06935 17.77575,28.43787 l -0.0279,0.0807 c 3.53862,1.04772 7.54849,1.54067 12.07222,1.54067 8.81192,0 15.67587,-1.85449 20.87689,-6.0823 5.22177,-4.24449 8.66658,-10.29406 9.86368,-17.63165 v -0.0104 c 0.43602,-2.63589 0.64817,-6.02937 0.64817,-10.24294 v -47.2647 h -1.2473 z m -75.33147,0.002 -13.27063,42.51954 c 0.61525,1.00412 1.16992,2.00132 1.21799,2.21044 1.84183,3.41765 2.90313,7.40357 2.90313,11.96352 0,7.00509 -2.06747,13.30976 -6.15601,18.34166 -1.42754,1.7591 -3.07891,3.22923 -4.89391,4.44696 h 17.61431 l 3.16976,-10.92451 h 19.97688 l 3.02527,10.92451 h 22.81646 l -0.24688,-0.79519 c -2.83894,-2.14961 -5.25948,-4.90806 -7.18062,-8.18393 0,-0.0104 -0.0165,-0.0182 -0.0181,-0.0275 -2.51203,-3.6384 -4.22646,-7.93034 -5.00647,-12.71136 -0.45709,-2.76555 -0.66036,-6.23408 -0.66036,-10.49855 v -9.79564 l -11.69809,-37.46905 z m -51.52448,20.66575 8.68733,0.005 c 1.25207,0 2.30268,0.0843 3.05719,0.17036 0.37691,0.0458 0.68454,0.0907 0.9,0.12542 0.10701,0.0182 0.19142,0.0275 0.25692,0.0411 0.0313,0.0104 0.0658,0.0132 0.0922,0.0182 0.0165,0.002 0.023,0.0132 0.0461,0.0132 0.0181,0.002 0.10367,0.0321 0.1054,0.0321 l 0.12509,0.0367 0.0461,0.0473 c 0.76834,0.33707 1.40317,0.75787 1.80001,1.42711 0.42317,0.71329 0.54053,1.58235 0.54053,2.70986 0,1.07834 -0.0955,1.86564 -0.43552,2.52285 -0.30911,0.59815 -0.81738,0.99235 -1.38917,1.27799 l -0.12016,0.15389 h -0.29365 c -0.13167,0.0458 -0.24902,0.0889 -0.4304,0.12772 -0.27751,0.0587 -0.62662,0.1136 -1.05177,0.1681 -0.8503,0.10943 -1.98633,0.20105 -3.34078,0.20105 h -8.59449 v -8.34014 z m 62.36157,12.66638 4.55402,16.75361 h -9.48462 l 4.22136,-14.3396 z m -62.3665,13.98446 h 10.66591 c 0.9298,0 1.72068,0.0367 2.3333,0.0829 0.53181,0.0412 0.84914,0.0879 1.12748,0.14649 0,6.7e-4 0.0165,-6.7e-4 0.0165,0 h 0.0905 l 0.0642,0.023 h 0.0181 c 1.38738,0.33844 2.31783,0.96 2.91762,1.80337 0.61196,0.86022 0.96617,2.06975 0.96617,3.75116 0,1.30763 -0.15308,2.32094 -0.55024,3.15007 -0.39569,0.82536 -1.0358,1.4151 -1.80741,1.84835 l -0.0165,0.0104 -0.023,0.0104 -0.0313,0.0182 c -0.19554,0.10898 -0.35584,0.14879 -0.60176,0.21525 -0.25956,0.0705 -0.58562,0.13875 -0.97818,0.20334 -0.78561,0.1292 -1.83358,0.23678 -3.09884,0.23678 h -11.09123 v -10.75411 z" />
      <g
         id="g1976"
         transform="matrix(3.7736063,0,0,3.7736063,-103.75222,-771.31545)"
         style="fill:#0000ff">
        <path
           style="color:#000000;font-style:normal;font-variant:normal;font-weight:normal;font-stretch:normal;font-size:medium;line-height:normal;font-family:sans-serif;font-variant-ligatures:normal;font-variant-position:normal;font-variant-caps:normal;font-variant-numeric:normal;font-variant-alternates:normal;font-variant-east-asian:normal;font-feature-settings:normal;font-variation-settings:normal;text-indent:0;text-align:start;text-decoration:none;text-decoration-line:none;text-decoration-style:solid;text-decoration-color:#000000;letter-spacing:normal;word-spacing:normal;text-transform:none;writing-mode:lr-tb;direction:ltr;text-orientation:mixed;dominant-baseline:auto;baseline-shift:baseline;text-anchor:start;white-space:normal;shape-padding:0;shape-margin:0;inline-size:0;clip-rule:nonzero;display:inline;overflow:visible;visibility:visible;opacity:1;isolation:auto;mix-blend-mode:normal;color-interpolation:sRGB;color-interpolation-filters:linearRGB;solid-color:#000000;solid-opacity:1;vector-effect:none;fill:#0000ff;fill-opacity:1;fill-rule:evenodd;stroke:none;stroke-width:0.484851;stroke-linecap:round;stroke-linejoin:round;stroke-miterlimit:4;stroke-dasharray:none;stroke-dashoffset:0;stroke-opacity:1;color-rendering:auto;image-rendering:auto;shape-rendering:auto;text-rendering:auto;enable-background:accumulate;stop-color:#000000;stop-opacity:1"
           d="m 64.336938,202.5724 -3.496117,-2.82664 -0.07759,-5.21906 -3.496115,-3.01514 -3.495618,3.01514 3.495618,3.01515 0.07759,5.03055 3.496115,2.82663 0.0771,5.22005 3.496114,-2.82663 z"
           id="path1920" />
        <path
           style="color:#000000;font-style:normal;font-variant:normal;font-weight:normal;font-stretch:normal;font-size:medium;line-height:normal;font-family:sans-serif;font-variant-ligatures:normal;font-variant-position:normal;font-variant-caps:normal;font-variant-numeric:normal;font-variant-alternates:normal;font-variant-east-asian:normal;font-feature-settings:normal;font-variation-settings:normal;text-indent:0;text-align:start;text-decoration:none;text-decoration-line:none;text-decoration-style:solid;text-decoration-color:#000000;letter-spacing:normal;word-spacing:normal;text-transform:none;writing-mode:lr-tb;direction:ltr;text-orientation:mixed;dominant-baseline:auto;baseline-shift:baseline;text-anchor:start;white-space:normal;shape-padding:0;shape-margin:0;inline-size:0;clip-rule:nonzero;display:inline;overflow:visible;visibility:visible;opacity:1;isolation:auto;mix-blend-mode:normal;color-interpolation:sRGB;color-interpolation-filters:linearRGB;solid-color:#000000;solid-opacity:1;vector-effect:none;fill:#0000ff;fill-opacity:1;fill-rule:evenodd;stroke:none;stroke-width:0.484851;stroke-linecap:round;stroke-linejoin:round;stroke-miterlimit:4;stroke-dasharray:none;stroke-dashoffset:0;stroke-opacity:1;color-rendering:auto;image-rendering:auto;shape-rendering:auto;text-rendering:auto;enable-background:accumulate;stop-color:#000000;stop-opacity:1"
           d="m 64.182252,186.48051 3.496115,2.82664 0.0771,5.21955 3.496611,2.82664 0.07759,5.21906 3.495621,-2.82664 -0.0771,-5.21906 -3.496118,-2.82663 -0.07759,-5.21956 -3.496117,-2.82663 z"
           id="path1918" />
        <path
           style="color:#000000;font-style:normal;font-variant:normal;font-weight:normal;font-stretch:normal;font-size:medium;line-height:normal;font-family:sans-serif;font-variant-ligatures:normal;font-variant-position:normal;font-variant-caps:normal;font-variant-numeric:normal;font-variant-alternates:normal;font-variant-east-asian:normal;font-feature-settings:normal;font-variation-settings:normal;text-indent:0;text-align:start;text-decoration:none;text-decoration-line:none;text-decoration-style:solid;text-decoration-color:#000000;letter-spacing:normal;word-spacing:normal;text-transform:none;writing-mode:lr-tb;direction:ltr;text-orientation:mixed;dominant-baseline:auto;baseline-shift:baseline;text-anchor:start;white-space:normal;shape-padding:0;shape-margin:0;inline-size:0;clip-rule:nonzero;display:inline;overflow:visible;visibility:visible;opacity:1;isolation:auto;mix-blend-mode:normal;color-interpolation:sRGB;color-interpolation-filters:linearRGB;solid-color:#000000;solid-opacity:1;vector-effect:none;fill:#0000ff;fill-opacity:1;fill-rule:evenodd;stroke:none;stroke-width:0.484851;stroke-linecap:round;stroke-linejoin:round;stroke-miterlimit:4;stroke-dasharray:none;stroke-dashoffset:0;stroke-opacity:1;color-rendering:auto;image-rendering:auto;shape-rendering:auto;text-rendering:auto;enable-background:accumulate;stop-color:#000000;stop-opacity:1"
           d="m 60.686134,183.46537 -3.495618,3.01514 3.495618,3.01515 0.07709,5.03104 3.496117,2.82664 0.07759,5.21906 3.496614,2.82663 0.07709,5.22005 3.495619,-2.82663 -0.0766,-5.22005 -3.496614,-2.82664 -0.07759,-5.21906 -3.496118,-2.82663 -0.07709,-5.21956 z"
           id="path2957" />
      </g>
      <g
         id="g1802"
         transform="matrix(6.3988985,0,0,6.3988985,-2852.727,-1847.3083)"
         style="fill:#0000ff">
        <path
           sodipodi:type="star"
           style="fill:#0000ff;fill-opacity:1;stroke:none;stroke-width:0.019813;stroke-linecap:round;stroke-linejoin:round;stroke-miterlimit:4;stroke-dasharray:none;paint-order:stroke fill markers;stop-color:#000000"
           id="path1798"
           sodipodi:sides="5"
           sodipodi:cx="53.808685"
           sodipodi:cy="784.96637"
           sodipodi:r1="5.2727714"
           sodipodi:r2="1.8581206"
           sodipodi:arg1="-1.5707963"
           sodipodi:arg2="-0.94247777"
           inkscape:flatsided="false"
           inkscape:rounded="0.14"
           inkscape:randomized="0"
           inkscape:transform-center-x="2.9549682e-06"
           inkscape:transform-center-y="-0.85244405"
           transform="matrix(0.55153989,0,0,0.52993343,449.60724,-117.68295)"
           d="m 53.808685,779.6936 c 0.549438,0 0.647672,3.44657 1.092176,3.76952 0.444505,0.32295 3.752742,-0.64867 3.922528,-0.12613 0.169785,0.52255 -3.07774,1.68102 -3.247526,2.20357 -0.169786,0.52255 1.776584,3.36862 1.332079,3.69157 -0.444504,0.32295 -2.549819,-2.40764 -3.099257,-2.40764 -0.549437,0 -2.654753,2.73059 -3.099257,2.40764 -0.444504,-0.32295 1.501865,-3.16902 1.33208,-3.69157 -0.169786,-0.52255 -3.417312,-1.68102 -3.247526,-2.20357 0.169785,-0.52254 3.478023,0.44908 3.922527,0.12613 0.444505,-0.32295 0.542739,-3.76952 1.092176,-3.76952 z" />
        <path
           sodipodi:type="star"
           style="fill:#0000ff;fill-opacity:1;stroke:none;stroke-width:0.019813;stroke-linecap:round;stroke-linejoin:round;stroke-miterlimit:4;stroke-dasharray:none;paint-order:stroke fill markers;stop-color:#000000"
           id="path1800"
           sodipodi:sides="5"
           sodipodi:cx="53.808685"
           sodipodi:cy="784.96637"
           sodipodi:r1="5.2727714"
           sodipodi:r2="1.8581206"
           sodipodi:arg1="-1.5707963"
           sodipodi:arg2="-0.94247777"
           inkscape:flatsided="false"
           inkscape:rounded="0.14"
           inkscape:randomized="0"
           inkscape:transform-center-x="2.9549682e-06"
           inkscape:transform-center-y="-0.85244405"
           transform="matrix(0.55153989,0,0,0.52993343,457.19188,-117.68295)"
           d="m 53.808685,779.6936 c 0.549438,0 0.647672,3.44657 1.092176,3.76952 0.444505,0.32295 3.752742,-0.64867 3.922528,-0.12613 0.169785,0.52255 -3.07774,1.68102 -3.247526,2.20357 -0.169786,0.52255 1.776584,3.36862 1.332079,3.69157 -0.444504,0.32295 -2.549819,-2.40764 -3.099257,-2.40764 -0.549437,0 -2.654753,2.73059 -3.099257,2.40764 -0.444504,-0.32295 1.501865,-3.16902 1.33208,-3.69157 -0.169786,-0.52255 -3.417312,-1.68102 -3.247526,-2.20357 0.169785,-0.52254 3.478023,0.44908 3.922527,0.12613 0.444505,-0.32295 0.542739,-3.76952 1.092176,-3.76952 z" />
      </g>
      <g
         id="g5321"
         style="fill:#0000ff">
        <path
           id="path1337"
           style="color:#000000;font-style:normal;font-variant:normal;font-weight:normal;font-stretch:normal;font-size:medium;line-height:normal;font-family:sans-serif;font-variant-ligatures:normal;font-variant-position:normal;font-variant-caps:normal;font-variant-numeric:normal;font-variant-alternates:normal;font-variant-east-asian:normal;font-feature-settings:normal;font-variation-settings:normal;text-indent:0;text-align:start;text-decoration:none;text-decoration-line:none;text-decoration-style:solid;text-decoration-color:#000000;letter-spacing:normal;word-spacing:normal;text-transform:none;writing-mode:lr-tb;direction:ltr;text-orientation:mixed;dominant-baseline:auto;baseline-shift:baseline;text-anchor:start;white-space:normal;shape-padding:0;shape-margin:0;inline-size:0;clip-rule:nonzero;display:inline;overflow:visible;visibility:visible;isolation:auto;mix-blend-mode:normal;color-interpolation:sRGB;color-interpolation-filters:linearRGB;solid-color:#000000;solid-opacity:1;vector-effect:none;fill:#0000ff;fill-opacity:1;fill-rule:evenodd;stroke:none;stroke-width:1.23556;stroke-linecap:round;stroke-linejoin:round;stroke-miterlimit:4;stroke-dasharray:none;stroke-dashoffset:0;stroke-opacity:1;color-rendering:auto;image-rendering:auto;shape-rendering:auto;text-rendering:auto;enable-background:accumulate;stop-color:#000000"
           d="m 321.93607,228.57345 c -2.70945,0 -4.5559,2.05552 -4.5559,5.06984 0,2.93467 1.85771,5.07395 4.39948,5.07395 1.26443,0 2.11793,-0.46487 2.84043,-1.55374 l 0.2319,1.27455 h 1.15994 v -5.23175 h -3.76563 v 1.65893 h 2.14034 c -0.16768,1.83251 -1.90847,2.15257 -2.38589,2.15257 -1.56117,0 -2.68392,-1.40829 -2.68392,-3.40014 0,-2.08477 0.99408,-3.34618 2.63272,-3.34618 1.34183,0 1.97467,0.7304 2.24559,1.55373 h 1.81679 c -0.23245,-1.9919 -1.80507,-3.25176 -4.07585,-3.25176 z m 9.78107,0 c -2.70956,0 -4.556,2.05552 -4.556,5.06984 0,2.93467 1.85643,5.07395 4.39819,5.07395 1.26443,0 2.11782,-0.46487 2.84035,-1.55374 l 0.23345,1.27455 h 1.15992 v -5.23175 h -3.76837 v 1.65893 h 2.1431 c -0.16761,1.83251 -1.90983,2.15257 -2.38718,2.15257 -1.56125,0 -2.68537,-1.40829 -2.68537,-3.40014 0,-2.08477 0.99681,-3.34618 2.63547,-3.34618 1.34181,0 1.9733,0.7304 2.24429,1.55373 h 1.81806 c -0.23245,-1.9919 -1.80506,-3.25176 -4.07582,-3.25176 z m 55.19526,0 c -2.70946,0 -4.55326,2.05552 -4.55326,5.06984 0,2.93467 1.85643,5.07395 4.39821,5.07395 1.26443,0 2.11517,-0.46487 2.83768,-1.55374 l 0.23345,1.27455 h 1.16123 v -5.23175 h -3.76693 v 1.65893 h 2.14173 c -0.1677,1.83251 -1.90983,2.15257 -2.38726,2.15257 -1.56117,0 -2.68391,-1.40829 -2.68391,-3.40014 0,-2.08477 0.99407,-3.34618 2.63271,-3.34618 1.34181,0 1.9733,0.7304 2.24429,1.55373 h 1.81807 c -0.23243,-1.9919 -1.80506,-3.25176 -4.07583,-3.25176 z m -49.26089,0.18475 v 9.67985 h 3.67661 c 1.43221,0 2.33634,-0.34544 2.96856,-1.12893 0.74834,-0.90299 1.14775,-2.21657 1.14775,-3.7171 0,-1.48725 -0.39941,-2.8022 -1.14775,-3.71844 -0.63222,-0.78343 -1.52343,-1.11538 -2.96856,-1.11538 z m 15.58583,0 -3.34205,9.67985 h 1.9745 l 0.6312,-1.95164 h 3.52154 l 0.62042,1.95164 h 1.98804 l -3.25183,-9.67985 z m 22.33229,0 v 3.4379 c -0.45161,-0.71704 -1.05744,-1.04796 -1.92191,-1.04796 -1.66438,0 -2.92809,1.64572 -2.92809,3.8102 0,2.0981 1.17329,3.78447 2.92809,3.78447 0.86447,0 1.4703,-0.33201 1.92191,-1.0358 v 0.73104 h 1.80863 v -9.67985 z m 35.9854,0 v 9.67985 h 1.80736 v -4.30247 c 0,-0.82332 0.58028,-1.40807 1.3932,-1.40807 0.83863,0 1.10864,0.55833 1.10864,1.32852 v 4.38202 h 1.80724 v -4.80824 c 0,-1.99189 -1.2777,-2.48167 -2.27121,-2.48167 -0.89023,0 -1.53471,0.37108 -2.03787,1.1545 v -3.54444 z m 31.03017,0 v 1.65894 h 1.80735 v -1.65894 z m -80.25196,0.0663 c -1.17413,0 -2.96856,0.45132 -2.96856,3.0009 v 0.15927 h 1.67776 c 0.0257,-1.00919 0.23216,-1.66029 1.25171,-1.66029 0.7225,0 1.13693,0.45339 1.13693,1.23679 0,0.94277 -0.53001,1.42022 -1.60093,1.42022 h -0.15514 v 1.24894 c 0.63222,0 0.74917,0.0123 1.05872,0.0917 0.6065,0.17253 0.9927,0.7175 0.9927,1.40807 0,0.82328 -0.56573,1.42022 -1.35281,1.42022 -0.85156,0 -1.31866,-0.50478 -1.3703,-1.4742 h -1.75469 c 0.0123,1.88567 1.21378,3.06701 3.08461,3.06701 1.9482,0 3.19916,-1.18055 3.19916,-3.01303 0,-1.10216 -0.46223,-1.81945 -1.4944,-2.33733 0.85156,-0.54447 1.19767,-1.14245 1.19767,-2.00557 0,-1.56694 -1.13484,-2.56258 -2.90243,-2.56258 z m 45.3253,0.66489 v 1.9233 h -0.88876 v 1.23542 h 0.88876 v 4.40903 c 0,1.12869 0.58119,1.6872 1.76823,1.6872 0.39996,0 0.7227,-0.0406 1.04526,-0.14709 v -1.30153 c -0.1807,0.0269 -0.28373,0.0418 -0.41267,0.0418 -0.47744,0 -0.59347,-0.14756 -0.59347,-0.78498 v -3.90457 h 1.00614 v -1.23548 h -1.00614 v -1.92328 z m -68.07293,0.92795 h 1.74251 c 1.45794,0 2.18092,1.0491 2.18092,3.18702 0,2.12465 -0.72298,3.17358 -2.18092,3.17358 h -1.74251 z m 14.68225,0.62446 1.22724,3.7845 h -2.45191 z m 75.84028,0.10404 v 9.2e-4 9.2e-4 c -0.82574,0 -1.54697,0.55878 -1.9341,1.52807 v -1.40804 l -1.80588,-9.1e-4 v 7.17121 h 1.80588 v -3.81151 c 0,-1.08893 0.52945,-1.63195 1.58745,-1.63195 0.19343,0 0.32137,0.0123 0.56646,0.0525 v -1.8855 c -0.10309,-0.0123 -0.16816,-0.0157 -0.21989,-0.0157 z m -34.74597,0.003 c -1.99913,6.1e-4 -3.22472,1.4881 -3.22472,3.89107 0,2.29727 1.21423,3.70496 3.18836,3.70496 1.56117,0 2.82487,-0.91631 3.22483,-2.32387 h -1.78171 c -0.21945,0.57106 -0.72171,0.9023 -1.37974,0.9023 -1.21287,0 -1.40713,-0.91621 -1.44585,-1.88551 h 4.67067 c 0.0123,-0.15954 0.0123,-0.22528 0.0123,-0.3183 0,-3.17282 -1.87064,-3.97019 -3.26391,-3.97065 z m 7.4841,0 c -2.12882,0 -3.43116,1.44632 -3.43116,3.79665 0,2.36365 1.30427,3.79938 3.44599,3.79938 2.11599,0 3.44335,-1.44674 3.44335,-3.74405 0,-2.43008 -1.27764,-3.85198 -3.45818,-3.85198 z m 19.10884,0 c -1.99922,6.1e-4 -3.22619,1.4881 -3.22619,3.89107 0,2.29727 1.21296,3.70496 3.18708,3.70496 1.56118,0 2.82479,-0.91631 3.22474,-2.32387 h -1.78025 c -0.21944,0.57106 -0.72178,0.9023 -1.37982,0.9023 -1.21278,0 -1.40438,-0.91621 -1.44311,-1.88551 h 4.67067 c 0.0123,-0.15954 0.01,-0.22528 0.01,-0.3183 0,-3.17282 -1.86788,-3.97019 -3.26126,-3.97065 z m 13.03133,0 c -0.79991,0 -1.31626,0.27843 -1.90974,1.00883 v -0.89017 h -1.79379 v 7.17122 h 1.80725 V 234.136 c 0,-0.87643 0.46399,-1.40808 1.23815,-1.40808 0.60639,0 0.98052,0.35969 0.98052,0.93065 v 4.7799 h 1.80735 V 234.136 c 0,-0.87643 0.46397,-1.40808 1.23806,-1.40808 0.60647,0 0.97922,0.35969 0.97922,0.93065 v 4.7799 h 1.80725 v -5.07256 c 0,-1.39437 -0.82646,-2.21732 -2.21994,-2.21732 -0.87738,0 -1.49604,0.31917 -2.03797,1.06279 -0.33545,-0.67719 -1.03188,-1.06279 -1.89636,-1.06279 z m 13.70184,0 c -1.99922,6.1e-4 -3.22492,1.4881 -3.22492,3.89107 0,2.29727 1.21168,3.70496 3.18571,3.70496 1.56126,0 2.82624,-0.91631 3.22618,-2.32387 h -1.77894 c -0.21918,0.57106 -0.72307,0.9023 -1.38111,0.9023 -1.21287,0 -1.40575,-0.91621 -1.4445,-1.88551 h 4.66931 c 0.0123,-0.15954 0.0123,-0.22528 0.0123,-0.3183 0,-3.17282 -1.87061,-3.97019 -3.26391,-3.97065 z m -6.10308,0.11867 v 7.17121 h 1.80735 v -7.17121 z m -47.2473,1.30155 c 0.83866,0 1.32799,0.58425 1.40538,1.63328 h -2.77292 c 0.11607,-1.08888 0.56762,-1.63328 1.36754,-1.63328 z m 26.5902,0 c 0.83863,0 1.32926,0.58425 1.40674,1.63328 h -2.77439 c 0.11607,-1.08888 0.56773,-1.63328 1.36765,-1.63328 z m 26.73453,0 c 0.83864,0 1.3279,0.58425 1.40538,1.63328 h -2.77303 c 0.11594,-1.08888 0.56764,-1.63328 1.36765,-1.63328 z m -45.80281,0.0796 c 0.99342,0 1.63737,0.9163 1.63737,2.32387 0,1.34117 -0.66979,2.27126 -1.63737,2.27126 -0.9806,0 -1.64141,-0.93051 -1.64141,-2.29824 0,-1.36781 0.66081,-2.29689 1.64141,-2.29689 z m -28.81024,0.054 c 0.91614,0 1.52005,0.917 1.52005,2.28472 0,1.30135 -0.61682,2.20515 -1.52005,2.20515 -0.90311,0 -1.52406,-0.91884 -1.52406,-2.23346 0,-1.32788 0.62095,-2.25641 1.52406,-2.25641 z m -7.66615,1.1963 v 1.79109 h 3.50938 v -1.79109 z" />
        <g
           id="g5969"
           style="opacity:1;fill:#0000ff;fill-opacity:1">
          <path
             style="color:#000000;font-style:normal;font-variant:normal;font-weight:normal;font-stretch:normal;font-size:medium;line-height:normal;font-family:sans-serif;font-variant-ligatures:normal;font-variant-position:normal;font-variant-caps:normal;font-variant-numeric:normal;font-variant-alternates:normal;font-variant-east-asian:normal;font-feature-settings:normal;font-variation-settings:normal;text-indent:0;text-align:start;text-decoration:none;text-decoration-line:none;text-decoration-style:solid;text-decoration-color:#000000;letter-spacing:normal;word-spacing:normal;text-transform:none;writing-mode:lr-tb;direction:ltr;text-orientation:mixed;dominant-baseline:auto;baseline-shift:baseline;text-anchor:start;white-space:normal;shape-padding:0;shape-margin:0;inline-size:0;clip-rule:nonzero;display:inline;overflow:visible;visibility:visible;isolation:auto;mix-blend-mode:normal;color-interpolation:sRGB;color-interpolation-filters:linearRGB;solid-color:#000000;solid-opacity:1;vector-effect:none;fill:#0000ff;fill-opacity:1;fill-rule:evenodd;stroke:none;stroke-width:1.49114;stroke-linecap:round;stroke-linejoin:round;stroke-miterlimit:4;stroke-dasharray:none;stroke-dashoffset:0;stroke-opacity:1;color-rendering:auto;image-rendering:auto;shape-rendering:auto;text-rendering:auto;enable-background:accumulate;stop-color:#000000;stop-opacity:1"
             d="m 551.88918,74.21082 c -2.65903,0 -4.81404,2.573669 -4.81404,5.751417 v 63.296513 c 0,3.17776 2.15501,5.75141 4.81404,5.75141 h 110.61985 c 2.65903,0 4.81216,-2.57365 4.81216,-5.75141 V 79.962237 c 0,-3.177748 -2.15313,-5.751417 -4.81216,-5.751417 z m 0,0.990377 h 110.61985 c 2.21537,0 3.98714,2.113512 3.98714,4.76104 v 63.296513 c 0,2.64752 -1.77177,4.76516 -3.98714,4.76516 H 551.88918 c -2.21537,0 -3.98714,-2.11764 -3.98714,-4.76516 V 79.962237 c 0,-2.647528 1.77177,-4.76104 3.98714,-4.76104 z"
             id="path5971" />
          <path
             style="color:#000000;font-style:normal;font-variant:normal;font-weight:normal;font-stretch:normal;font-size:medium;line-height:normal;font-family:sans-serif;font-variant-ligatures:normal;font-variant-position:normal;font-variant-caps:normal;font-variant-numeric:normal;font-variant-alternates:normal;font-variant-east-asian:normal;font-feature-settings:normal;font-variation-settings:normal;text-indent:0;text-align:start;text-decoration:none;text-decoration-line:none;text-decoration-style:solid;text-decoration-color:#000000;letter-spacing:normal;word-spacing:normal;text-transform:none;writing-mode:lr-tb;direction:ltr;text-orientation:mixed;dominant-baseline:auto;baseline-shift:baseline;text-anchor:start;white-space:normal;shape-padding:0;shape-margin:0;inline-size:0;clip-rule:nonzero;display:inline;overflow:visible;visibility:visible;isolation:auto;mix-blend-mode:normal;color-interpolation:sRGB;color-interpolation-filters:linearRGB;solid-color:#000000;solid-opacity:1;vector-effect:none;fill:#0000ff;fill-opacity:1;fill-rule:evenodd;stroke:none;stroke-width:1.49114;stroke-linecap:round;stroke-linejoin:round;stroke-miterlimit:4;stroke-dasharray:none;stroke-dashoffset:0;stroke-opacity:1;color-rendering:auto;image-rendering:auto;shape-rendering:auto;text-rendering:auto;enable-background:accumulate;stop-color:#000000;stop-opacity:1"
             d="m 551.88867,73.464844 c -3.14012,0 -5.55859,2.983223 -5.55859,6.498047 v 63.294919 c 0,3.51484 2.41848,6.49805 5.55859,6.49805 h 110.6211 c 3.14011,0 5.55664,-2.98351 5.55664,-6.49805 V 79.962891 c 0,-3.51453 -2.41652,-6.498047 -5.55664,-6.498047 z m 0,2.482422 h 110.6211 c 1.74117,0 3.24023,1.700729 3.24023,4.015625 v 63.294919 c 0,2.31489 -1.49998,4.02149 -3.24023,4.02149 h -110.6211 c -1.74025,0 -3.24023,-1.7066 -3.24023,-4.02149 V 79.962891 c 0,-2.314896 1.49906,-4.015625 3.24023,-4.015625 z"
             id="path5973" />
        </g>
        <g
           aria-label="KOMPETENT"
           transform="matrix(3.742994,0,0,26.94247,-1126.8891,-2574.8417)"
           id="g1715"
           style="font-style:normal;font-variant:normal;font-weight:bold;font-stretch:normal;font-size:4.30355px;line-height:1.25;font-family:FreeSans;-inkscape-font-specification:'FreeSans Bold';text-align:start;text-decoration:none;text-decoration-line:none;text-decoration-color:#000000;letter-spacing:0px;word-spacing:0px;text-anchor:start;white-space:pre;inline-size:172.917;fill:#0000ff;fill-opacity:1;stroke-width:0.042278;stop-color:#000000">
          <path
             d="m 285.33704,95.887098 0.32277,-0.335677 1.02855,1.385743 h 0.77033 l -1.38574,-1.785973 1.25233,-1.351314 h -0.76173 l -1.22651,1.377135 v -1.377135 h -0.64553 v 3.137287 h 0.64553 z"
             style="fill:#0000ff;fill-opacity:1;stroke-width:0.042278;stop-color:#000000"
             id="path1697" />
          <path
             d="m 287.43716,95.39219 c 0,0.955388 0.58959,1.643956 1.51055,1.643956 0.94248,0 1.51054,-0.722996 1.51054,-1.622438 0,-0.998424 -0.6068,-1.665474 -1.51485,-1.665474 -0.91235,0 -1.50624,0.688568 -1.50624,1.643956 z m 1.51055,-1.093102 c 0.52933,0 0.86501,0.430355 0.86501,1.110316 0,0.641229 -0.34859,1.075888 -0.86501,1.075888 -0.52073,0 -0.86502,-0.434659 -0.86502,-1.093102 0,-0.658443 0.34429,-1.093102 0.86502,-1.093102 z"
             style="fill:#0000ff;fill-opacity:1;stroke-width:0.042278;stop-color:#000000"
             id="path1699" />
          <path
             d="m 291.41364,94.492748 0.56376,2.444416 h 0.64554 l 0.55515,-2.444416 v 2.444416 h 0.64554 v -3.137287 h -0.97261 l -0.55085,2.496058 -0.56807,-2.496058 h -0.96399 v 3.137287 h 0.64553 z"
             style="fill:#0000ff;fill-opacity:1;stroke-width:0.042278;stop-color:#000000"
             id="path1701" />
          <path
             d="m 295.04152,95.818241 h 0.80477 c 0.57667,0 0.94678,-0.408837 0.94678,-1.045762 0,-0.628318 -0.3572,-0.972602 -1.01134,-0.972602 h -1.38574 v 3.137287 h 0.64553 z m 0,-0.537943 V 94.33782 h 0.6025 c 0.34428,0 0.50352,0.150624 0.50352,0.473391 0,0.318462 -0.15924,0.469087 -0.50352,0.469087 z"
             style="fill:#0000ff;fill-opacity:1;stroke-width:0.042278;stop-color:#000000"
             id="path1703" />
          <path
             d="m 297.73124,95.58585 h 1.50194 v -0.537944 h -1.50194 V 94.33782 h 1.62244 v -0.537943 h -2.26797 v 3.137287 h 2.34543 v -0.537943 h -1.6999 z"
             style="fill:#0000ff;fill-opacity:1;stroke-width:0.042278;stop-color:#000000"
             id="path1705" />
          <path
             d="m 301.18699,94.33782 h 0.91665 v -0.537943 h -2.51327 v 0.537943 h 0.95109 v 2.599344 h 0.64553 z"
             style="fill:#0000ff;fill-opacity:1;stroke-width:0.042278;stop-color:#000000"
             id="path1707" />
          <path
             d="m 302.99446,95.58585 h 1.50194 v -0.537944 h -1.50194 V 94.33782 h 1.62244 v -0.537943 h -2.26797 v 3.137287 h 2.34544 v -0.537943 h -1.69991 z"
             style="fill:#0000ff;fill-opacity:1;stroke-width:0.042278;stop-color:#000000"
             id="path1709" />
          <path
             d="m 306.90639,96.937164 h 0.64553 v -3.137287 h -0.64553 v 2.13456 l -1.24373,-2.13456 h -0.66275 v 3.137287 h 0.64554 v -2.168989 z"
             style="fill:#0000ff;fill-opacity:1;stroke-width:0.042278;stop-color:#000000"
             id="path1711" />
          <path
             d="m 309.38522,94.33782 h 0.91666 v -0.537943 h -2.51327 v 0.537943 h 0.95108 v 2.599344 h 0.64553 z"
             style="fill:#0000ff;fill-opacity:1;stroke-width:0.042278;stop-color:#000000"
             id="path1713" />
        </g>
        <path
           id="path2225"
           style="font-style:normal;font-variant:normal;font-weight:bold;font-stretch:normal;font-size:20.2951px;line-height:1.25;font-family:FreeSans;-inkscape-font-specification:'FreeSans Bold';text-decoration:none;text-decoration-line:none;text-decoration-color:#000000;letter-spacing:0px;word-spacing:0px;fill:#0000ff;stroke:none;stroke-width:1.178"
           d="m 290.23492,155.36206 -4.87604,-76.678571 h 8.4327 l 2.70193,45.266971 h 15.04779 l 2.64715,-45.266971 h 8.48886 l -4.7441,76.678571 z m 34.81165,0 v -28.33797 h 15.65556 V 78.683489 h 7.7169 v 48.340601 h 4.08022 v 28.33797 z m 32.32168,0 c 1.87362,-52.25745 8.28784,-83.766988 17.62057,-83.766988 9.97738,0 16.64728,32.339588 17.14339,83.766988 h -8.04816 c -0.49608,-28.63924 -3.74836,-44.96116 -8.87486,-44.96116 -4.78886,0 -8.09271,16.23973 -9.45028,44.96116 z" />
        <g
           aria-label="*"
           transform="matrix(3.3349579,0,0,3.3898506,-500.02527,53.69433)"
           id="g2283"
           style="font-weight:bold;font-size:8.45304px;line-height:0.5;font-family:'Californian FB';-inkscape-font-specification:'Californian FB Bold';text-decoration:none;text-decoration-line:none;text-decoration-color:#000000;letter-spacing:0px;word-spacing:0px;fill:#0000ff;stroke-width:0.264583;stop-color:#000000">
          <path
             d="m 178.66064,44.259776 v 0.589479 h -0.58948 v -1.178956 h 0.58948 v -0.589477 h 0.58949 v -0.589477 h -0.58949 v -0.589477 h -0.58948 v -1.178954 h 0.58948 v 0.589477 h 0.58949 v 0.589477 h 0.58947 v -1.768432 h 1.17895 v 1.768432 h 0.58948 v -0.589477 h 0.58948 v -0.589477 h 0.58947 v 1.178954 h -0.58947 v 0.589477 h -0.58948 v 0.589477 h 0.58948 v 0.589477 h 0.58947 v 1.178956 h -0.58947 v -0.589479 h -0.58948 v -0.589477 h -0.58948 v 1.768433 h -1.17895 v -1.768433 h -0.58947 v 0.589477 z"
             style="font-style:normal;font-variant:normal;font-weight:bold;font-stretch:normal;font-family:'VCR OSD Mono';-inkscape-font-specification:'VCR OSD Mono Bold';fill:#0000ff;stroke-width:0.264582"
             id="path2281" />
        </g>
        <path
           id="path1345"
           style="color:#000000;font-style:normal;font-variant:normal;font-weight:normal;font-stretch:normal;font-size:medium;line-height:normal;font-family:sans-serif;font-variant-ligatures:normal;font-variant-position:normal;font-variant-caps:normal;font-variant-numeric:normal;font-variant-alternates:normal;font-variant-east-asian:normal;font-feature-settings:normal;font-variation-settings:normal;text-indent:0;text-align:start;text-decoration:none;text-decoration-line:none;text-decoration-style:solid;text-decoration-color:#000000;letter-spacing:normal;word-spacing:normal;text-transform:none;writing-mode:lr-tb;direction:ltr;text-orientation:mixed;dominant-baseline:auto;baseline-shift:baseline;text-anchor:start;white-space:normal;shape-padding:0;shape-margin:0;inline-size:0;clip-rule:nonzero;display:inline;overflow:visible;visibility:visible;isolation:auto;mix-blend-mode:normal;color-interpolation:sRGB;color-interpolation-filters:linearRGB;solid-color:#000000;solid-opacity:1;vector-effect:none;fill:#0000ff;fill-opacity:1;fill-rule:evenodd;stroke:none;stroke-width:6.54079;stroke-linecap:round;stroke-linejoin:round;stroke-miterlimit:4;stroke-dasharray:none;stroke-dashoffset:0;stroke-opacity:1;color-rendering:auto;image-rendering:auto;shape-rendering:auto;text-rendering:auto;enable-background:accumulate;stop-color:#000000"
           d="m 355.31305,-82.808603 v 67.171115 h 4.07511 V -42.26664 h 4.65303 c 1.76034,0 2.52198,2.386337 2.52198,8.007951 0,2.858442 -0.0533,2.131251 -0.0533,7.101203 v -0.01762 c 0,6.264877 0.11198,8.314242 0.62482,11.539379 h 4.36101 v -2.50851 c -0.62191,-1.19436 -0.86992,-2.566601 -0.86992,-5.518568 -0.10932,-19.807811 -0.21867,-20.725048 -2.73799,-24.410105 2.22063,-2.945795 3.33936,-8.376527 3.33936,-16.576023 0,-7.461447 -1.06085,-18.157469 -5.31278,-18.157469 z m 58.22936,0 v 67.171115 h 4.06925 v -46.44679 l 7.93956,46.44679 h 4.0634 v -67.171115 h -4.0634 v 45.694284 l -7.83449,-45.694284 z m 49.89243,0.461 c -2.05822,0 -3.82123,2.93988 -4.98582,8.375066 -1.11046,5.067534 -1.61715,13.447979 -1.61715,26.06921 0,18.979154 1.32193,34.3672 6.60297,34.3672 5.33544,0 6.60297,-15.647545 6.60297,-33.981126 0,-11.975745 -0.42748,-20.076602 -1.34859,-25.143159 -1.13739,-6.265156 -3.00654,-9.687191 -5.25438,-9.687191 z m 15.08577,0 c -3.57509,0 -6.17681,7.472996 -6.17681,17.791311 0,6.265063 0.76562,10.241272 2.49877,13.37265 -2.22063,4.054143 -3.14681,9.010785 -3.14681,16.749718 0,12.345113 2.78946,20.897797 6.82485,20.897797 4.00818,0 6.79551,-8.552684 6.79551,-20.897797 0,-7.738933 -0.91418,-12.695575 -3.13508,-16.749718 1.32699,-2.393738 2.48118,-5.933504 2.48118,-13.488212 0,-10.226293 -2.59399,-17.675749 -6.14161,-17.675749 z m 14.86948,0 c -3.8455,0 -6.47443,9.405653 -6.47443,23.040504 0,13.450759 2.3265,22.634481 5.73892,22.634481 2.35613,0 3.22923,-4.694336 3.68978,-6.444973 0,12.437575 -1.03711,18.621282 -3.17615,18.621282 -1.32699,0 -2.2481,-2.492996 -2.32917,-6.368106 h -3.6607 c 0.08,10.042601 2.58679,17.424897 5.89068,17.424897 3.03347,0 7.06406,-5.414114 7.06406,-36.277476 0,-27.730123 -4.0346,-32.630609 -6.74299,-32.630609 z m 22.72212,0 c -3.98124,0 -6.31096,8.004239 -6.31096,21.824546 0,0.554435 0,1.282692 0.0267,2.295641 h 3.63697 v -2.099425 c 0,-7.278295 0.99338,-11.52052 2.72653,-11.52052 1.67902,0 2.7148,3.974353 2.7148,10.516901 0,7.186621 -0.65311,10.1262 -4.90424,20.26153 -3.2228,7.646207 -4.25326,13.36415 -4.44261,25.432584 h 13.05395 v -11.539119 h -8.12092 c 1.62488,-11.700605 8.20252,-14.894356 8.20252,-34.425245 0,-12.62251 -2.54439,-20.724338 -6.57951,-20.724338 z m 15.05643,0 c -3.98126,0 -6.30509,8.004239 -6.30509,21.824546 0,0.554435 -0.0267,1.282692 0.0267,2.295641 h 3.6311 v -2.099425 c 0,-7.278295 1.00538,-11.52052 2.73826,-11.52052 1.67901,0 2.70892,3.974353 2.70892,10.516901 0,7.186621 -0.65149,10.1262 -4.90422,20.26153 -3.22282,7.646207 -4.2474,13.36415 -4.43701,25.432584 h 13.05395 v -11.539387 h -8.13265 c 1.62487,-11.700605 8.20838,-14.89435 8.20838,-34.425245 v 0 c 0,-12.62251 -2.54439,-20.724325 -6.57978,-20.724325 z m 15.08549,0 c -2.05796,0 -3.81537,2.93988 -4.97969,8.375066 -1.11072,5.067534 -1.63475,13.447979 -1.63475,26.06921 0,18.979154 1.3334,34.3672 6.61444,34.3672 5.33545,0 6.60885,-15.647545 6.60885,-33.981126 0,-11.975745 -0.4347,-20.076602 -1.35447,-25.143159 -1.13766,-6.265156 -3.00627,-9.687191 -5.25438,-9.687191 z m 15.03324,0 c -3.98099,0 -6.31684,8.004239 -6.31684,21.824546 0,0.554435 -5.3e-4,1.282692 0.0294,2.295641 h 3.63137 v -2.099425 c 0,-7.278295 0.99924,-11.52052 2.73212,-11.52052 1.67929,0 2.7148,3.974353 2.7148,10.516901 0,7.186621 -0.6515,10.1262 -4.90396,20.26153 -3.22282,7.646207 -4.25327,13.36415 -4.44288,25.432584 h 13.05366 v -11.539119 h -8.12089 c 1.62514,-11.700605 8.20278,-14.894356 8.20251,-34.425245 v 0 c 0,-12.62251 -2.53826,-20.724338 -6.57364,-20.724338 z m -97.85839,10.420733 v 0 c 1.73314,0 2.81399,3.760607 2.81399,24.120944 0,7.278027 -0.21334,14.652221 -0.48456,17.231423 -0.43256,3.87237 -1.25205,5.982554 -2.3353,5.982554 -1.76035,0 -2.80814,-3.927287 -2.80814,-23.368492 0,-18.518468 0.85818,-23.966429 2.80814,-23.966429 z m 15.11482,0 c 1.67929,0 2.84334,3.499346 2.84334,8.567671 0,4.974802 -1.191,8.548713 -2.84334,8.548713 -1.679,0 -2.86653,-3.592339 -2.86653,-8.664275 0,-4.974795 1.16032,-8.452109 2.86653,-8.452109 z m 67.70473,0 v 0 c 1.73342,0 2.814,3.760607 2.814,24.120944 0,7.278027 -0.22135,14.652221 -0.49068,17.231423 -0.43256,3.87237 -1.24593,5.982554 -2.32918,5.982554 -1.76036,0 -2.81987,-3.927287 -2.81987,-23.368492 0,-18.518468 0.8699,-23.966429 2.81987,-23.966429 z m -52.96938,0.09785 c 1.84169,0 2.97747,4.876258 2.97747,12.523429 0,7.186045 -1.18591,11.982531 -2.91907,11.982531 -1.73314,0 -2.82546,-4.693706 -2.82546,-12.156433 0,-7.555163 1.08805,-12.349527 2.76706,-12.349527 z m -133.89099,0.558837 h 4.89811 c 1.70621,0 2.86653,1.091407 2.86653,8.548546 0,7.831831 -1.18753,8.953349 -2.86653,8.953349 h -4.89811 z m 80.61253,5.036151 v 0.05285 c -1.73341,0 -3.25081,3.849286 -4.06339,10.574551 v -9.764228 h -3.79483 v 49.746745 h 3.79483 v -26.436205 c 0,-7.554715 1.11285,-11.346343 3.33349,-11.346343 0.40669,0 0.68189,0.122501 1.19686,0.364912 v -13.102408 c -0.21601,-0.09785 -0.36349,-0.07056 -0.47256,-0.07056 z m -59.92809,0.05285 c -4.19781,0 -6.77232,10.320257 -6.77232,26.996053 0,15.938168 2.55238,25.683977 6.6963,25.683977 3.27696,0 5.92695,-6.328174 6.76646,-16.093824 h -3.7423 c -0.46003,3.963072 -1.50861,6.252376 -2.88974,6.252376 -2.54599,0 -2.95454,-6.357882 -3.03588,-13.08333 h 9.80206 c 0.0293,-1.101287 0.0373,-1.564745 0.0373,-2.197536 0,-22.019047 -3.92872,-27.555768 -6.85392,-27.555768 z m 14.54279,0 c -3.46683,0 -6.06587,11.514175 -6.06587,26.89945 0,15.478037 2.38784,25.78058 5.98988,25.78058 1.7062,0 2.72492,-1.746232 4.13325,-7.178423 v 6.753651 c 0,5.9877658 -1.32086,10.1112664 -3.21669,10.1112664 -1.43552,0 -2.38783,-2.0380838 -2.68571,-5.8084743 h -3.92312 c 0.0533,8.66013467 2.60173,14.1063319 6.47444,14.1063319 4.4146,0 6.95898,-6.7087896 6.95898,-18.409124 v -51.425294 h -3.6079 v 7.641438 c -1.13739,-5.896441 -2.37824,-8.470967 -4.05726,-8.470967 z m -14.59533,9.860845 c 1.76035,0 2.79159,4.049145 2.954,11.327265 h -5.8264 c 0.24266,-7.554708 1.19339,-11.327265 2.8724,-11.327265 z m 15.41245,0.927104 c 1.89581,0 3.29854,6.725936 3.29854,15.939092 0,9.029461 -1.37979,15.186372 -3.35695,15.186372 -1.78755,0 -3.02975,-6.156911 -3.02975,-15.186372 0,-9.397381 1.24646,-15.939092 3.08816,-15.939092 z m 83.05876,9.377861 c 1.86889,0 3.04174,4.239853 3.04174,11.057316 0,6.264621 -1.20005,10.420298 -3.04174,10.420298 -1.84169,0 -3.00068,-4.125525 -3.00068,-10.574646 0,-6.633244 1.18619,-10.902968 3.00068,-10.902968 z m -35.77578,16.98098 v 13.430891 h 4.06338 V -29.03386 Z" />
      </g>
    </g>
  </g>
</svg>
