<?xml version="1.0" encoding="UTF-8" standalone="no"?>
<svg
   xmlns:dc="http://purl.org/dc/elements/1.1/"
   xmlns:cc="http://creativecommons.org/ns#"
   xmlns:rdf="http://www.w3.org/1999/02/22-rdf-syntax-ns#"
   xmlns:svg="http://www.w3.org/2000/svg"
   xmlns="http://www.w3.org/2000/svg"
   xmlns:sodipodi="http://sodipodi.sourceforge.net/DTD/sodipodi-0.dtd"
   xmlns:inkscape="http://www.inkscape.org/namespaces/inkscape"
   width="109.6698mm"
   height="107.8177mm"
   viewBox="0 0 109.6698 107.8177"
   version="1.1"
   id="svg8"
   inkscape:version="1.0.1 (3bc2e813f5, 2020-09-07)"
   sodipodi:docname="PixLogo.svg">
  <defs
     id="defs2" />
  <sodipodi:namedview
     id="base"
     pagecolor="#ffffff"
     bordercolor="#666666"
     borderopacity="1.0"
     inkscape:pageopacity="0.0"
     inkscape:pageshadow="2"
     inkscape:zoom="0.35"
     inkscape:cx="302.9643"
     inkscape:cy="292.32141"
     inkscape:document-units="px"
     inkscape:current-layer="layer1"
     showgrid="false"
     inkscape:window-width="1920"
     inkscape:window-height="1057"
     inkscape:window-x="-8"
     inkscape:window-y="-8"
     inkscape:window-maximized="1"
     inkscape:document-rotation="0" />
  <metadata
     id="metadata5">
    <rdf:RDF>
      <cc:Work
         rdf:about="">
        <dc:format>image/svg+xml</dc:format>
        <dc:type
           rdf:resource="http://purl.org/dc/dcmitype/StillImage" />
        <dc:title></dc:title>
      </cc:Work>
    </rdf:RDF>
  </metadata>
  <g
     inkscape:label="Layer 1"
     inkscape:groupmode="layer"
     id="layer1"
     transform="translate(97.168232,-70.823295)">
    <path
       id="path10368"
       style="fill:#eeffaa;stroke:#aaaaff;stroke-width:0.396875;stroke-miterlimit:4;stroke-dasharray:none"
       d="m -55.297914,71.021732 c -0.881952,2e-6 -0.926042,0.0441 -0.926042,0.926041 0,0.881944 -0.0441,0.926042 -0.926049,0.926042 -0.881931,3e-6 -0.926039,0.0441 -0.926039,0.926042 v 0.926041 h -1.852081 -1.852081 v 0.926042 0.926042 h -1.852088 -1.852081 v 0.926041 c 0,0.881944 -0.0441,0.926042 -0.926039,0.926042 -0.881941,3e-6 -0.926042,-0.04409 -0.926042,-0.926042 0,-0.88194 -0.0441,-0.926041 -0.926039,-0.926041 -0.881941,0 -0.926049,0.0441 -0.926049,0.926041 0,0.881944 0.0441,0.926042 0.926049,0.926042 0.881941,0 0.926039,0.0441 0.926039,0.926042 0,0.881943 -0.0441,0.926041 -0.926039,0.926041 -0.881941,3e-6 -0.926049,0.0441 -0.926049,0.926041 0,0.881944 -0.0441,0.926042 -0.926042,0.926042 -0.881939,0 -0.926039,0.0441 -0.926039,0.926041 v 0.926042 h -1.85208 -1.85209 v 0.926042 c 0,0.881943 -0.0441,0.926041 -0.92604,0.926041 -0.88194,3e-6 -0.92604,0.0441 -0.92604,0.926042 0,0.881944 -0.0441,0.926042 -0.92604,0.926042 -0.88194,2e-6 -0.92604,0.0441 -0.92604,0.926041 0,0.881944 -0.0441,0.926042 -0.92604,0.926042 -0.88194,3e-6 -0.92605,0.0441 -0.92605,0.926042 0,0.881943 -0.0441,0.926041 -0.92604,0.926041 h -0.92604 v 1.852084 1.852083 h -0.92604 c -0.88196,0 -0.92604,0.0441 -0.92604,0.926042 0,0.881943 -0.0441,0.926041 -0.92604,0.926041 -0.88194,0 -0.92605,0.0441 -0.92605,0.926043 0,0.881941 -0.0441,0.926039 -0.92604,0.926039 h -0.92604 v -1.852082 -1.852083 h -0.92604 -0.92604 v 1.852083 1.852082 h 0.92604 c 0.88196,0 0.92604,0.0441 0.92604,0.926044 0,0.881947 -0.0441,0.926047 -0.92604,0.926047 h -0.92604 v 1.85208 1.85208 h -0.92604 -0.92605 v 1.85209 1.85208 h -1.85208 -1.85208 v 0.92604 0.92604 h 1.85208 1.85208 v 3.70417 3.70417 h -0.92604 -0.92604 v 6.48228 6.48229 h 0.92604 0.92604 v 3.70417 3.70417 h -0.92604 c -0.88193,0 -0.92604,-0.0441 -0.92604,-0.92604 v -0.92605 h -1.85208 -1.85209 v 0.92605 0.92604 h 1.85209 1.85208 v 0.92604 c 0,0.88194 0.0441,0.92604 0.92604,0.92604 h 0.92604 v 1.85208 1.85209 h 0.92605 0.92604 v 3.70416 3.70417 h -0.92604 c -0.88194,0 -0.92605,0.0441 -0.92605,0.92604 0,0.88194 0.0441,0.92604 0.92605,0.92604 0.88193,0 0.92604,-0.0441 0.92604,-0.92604 0,-0.88194 0.0441,-0.92604 0.92604,-0.92604 0.88196,0 0.92604,-0.0441 0.92604,-0.92604 0,-0.88195 0.0441,-0.92604 0.92604,-0.92604 0.88194,0 0.92604,0.0441 0.92604,0.92604 0,0.88194 0.0441,0.92604 0.92605,0.92604 h 0.92604 v 1.85208 1.85209 h 0.92604 c 0.88193,0 0.92604,0.0441 0.92604,0.92604 0,0.88194 0.0441,0.92604 0.92604,0.92604 0.88194,0 0.92604,0.0441 0.92604,0.92604 0,0.88194 0.0441,0.92604 0.92605,0.92604 0.88194,0 0.92604,0.0441 0.92604,0.92605 0,0.88194 0.0441,0.92604 0.92604,0.92604 0.88195,0 0.92604,0.0441 0.92604,0.92604 0,0.88194 0.0441,0.92604 0.92604,0.92604 0.88194,0 0.92604,0.0441 0.92604,0.92604 0,0.88194 0.0441,0.92604 0.92605,0.92604 0.88194,1e-5 0.92604,0.0441 0.92604,0.92604 v 0.92605 h 1.85208 1.852081 v 1.85208 1.85208 h -0.926042 c -0.881939,0 -0.926039,0.0441 -0.926039,0.92604 v 0.92605 h 1.852081 1.852088 v -0.92605 c 0,-0.88193 0.0441,-0.92604 0.926042,-0.92604 0.881949,0 0.926039,0.0441 0.926039,0.92604 v 0.92605 h 1.852081 1.852088 v 0.92603 0.92604 h 1.852081 1.852081 v 2.77812 2.77813 h 0.926039 0.926049 v -2.77813 -2.77812 h 2.77812 2.77813 v 0.92604 0.92604 h 7.408331 7.408331 v -0.92604 -0.92604 h 2.77813 2.77812 v 2.77812 2.77813 h 0.926039 0.926049 v -1.85207 -1.8521 h 0.926039 c 0.881941,0 0.926042,-0.0441 0.926042,-0.92604 v -0.92604 h 1.852081 1.852088 v -0.92604 -0.92603 h 3.704162 3.704169 v 0.92603 c 0,0.88195 0.0441,0.92604 0.926039,0.92604 0.881941,0 0.926042,-0.0441 0.926042,-0.92604 0,-0.88194 -0.0441,-0.92603 -0.926042,-0.92603 -0.881941,0 -0.926039,-0.0441 -0.926039,-0.92605 0,-0.88193 -0.0441,-0.92604 -0.926042,-0.92604 -0.881938,1e-5 -0.926039,-0.0441 -0.926039,-0.92604 0,-0.88194 0.0441,-0.92604 0.926039,-0.92604 0.881952,0 0.926042,-0.0441 0.926042,-0.92604 v -0.92604 h 1.852081 1.852088 v -0.92605 c 0,-0.88193 0.0441,-0.92604 0.926039,-0.92604 0.8819518,0 0.9260418,-0.0441 0.9260418,-0.92604 0,-0.88194 0.0441,-0.92604 0.926039,-0.92604 0.881941,0 0.926039,-0.0441 0.926039,-0.92604 0,-0.88195 0.0441,-0.92604 0.926042,-0.92604 0.881949,0 0.926049,-0.0441 0.926049,-0.92604 0,-0.88194 0.0441,-0.92605 0.926039,-0.92605 0.881952,0 0.926042,-0.0441 0.926042,-0.92604 0,-0.88194 0.0441,-0.92604 0.926039,-0.92604 h 0.926039 v -1.85208 -1.85209 h 0.926042 c 0.88194901,1e-5 0.92604901,-0.0441 0.92604901,-0.92604 v -0.92604 h 1.85208099 1.852083 v -1.85208 -1.85209 h 0.92604 0.92605 v -1.85208 -1.85208 h 0.92604 0.92604 v -1.85209 -1.85208 h 2.77812 2.7781302 v -0.92604 -0.92604 h -2.7781302 -2.77812 v -4.63021 -4.63021 h 0.92604 0.92604 v -4.63021 -4.6302 h -0.92604 -0.92604 v -3.70417 -3.70416 h 1.85208 1.8520902 v -0.92605 -0.92604 h -1.8520902 -1.85208 v -2.77813 -2.77812 h -0.92604 -0.92604 v -3.70416 -3.704173 h -0.92605 c -0.88193,0 -0.92604,0.0441 -0.92604,0.926043 0,0.881941 -0.0441,0.926039 -0.926044,0.926039 -0.881941,0 -0.926039,-0.0441 -0.926039,-0.926039 0,-0.881942 -0.0441,-0.926043 -0.92604199,-0.926043 -0.881948,3e-6 -0.926039,-0.0441 -0.926039,-0.926041 0,-0.881941 -0.0441,-0.926042 -0.92604901,-0.926042 -0.881931,3e-6 -0.926042,-0.0441 -0.926042,-0.926042 0,-0.881941 -0.0441,-0.926041 -0.926039,-0.926041 h -0.926039 v -1.852084 -1.852083 h -0.926042 c -0.881938,0 -0.926039,-0.0441 -0.926039,-0.926042 0,-0.881941 -0.0441,-0.926041 -0.926049,-0.926041 -0.881931,2e-6 -0.926042,-0.0441 -0.926042,-0.926042 v -0.926042 h -1.852078 -1.8520808 v -0.926041 c 0,-0.881941 -0.0441,-0.926042 -0.926049,-0.926042 -0.881931,0 -0.926039,-0.04409 -0.926039,-0.926042 0,-0.881941 -0.0441,-0.926041 -0.926042,-0.926041 h -0.926039 v -1.852083 -1.852083 h -1.852081 -1.852088 v -0.926042 -0.926041 h -2.778123 -2.778127 V 75.65194 c 0,-0.881941 -0.0441,-0.926042 -0.926042,-0.926042 h -0.926039 v -1.852083 -1.852083 h -0.926042 -0.926039 v 1.852083 1.852083 h -12.964588 -12.964581 v -1.852083 -1.852083 z m 39.819789,7.408333 h 0.926039 c 0.881941,0 0.926042,-0.04409 0.926042,-0.926042 0,-0.88194 -0.0441,-0.926041 -0.926042,-0.926041 -0.881941,2e-6 -0.926039,0.0441 -0.926039,0.926041 z M 3.0427078,150.66131 v 0.92604 c 0,0.88194 0.0441,0.92604 0.92604,0.92604 0.88195,1e-5 0.92605,-0.0441 0.92605,-0.92604 0,-0.88194 -0.0441,-0.92604 -0.92605,-0.92604 z M -48.815625,76.577982 h 6.482289 6.482292 v 0.926041 0.926042 h 1.852088 1.852081 v 1.852083 1.852083 h 0.926039 c 0.881941,0 0.926042,-0.0441 0.926042,-0.926042 0,-0.88194 0.0441,-0.926041 0.926039,-0.926041 0.881949,0 0.926049,0.0441 0.926049,0.926041 v 0.926042 h 1.852081 1.852081 v 0.926041 0.926042 h 1.852088 1.852081 v 1.852083 1.852084 h 0.926039 0.926042 v -1.852084 -1.852083 h 1.852088 1.852081 v 0.926042 c 0,0.881943 0.0441,0.926041 0.926039,0.926041 0.881941,3e-6 0.926042,0.0441 0.926042,0.926042 0,0.881944 0.0441,0.926042 0.926039,0.926042 0.881949,0 0.926049,0.0441 0.926049,0.926041 0,0.881944 0.0441,0.926042 0.926039,0.926042 0.8819518,0 0.9260418,0.0441 0.9260418,0.926042 0,0.881943 0.0441,0.926041 0.926039,0.926041 0.881941,3e-6 0.926039,0.0441 0.926039,0.926042 0,0.881943 0.0441,0.926042 0.926042,0.926042 0.881949,2e-6 0.926049,0.0441 0.926049,0.926041 0,0.881944 0.0441,0.926042 0.926039,0.926042 0.881952,0 0.926042,0.0441 0.926042,0.926042 0,0.881943 0.0441,0.926041 0.926039,0.926041 h 0.926039 v 1.852082 1.852091 h -2.77812 -2.77813 v 0.92603 0.92605 h 2.77813 2.77812 v 1.85208 1.85209 h 0.926042 0.92604901 v 1.85208 1.85208 h 0.926039 c 0.88194099,0 0.92604199,0.0441 0.92604199,0.92604 0,0.88195 0.0441,0.92605 0.926039,0.92605 h 0.926044 v 1.85208 1.85208 h 0.92604 0.92605 v 8.33437 8.33438 h -0.92605 -0.92604 v 1.85208 1.85208 h -0.926044 c -0.881941,0 -0.926039,0.0441 -0.926039,0.92605 0,0.88194 -0.0441,0.92604 -0.92604199,0.92604 h -0.926039 v 2.77812 2.77813 H -1.5875052 c -0.881931,0 -0.926042,0.0441 -0.926042,0.92604 v 0.92604 h -1.852078 -1.852081 v 0.92604 0.92604 h 1.852081 1.852078 v 1.85209 1.85208 h -0.926039 c -0.881941,0 -0.926039,0.0441 -0.926039,0.92604 0,0.88194 -0.0441,0.92604 -0.926042,0.92604 -0.881938,1e-5 -0.926039,0.0441 -0.926039,0.92605 0,0.88194 -0.0441,0.92604 -0.926049,0.92604 h -0.926042 v 1.85208 1.85208 h -0.926039 c -0.881941,0 -0.926039,0.0441 -0.926039,0.92605 v 0.92604 h -1.8520808 -1.852088 v 0.92604 c 0,0.88194 -0.0441,0.92604 -0.926042,0.92604 -0.881941,0 -0.926039,0.0441 -0.926039,0.92604 v 0.92604 h -1.852081 -1.852088 v -1.85208 -1.85208 h -0.926042 -0.926039 v 1.85208 1.85208 h -0.926042 c -0.881938,1e-5 -0.926039,0.0441 -0.926039,0.92604 v 0.92605 h -1.852088 -1.852081 v 0.92604 0.92604 h -1.852081 -1.852088 v -0.92604 c 0,-0.88195 -0.0441,-0.92604 -0.926042,-0.92604 h -0.926039 v 2.77812 2.77813 h -10.186461 -10.186458 v -1.85209 -1.85208 h 0.926039 c 0.881951,0 0.926049,-0.0441 0.926049,-0.92604 v -0.92604 h -1.852088 -1.852081 v 0.92604 0.92604 h -1.852081 -1.852088 v -0.92604 -0.92604 h -1.852081 -1.852081 v -0.92605 c 0,-0.88193 -0.0441,-0.92604 -0.926049,-0.92604 h -0.926039 v -1.85208 -1.85208 h -0.926042 -0.926039 v 1.85208 1.85208 h -1.852081 -1.852088 v -0.92604 c 0,-0.88194 -0.0441,-0.92604 -0.926042,-0.92604 -0.881939,0 -0.926039,-0.0441 -0.926039,-0.92604 v -0.92604 h -1.85208 -1.85209 v -0.92604 c 0,-0.88194 -0.0441,-0.92605 -0.92604,-0.92605 -0.88194,0 -0.92604,-0.0441 -0.92604,-0.92604 0,-0.88194 -0.0441,-0.92604 -0.92604,-0.92604 h -0.92604 v -1.85208 -1.85209 h -0.92604 c -0.88194,0 -0.92605,-0.0441 -0.92605,-0.92604 0,-0.88194 -0.0441,-0.92604 -0.92604,-0.92604 h -0.92604 v -1.85208 -1.85209 h 0.92604 c 0.88194,0 0.92604,-0.0441 0.92604,-0.92604 0,-0.88194 -0.0441,-0.92604 -0.92604,-0.92604 -0.88193,0 -0.92604,-0.0441 -0.92604,-0.92604 0,-0.88195 -0.0441,-0.92604 -0.92604,-0.92604 h -0.92604 v -1.85209 -1.85208 h -0.92604 -0.92605 v -1.85208 -1.85209 h -0.92604 c -0.88193,1e-5 -0.92604,-0.0441 -0.92604,-0.92604 0,-0.88194 -0.0441,-0.92604 -0.92604,-0.92604 h -0.92604 v -9.26041 -9.26042 h 0.92604 c 0.88196,0 0.92604,-0.0441 0.92604,-0.92604 0,-0.88194 0.0441,-0.92604 0.92604,-0.92604 0.88194,0 0.92604,0.0441 0.92604,0.92604 0,0.88194 0.0441,0.92604 0.92605,0.92604 h 0.92604 v -1.85208 -1.85208 h -0.92604 c -0.88194,0 -0.92605,-0.0441 -0.92605,-0.92605 0,-0.88194 0.0441,-0.92604 0.92605,-0.92604 h 0.92604 v -2.77813 -2.77812 h 0.92604 c 0.88193,0 0.92604,-0.0441 0.92604,-0.92604 v -0.92604 h 1.85208 1.85209 v -0.92605 -0.92603 h -1.85209 -1.85208 v -1.852091 -1.852082 h 0.92604 c 0.88194,3e-6 0.92604,-0.0441 0.92604,-0.926041 0,-0.881941 0.0441,-0.926042 0.92605,-0.926042 0.88194,3e-6 0.92604,-0.0441 0.92604,-0.926042 0,-0.881941 0.0441,-0.926041 0.92604,-0.926041 0.88195,2e-6 0.92604,-0.0441 0.92604,-0.926042 0,-0.881941 0.0441,-0.926042 0.92604,-0.926042 0.88194,0 0.92604,-0.0441 0.92604,-0.926041 0,-0.881941 0.0441,-0.926042 0.92605,-0.926042 0.88194,0 0.92604,-0.0441 0.92604,-0.926042 0,-0.881941 0.0441,-0.926041 0.92604,-0.926041 0.88194,0 0.92604,-0.0441 0.92604,-0.926042 0,-0.881941 0.0441,-0.926042 0.926039,-0.926042 0.881941,3e-6 0.926042,-0.04409 0.926042,-0.926041 v -0.926042 h 1.852088 1.852081 v 1.852083 1.852084 h 0.926039 0.926042 v -1.852084 -1.852083 h 1.852088 1.852081 v -0.926042 -0.926041 h 1.852081 1.852088 v -0.926042 c 0,-0.88194 0.0441,-0.926041 0.926042,-0.926041 0.881938,0 0.926039,-0.04409 0.926039,-0.926041 v -0.926042 h 2.77812 2.77813 v -0.926042 z m -4.630211,3.704166 c -0.881938,0 -0.926039,0.0441 -0.926039,0.926041 0,0.881944 0.0441,0.926042 0.926039,0.926042 0.881941,0 0.926042,-0.0441 0.926042,-0.926042 0,-0.88194 -0.0441,-0.926041 -0.926042,-0.926041 z m 20.372922,1.852083 c -0.881941,2e-6 -0.926042,0.0441 -0.926042,0.926041 0,0.881944 0.0441,0.926042 0.926042,0.926042 0.881949,0 0.926039,-0.04409 0.926039,-0.926042 0,-0.881941 -0.0441,-0.926041 -0.926039,-0.926041 z m -13.89063,9.260416 v 0.926042 c 0,0.881943 -0.0441,0.926042 -0.926042,0.926042 h -0.926039 v 8.334369 8.33438 h 0.926039 c 0.881941,0 0.926042,0.0441 0.926042,0.92604 v 0.92605 h 5.55625 5.55625 v -0.92605 c 0,-0.88194 0.0441,-0.92604 0.926039,-0.92604 h 0.926049 v -3.70416 -3.70417 h -0.926049 c -0.881931,0 -0.926039,-0.0441 -0.926039,-0.92605 v -0.92603 h -2.77812 -2.77813 v 1.85208 1.85208 h 1.852088 1.852081 v 1.85209 1.85208 h -3.704169 -3.704162 v -6.4823 -6.482286 h 0.926042 c 0.881949,3e-6 0.926039,-0.0441 0.926039,-0.926042 0,-0.881941 0.0441,-0.926041 0.926039,-0.926041 0.881941,2e-6 0.926042,0.0441 0.926042,0.926041 0,0.881944 0.0441,0.926042 0.926039,0.926042 0.881949,0 0.926049,0.0441 0.926049,0.926042 v 0.926041 h 2.77812 2.77813 v -0.926041 c 0,-0.881941 -0.0441,-0.926042 -0.926049,-0.926042 -0.881931,3e-6 -0.926039,-0.0441 -0.926039,-0.926042 0,-0.881941 -0.0441,-0.926041 -0.926042,-0.926041 -0.881938,0 -0.926039,-0.0441 -0.926039,-0.926042 v -0.926042 h -4.630211 z M 0.26458281,111.76757 c -0.881948,0 -0.926039,0.0441 -0.926039,0.92603 0,0.88195 0.0441,0.92605 0.926039,0.92605 0.88194099,0 0.92604199,-0.0441 0.92604199,-0.92605 0,-0.88194 -0.0441,-0.92603 -0.92604199,-0.92603 z M -63.632294,126.58423 v 0.92604 c 0,0.88194 -0.0441,0.92604 -0.926042,0.92604 -0.881938,0 -0.926039,0.0441 -0.926039,0.92604 0,0.88195 -0.0441,0.92604 -0.926039,0.92604 h -0.926042 v 7.40834 7.40833 h 0.926042 c 0.881949,0 0.926039,0.0441 0.926039,0.92604 v 0.92604 h 1.852081 1.852088 v 0.92605 0.92604 h 1.852081 1.852081 v -0.92604 -0.92605 h 1.852088 1.852081 v -0.92604 c 0,-0.88194 0.0441,-0.92604 0.926039,-0.92604 h 0.926042 v -3.70417 -3.70416 h -3.704162 -3.704169 v 0.92604 0.92604 h 1.852081 1.852088 v 1.85208 1.85209 h -0.926049 c -0.881931,0 -0.926039,0.0441 -0.926039,0.92604 v 0.92604 h -1.852081 -1.852081 v -0.92604 c 0,-0.88195 -0.0441,-0.92604 -0.926049,-0.92604 h -0.926039 v -5.55625 -5.55625 h 0.926039 c 0.881951,0 0.926049,-0.0441 0.926049,-0.92604 v -0.92605 h 1.852081 1.852081 v 0.92605 c 0,0.88194 0.0441,0.92604 0.926039,0.92604 0.881951,0 0.926049,0.0441 0.926049,0.92604 0,0.88194 0.0441,0.92604 0.926042,0.92604 0.881938,0 0.926039,-0.0441 0.926039,-0.92604 0,-0.88195 0.0441,-0.92604 0.926039,-0.92604 0.881941,0 0.926042,-0.0441 0.926042,-0.92604 0,-0.88193 -0.0441,-0.92605 -0.926042,-0.92605 -0.881938,0 -0.926039,-0.0441 -0.926039,-0.92604 0,-0.88193 -0.0441,-0.92604 -0.926039,-0.92604 -0.881952,0 -0.926042,-0.0441 -0.926042,-0.92604 v -0.92604 h -3.704169 z m 33.3375,0 v 10.18646 10.18645 h 5.55625 5.55625 v -0.92604 c 0,-0.88194 0.0441,-0.92604 0.926039,-0.92604 0.881949,0 0.926049,-0.0441 0.926049,-0.92604 0,-0.88195 0.0441,-0.92604 0.926039,-0.92604 h 0.926042 v -5.55625 -5.55625 h -0.926042 -0.926039 v -1.85209 -1.85208 h -1.852088 -1.852081 v -0.92604 -0.92604 h -4.630211 z m 5.55625,3.70416 h 1.852088 1.852081 v 0.92605 c 0,0.88194 0.0441,0.92604 0.926039,0.92604 h 0.926042 v 4.63021 4.6302 h -0.926042 c -0.881938,0 -0.926039,0.0441 -0.926039,0.92605 0,0.88194 -0.0441,0.92604 -0.926042,0.92604 -0.881938,0 -0.926039,0.0441 -0.926039,0.92604 0,0.88194 -0.0441,0.92604 -0.926049,0.92604 h -0.926039 v -7.40833 z m 23.1510388,1.85209 c -0.881931,0 -0.926042,0.0441 -0.926042,0.92604 0,0.88194 0.0441,0.92604 0.926042,0.92604 0.88194901,0 0.92604901,0.0441 0.92604901,0.92604 0,0.88194 0.0441,0.92604 0.926039,0.92604 0.88194099,1e-5 0.92604199,-0.0441 0.92604199,-0.92604 0,-0.88194 -0.0441,-0.92604 -0.92604199,-0.92604 -0.881948,0 -0.926039,-0.0441 -0.926039,-0.92604 0,-0.88195 -0.0441,-0.92604 -0.92604901,-0.92604 z m -83.3437398,1.85208 c -0.88194,0 -0.92605,0.0441 -0.92605,0.92604 0,0.88194 0.0441,0.92604 0.92605,0.92604 0.88193,1e-5 0.92604,-0.0441 0.92604,-0.92604 0,-0.88194 -0.0441,-0.92604 -0.92604,-0.92604 z"
       inkscape:export-xdpi="81.059998"
       inkscape:export-ydpi="81.059998" />
  </g>
</svg>
